<mxfile host="Electron" modified="2023-11-09T18:30:44.769Z" agent="Mozilla/5.0 (Macintosh; Intel Mac OS X 10_15_7) AppleWebKit/537.36 (KHTML, like Gecko) draw.io/21.6.8 Chrome/114.0.5735.289 Electron/25.5.0 Safari/537.36" etag="NA4D8_2jVsFB-2wwWB-U" version="21.6.8" type="device">
  <diagram name="Page-1" id="hnrL_q5DG94uZBxiqhyg">
    <mxGraphModel dx="1272" dy="795" grid="1" gridSize="10" guides="1" tooltips="1" connect="1" arrows="1" fold="1" page="1" pageScale="1" pageWidth="827" pageHeight="1169" math="0" shadow="0">
      <root>
        <mxCell id="0" />
        <mxCell id="1" parent="0" />
        <mxCell id="mNUbwTobc1eYGkok-ZhT-1" value="" style="whiteSpace=wrap;html=1;aspect=fixed;" vertex="1" parent="1">
          <mxGeometry x="240" y="200" width="80" height="80" as="geometry" />
        </mxCell>
        <mxCell id="mNUbwTobc1eYGkok-ZhT-2" value="" style="whiteSpace=wrap;html=1;aspect=fixed;" vertex="1" parent="1">
          <mxGeometry x="320" y="200" width="80" height="80" as="geometry" />
        </mxCell>
        <mxCell id="mNUbwTobc1eYGkok-ZhT-3" value="" style="whiteSpace=wrap;html=1;aspect=fixed;" vertex="1" parent="1">
          <mxGeometry x="480" y="200" width="80" height="80" as="geometry" />
        </mxCell>
        <mxCell id="mNUbwTobc1eYGkok-ZhT-5" value="" style="whiteSpace=wrap;html=1;aspect=fixed;" vertex="1" parent="1">
          <mxGeometry x="400" y="200" width="80" height="80" as="geometry" />
        </mxCell>
        <mxCell id="mNUbwTobc1eYGkok-ZhT-6" value="" style="whiteSpace=wrap;html=1;aspect=fixed;" vertex="1" parent="1">
          <mxGeometry x="240" y="280" width="80" height="80" as="geometry" />
        </mxCell>
        <mxCell id="mNUbwTobc1eYGkok-ZhT-7" value="" style="whiteSpace=wrap;html=1;aspect=fixed;fillStyle=auto;" vertex="1" parent="1">
          <mxGeometry x="320" y="280" width="80" height="80" as="geometry" />
        </mxCell>
        <mxCell id="mNUbwTobc1eYGkok-ZhT-8" value="" style="whiteSpace=wrap;html=1;aspect=fixed;" vertex="1" parent="1">
          <mxGeometry x="480" y="280" width="80" height="80" as="geometry" />
        </mxCell>
        <mxCell id="mNUbwTobc1eYGkok-ZhT-9" value="" style="whiteSpace=wrap;html=1;aspect=fixed;" vertex="1" parent="1">
          <mxGeometry x="400" y="280" width="80" height="80" as="geometry" />
        </mxCell>
        <mxCell id="mNUbwTobc1eYGkok-ZhT-10" value="" style="whiteSpace=wrap;html=1;aspect=fixed;" vertex="1" parent="1">
          <mxGeometry x="240" y="360" width="80" height="80" as="geometry" />
        </mxCell>
        <mxCell id="mNUbwTobc1eYGkok-ZhT-11" value="" style="whiteSpace=wrap;html=1;aspect=fixed;" vertex="1" parent="1">
          <mxGeometry x="320" y="360" width="80" height="80" as="geometry" />
        </mxCell>
        <mxCell id="mNUbwTobc1eYGkok-ZhT-12" value="" style="whiteSpace=wrap;html=1;aspect=fixed;" vertex="1" parent="1">
          <mxGeometry x="480" y="360" width="80" height="80" as="geometry" />
        </mxCell>
        <mxCell id="mNUbwTobc1eYGkok-ZhT-13" value="" style="whiteSpace=wrap;html=1;aspect=fixed;fillColor=#000000;fillStyle=cross-hatch;" vertex="1" parent="1">
          <mxGeometry x="400" y="360" width="80" height="80" as="geometry" />
        </mxCell>
        <mxCell id="mNUbwTobc1eYGkok-ZhT-14" value="" style="whiteSpace=wrap;html=1;aspect=fixed;fillColor=#000000;fillStyle=cross-hatch;" vertex="1" parent="1">
          <mxGeometry x="240" y="440" width="80" height="80" as="geometry" />
        </mxCell>
        <mxCell id="mNUbwTobc1eYGkok-ZhT-15" value="" style="whiteSpace=wrap;html=1;aspect=fixed;" vertex="1" parent="1">
          <mxGeometry x="320" y="440" width="80" height="80" as="geometry" />
        </mxCell>
        <mxCell id="mNUbwTobc1eYGkok-ZhT-16" value="" style="whiteSpace=wrap;html=1;aspect=fixed;" vertex="1" parent="1">
          <mxGeometry x="480" y="440" width="80" height="80" as="geometry" />
        </mxCell>
        <mxCell id="mNUbwTobc1eYGkok-ZhT-17" value="" style="whiteSpace=wrap;html=1;aspect=fixed;" vertex="1" parent="1">
          <mxGeometry x="400" y="440" width="80" height="80" as="geometry" />
        </mxCell>
        <mxCell id="mNUbwTobc1eYGkok-ZhT-18" value="&lt;font style=&quot;font-size: 24px;&quot;&gt;0&lt;/font&gt;" style="text;html=1;align=center;verticalAlign=middle;resizable=0;points=[];autosize=1;strokeColor=none;fillColor=none;" vertex="1" parent="1">
          <mxGeometry x="200" y="220" width="40" height="40" as="geometry" />
        </mxCell>
        <mxCell id="mNUbwTobc1eYGkok-ZhT-19" value="&lt;font style=&quot;font-size: 24px;&quot;&gt;1&lt;/font&gt;" style="text;html=1;align=center;verticalAlign=middle;resizable=0;points=[];autosize=1;strokeColor=none;fillColor=none;" vertex="1" parent="1">
          <mxGeometry x="200" y="300" width="40" height="40" as="geometry" />
        </mxCell>
        <mxCell id="mNUbwTobc1eYGkok-ZhT-20" value="&lt;font style=&quot;font-size: 24px;&quot;&gt;2&lt;/font&gt;" style="text;html=1;align=center;verticalAlign=middle;resizable=0;points=[];autosize=1;strokeColor=none;fillColor=none;" vertex="1" parent="1">
          <mxGeometry x="200" y="380" width="40" height="40" as="geometry" />
        </mxCell>
        <mxCell id="mNUbwTobc1eYGkok-ZhT-21" value="&lt;font style=&quot;font-size: 24px;&quot;&gt;3&lt;/font&gt;" style="text;html=1;align=center;verticalAlign=middle;resizable=0;points=[];autosize=1;strokeColor=none;fillColor=none;" vertex="1" parent="1">
          <mxGeometry x="200" y="460" width="40" height="40" as="geometry" />
        </mxCell>
        <mxCell id="mNUbwTobc1eYGkok-ZhT-22" value="&lt;font style=&quot;font-size: 24px;&quot;&gt;0&lt;/font&gt;" style="text;html=1;align=center;verticalAlign=middle;resizable=0;points=[];autosize=1;strokeColor=none;fillColor=none;" vertex="1" parent="1">
          <mxGeometry x="260" y="160" width="40" height="40" as="geometry" />
        </mxCell>
        <mxCell id="mNUbwTobc1eYGkok-ZhT-23" value="&lt;font style=&quot;font-size: 24px;&quot;&gt;1&lt;/font&gt;" style="text;html=1;align=center;verticalAlign=middle;resizable=0;points=[];autosize=1;strokeColor=none;fillColor=none;" vertex="1" parent="1">
          <mxGeometry x="340" y="160" width="40" height="40" as="geometry" />
        </mxCell>
        <mxCell id="mNUbwTobc1eYGkok-ZhT-24" value="&lt;font style=&quot;font-size: 24px;&quot;&gt;2&lt;/font&gt;" style="text;html=1;align=center;verticalAlign=middle;resizable=0;points=[];autosize=1;strokeColor=none;fillColor=none;" vertex="1" parent="1">
          <mxGeometry x="420" y="160" width="40" height="40" as="geometry" />
        </mxCell>
        <mxCell id="mNUbwTobc1eYGkok-ZhT-25" value="&lt;font style=&quot;font-size: 24px;&quot;&gt;3&lt;/font&gt;" style="text;html=1;align=center;verticalAlign=middle;resizable=0;points=[];autosize=1;strokeColor=none;fillColor=none;" vertex="1" parent="1">
          <mxGeometry x="500" y="160" width="40" height="40" as="geometry" />
        </mxCell>
        <mxCell id="mNUbwTobc1eYGkok-ZhT-27" value="" style="shape=image;aspect=fixed;image=data:image/png,iVBORw0KGgoAAAANSUhEUgAAA5gAAAJYBAMAAAD1eVSOAAAAHlBMVEVuiIgXCQHm5ub/////obfGxsaBm51OSkL+OU8ExE/RnsZ7AAAgAElEQVR42uydy1fbOBfAlSnjbC0e0XbAzMcW7BOybXJ8ptuhOe23dQp1tnGh+N8f62XLth6OSUJ8uNq0F3oqnfxyn7qSUMRHeMUHiAMWEXwSABNEgAkiwAQRYAJMEAEmiAATRIAJIsAEmCACTBABJogAE0QKU/wkED8CccAiwASYIAJMEAEmiIOGKX4AfAYN8x7TQTY/A/oz4DNszVxhMcifDTUFXIODGeJqbH4ArmH7zBkmKK/UE3ANOgBa4UmalDjxJ8A1YJiFofXSNBlLmr8B14BTk8LQpgilSSZo+kEIuAabZ66wnyDkpVI5yQ9IOwcLszC0rwi1lRNwOWAe4x5dwA2tqpz4EXYsB7o5HTwwQ1tTzt+Aa6idBhk3tIVytuMgoDcwmPfC0NbioGUI9AbZA1Qa2sLUVo4zBHqDbOjKsIckzXVZDgqB3hBhzkpDSx1njSbQGxrMaIU3SUUzU2gCvcHBnOLK0Co0C78J9AYHM7qsYqBiKDSB3vBgRlgmmzXdJEugN0CYagyk0gR6A4RZpCeTRKUpDO0E6A0Q5kyNgRSap0BveDAL1VRjIOStlV4SoNeCedx7dLd11axoLmEDcyCb04o4qqsm8kYyCAJ6g4PZVE2UCpoXIdAbGsyWaqI0k3U9oDc0mLOmaiIZ0i6H8BmHAFMVM0zqqimDoEl01DBFvFmKYQgwNaopN6ufjxfm39+rIxZ05BvvG80hwg8OM8JN1SzdZnB8a6Ygyy2B5sj//Bp9cJh3tXq7Wgm6OLI1B1H4PcfWQV6/fmiYhWo2AtrSbX46Lif59xh3Ga/LDwzzoeU1Ze2AHNOav7esK8mLMS4G/ZOovwg+LMxp22tKt3l6NIv8Xw1lnhdLbA2E8jzjDd0fFmY0aqumzDaXx7FIFSXZUI5ea8UcLyr+5a+PfHXMrO01paGdHMMip5magxQgkW7QM6c0PCKP0Ye+BwhrVFMY2uf3XmQQrSudpKeEtSSLXzCSez3YP4hbLYM7jWoKQ0uid17kX1ItCUpThAwoxbn+zbcqH/1om9NSnOpUUxja0/dt1lt1QYmyUik/bqdBKRYfxgQZDG3wjou8z0qUiVkrM3km8UO3jZTinSY7QWit1oHeY5H/lxcWGVFWB0x/RQCTi9TOviKDoQ3eyZNLE0u81IiSbwrkh+koHMq13plWNRNVNQ+8qkAmJL7Fwo7pvyFPc54QA0wu3ulCIKmay3dYlbiykZpYh4U9WVwXxCOAWYq3mGiyExEDXRx+VdFfbhPLLOwmjuNCMc8ApiJikmlUU8RAy0OvSoY+G5uJpaxPCpZxaTwAJhcf8FyTnSAvKztIDriqiqXdxPoUZfylgBoCTEW8w0+6EEhRzcOtSrJ0mdgXxnKR0cZQgKmIU3yaabITxWsebFWCJfESK0vydM1g/kMryHDWpCbiyaUuBBLpyfKAq3Kx9NgXjMRizGkqDDBr4goXEb7m8+PpycXhVnXDWZpDH+YuXxcSZiH5IcCsiXd4MdLZWaGawaFWdSMqBcjK8kWiZFb2DE6B1cVb/OuLNgTiqnkaHmQZwY0rjGUR2cl1rFrZR+hob4j4PNZVgUrVPEgz5a2DpTdW3aWIZXEEMOtikJF4pUs1pWpG+1+GqOFt7CmJypJVDCYAswnzAcc3WjvLVZMcACavrW/F8gvmtTyAWRPv8JPBznLVfN77MsIuLP1FDaZwmQCzLs6KEHGOfWRSTX/vyxjZ41jGchLXh3CZALMuTosISB/Pigrt456X8dCB5UuDpXSZALMuBrRurbezvEK753NEM14rMMaxax3Lz8JlAswGzCKcjbVbJ7JCu9dl3PManp3ldRPmXB5vAph1mEU4a4pnuWqe7XEZPPgxs0y0LBnMCGC2xcsinDXZWW/fh8JY8GOurVOW53F7ZIc8qjYkmDScNdlZb1WGQHtZxiU7WGnc86L12ImGZVxWMwBmXbyl331DPMuzk72d8GNVPN+8f5nJroLG+GfPxn+4MKfMkGn3wWThYE/LmNoDWXrRFNGxZPWfR4CpE5kl0++DiRDoeS/zModJ7MX1hRbmfN8xdjS4U2BSZF//ucHcscLBRbiPeR/cgexJbIJJwoN9VoOCOcIsptA7TcRCoGAP897agx/qMF/0LOOMf78AZltcYb5BqFcSFgI9737e0B78UGc9MbCMeZcBwNSIl5ibronxU91Ht83KWcUjsQXmJ4CpFe+Ya/piUpM13kcf3MzqMJk9MLL8LK45Bpg6mC+xOTnhVaCznffr9naYPDMJAaZWZCWgeDEyKIqws7udN7M7zLW+ilcFsz7ANME8tzlNHgItdzrvpdVh0hnNDpPBvACYevGew/zMVcXzatdfJQlPNc92OS/b93o1sqQTPllgjspgFmA2xakwacxppgka5xnbmMryPN/Qq3bWu36PyG1kXywsaZr5DDBNMCfiC184zfalriTPFTu7g3mDB6eR9W0s4yqYBZgtUXx2c2r5xplCUSV7tqt5ecezOSuhAdfCBTMEmCaYPNq4oT16nriKTl5zhvL6u29vnzd8o5FlaSbANB2MlKGjKM/SSyJLnlQQ2rpZ7mJel5EtUsyJlSU/Mg0wHTCzsmyg8MxpdCvuqPOXb56XH0WwG1k7SzUzgVNgLVHCnKsfMrW3mYKT3629efO8diNLo58XN8zTQ35WA4OJ5ac0aVyEJYJbQm97FU9l/PG2eR3lgkIxfQfLeFVEYwDTJGZYRhaT9s2RudTORGinH7xh3qmjXLB2RbIizQSYLs3UbVCX/nLjJfJyrB/RG94gsxpZL3MaWYDZTTP1Gyfyit4isk3EtXWvfedlG1+pTTGJkyVNMx8BpkszTRsnJc7C6vILJclj1Gei0L7xRaOfk04wvwJMp2bOTe7M43cKsHvQuK39LbLGrSZaOYzsCJ9fO1nSptkrgOn0mcZdsOr9msJzivvrluGWE7nqeFQx3XrJC0AA0wnzRn/oVrmAjXpOevdHxuKg7SZidbxXq2K+dIDJCkAA0wkzttVMsXLZtidM7TYT8TqemSXqFP0AzO4wSeKwszVT68v/qctEjh1pWpTtopi8aQRgumFm2Kw5q2o7jN47yeIgsuw8kSvFLBTTjzvCnABMkxiqMOtNI+qTTWtlc5M6Tm5qHztOFMysJ6SZYj51hXkBME3ilYR5fTXHecYGfc0w32zEo3hJojrNkiYztb+6TeRKMb21rR8PYHYVpxgvFrQiOta+HysagdK01lHCiuWM5u8uEzmjH69TWiLq7BeHzTOH1Z2HY5Rn9neA800VAVUXw7JawiRyT+TYxaRHtM+7wzw76Gc1sL7ZihBhz8byQRzvPDOa1HH6gbNF2hX9pJ0VkzVaAky9KB4cJdKYtl+NtdL0akGtaaKZfReTFfK6wswApkH8l12VnaNG5Fp9ygww0nvTNk3TRI4Us2MhD2Ba+leZVipPjSZJYjijmaZV016LZlrRNEx06TCy2ygmwNSJ0XQk+nvkSQSKzaOj9iPlaWe1qxaXV2vxFGVpntcV/WylmABT0yUXrmm2KNxiO5alkRD3oklNQ5NxO0PhKcqjseuZRj+TXSkmwGyJ1MLmtuimerobNRW0xrNOU9so64p+tlNMgNkQo3CMuw8WH9Vf7VZ4+ipN3bysudIW/WynmACz0fX8r4EaIeycUDvTpJ3tzS5MqdQ8suE0dfbcFf3Q4s8TwOwpTkdNikIxrmkXEGlmmrnEmTTb9uSxhaR8rELSVOaduqIfb9VxuwSKBi0xFM+n5egnl79l+FSplRH1iEKRYObSr7bftBSvBYv6uUqzmpcVZV8dinkSg2b2EcPqEJCswT0oLmteHh7S5JXtZy1FI61XXfS7DOvz3jsK7J0bDEAz2yK/Ef0r+5EWJqZtBJVHbKeV7VtEZaxKdZP3eZXzsrTEZmS79T0DTJ3I3n+/imq/bcAsDwnpaGqaMJUauidpynlZWuI7FBNvxZKdGzoszGPdwHzwf5Z9O/K3DZgo00e6tIhgfN5AeEX6d6LOmzlSzG3zEticVsWo1R8ZqDAv21vTORL9BmlqeazCq/7uV/PeOVLMbQsG0APkElWYN/VigcebRqx2koZBlf5RmhOlu8hhZNHKdU4aYG7VaF7BvP6sqCQSvT8dBt0Gk9CoDxUHm1la4qGdhj/QatlRM6/XVcXHSzuCLGnKZJLuiP0K5W7Jq/2/2TYvkTcHA0yDZl5yS7eIM1PxrgPNwrx6yi2GtHhAe0XsKWaP8Ac62l2aSctpi89VbWBblNxZEkVNiwSFvVZrN7I9wh84OOTymUQxsbnXByULg9Tr1UnQwcj2CH/EnU4A0yBeYnIlTSzZzlfaXvByppi9wh8O8wpgGmHiL8bqa0+avIbkMLK9rCy/Og9gmmEqZy93M1iRb+P4ZvQJf+BOA7t4h017XG9QzZXbyFIr+7Q9S/oQ/CeAaQiA7mT/R7Izluz2aJeR7ZNkivMJcHWM4UDzfXWua2eDppquSLavlaVVA4CpF+Vu9dYsU3v84zv13OsV/jCYh71ubThnTUblWejtxti3vzDj/g/X2/X+qCWgM9ic1okP2Pq2rC16Meme18lhdr1cRFsCugCYGvGmL0uqWAav2Mlh9reyNDeZAMy2OOvPkmqWZ0oxNwnam5WlMOEmaMP7It1Yep7XTj90hpYFP2mn78J5T5gZwGyftJtijDtZRMQqts3NFK1q0uCnC0taMejJkiaaALMh8qSkC0vRHts0njrVTLpmOUlvK0tzkwBg1s9njjDu5t1S2XrZAF8oV9oOfjpmrKveVpbChEdq2k9SdLGInnJnjNeMYZq3YI67ZqxvsLI00fwEMNXDWTOM/2PvfH7bxpU4br0umKvo1vK1STbtNcki9TUpiuZsF35nsi2ka5Tk2f/+I0VKIimSIi3K6ZrSqVpsjCAfD2fmOz/olNqzRVzSxJdARG0L2btGxugwXbZONKe7wMTXW6eCo8JS/QESAu2cNb5gpyzNTaZb+tThLJfgR97LpZomcpBg9U9ySPWrhTmfYMrDWS4gcnVWAaie7zCYh8s/LNGcLkNVhrMcHGbemctVvgC4Z/rALP98GARzuqa4fb12dJiacbAg5+zBInszRXpMmH94PRM7OUxQaMbBdj3x7OiJCUs0p+J0/frFzWEi3XBf55zlBv7kA3VIYjLBlF/X9qXMna3s1nOW6QZgj47mMqlq8GOCyZ67ww9ZTTzLz1kMvFzmX0Ngfofw3QSzMUyXQ9YwCp+pCSP7qCI7VmJSJZovE8zq37euXR2GvQZIbThg//CIhNAhIyaKBDTBJP+6orcFZQcfsh2nOaudpod8gIe5TJpozieYl19YgJr7Sz9mp8mObFDuPFzmMJbfEriYYPImWQfDTMyLETP1/+QRUHY0l0lVg+hhXmLoWPhCli2Xqeo0makWqbvL/DAYJowe5kpLw9MwO6PtPAIqnCMgPMEc/nproOFnmOqPA98ICAwqf9Ubbi7jhknX66dgBmHvXx3Yb6yZaWUDd5iDXSbtNfgVMUx2fUmaV1WtfrXN+ihJKuYwS3CkLFNQDaKEiVsMRd8GtD7DVH+84F+OZHcUYVZSDSKcAuPjQQwD6IXZY5iqoIf45yXZUYTZWjWItTj9pckqmN1lh4eyGpi1BuSYaA6sZcqNIxHCTMRAlLDKDg9l66+ERgPCjonmsFpmPaGQRgpzJeuq2A6z1zA7eWrCIqDCrYMkhMtsGkfig1nKgWhhh9lrmJ081Q8mHtT+06oGccJcKe6uByb2homhB8wgLpP2GsQZACWKu0P2+39Kb5hcnXXT8wJIBgzmrxhh3nU4WGFKecnyqRrN3NsrmvwD3WAOGOWTG0deYoR5rnIANphi+EP3ziJEL0Q9s1omz03cYAaJfyoJKEaYHV0VWG/yFhZ7t6PSSmc7mumkdjeYQeKfZnYoMpirjq4KoNMpKw3NIivMMnUOgA7bl6dVDSKEue7oqqBEDqesPDQrJ59IWzdxgxkk/qEwq/UxkcHsiuS2fmUg3iZtzD5VmAmHOX4vu3gDXXwwr3t0VcMp2xmAFjOWjm/0gBko/qlVg7hgnnvBrE9TTb97YUlNmGrgJLTjfyHMP6a3svSDWRpXAyGLZRYMpks9M0T9q14fE1tx+g56wUTmhi/hnNXAnDnCDCPmcQkoNpg3fjCxpRMT22DSzBXPjhfM1rNDMcG8xF4wmcsEfRlox3JR9TMJOl4wWzeORAUT+sG07exCpuJ0Lc6eoeMFszHC/OIHE9na3Vunmelhzo4YzFbrYyKDedPXWdc9SXeWQNT0GcgZZhJGmWV6XmQwsR9MbB1dwObPcIVJrPuvQDATeoNuVDChF0x6kAIHDR50fa07zEAs+SBYRDDvPGHah/2ASQDygAkDwoRxwVw1VeYzF5jIPoVbR0DLw2HOJpgHv543l3zlhemIlNcTIAfhNj0cZhEszaSDYD+igpm0JZDcBWZPqwA2ZSYAAleYaSiYTM+LCKZgSfUZaYXlVh/bHQ4zXJrJB8HigXknGiM2BC9iEpj3ejz998EZZvKvhPlH1DNXoosr+mE6xKL6uWsAnTOTkDDfx1ScPpe8pOMEfG84q5MV3gbmPCKY1Ybg5m8PQsHMdCaLXE07GMyv1VRfPDAlwzSblc/+QkM87A5zzlksvw7X87KIYN5J9BiJdDbkwQavi1wNHjY6+wMcrhqkEcFcyXlE0jkjQZ773YFamGzbH+bjYPmgGtGMBuaN7COxmiMCtN/vc1+YOq3HdTlX0cKk9yYG6M+LBWZ1dUmmnJGiw6u2di+9aBpyG9ddsyLMZGgw9BgVzFKGVygJP9eEfEIiZAiHD4H5AAfWNu/pvG00MBVShZKZFNBfRjBUXfDOOYCat3ni07CD9juEm2hg3ikODskwiWGm220CfW6ZAQahHjtLs8LRWi4HTvfRixdjgblSrU52oQVcXlxsrryyFWA4lM9mB8B8gPkw06ST8LHAvFH8IZAslaSdP7fb7WbtIwqZ6pauMKWg5xFmw0yTDk9HApMGsztVJgfitPMVgbn95OM0wSCdvtIthAiWRNJDTPNrTDBLpVhFo1cknLL/oSy3mxJ6XEgySA2sLDMTxdV80BhRCd9HMwWmphE04kHCfOwVg+l1zx6YDYOZiqb4AHeDGtwJzFiK07eazfiZQHbBYG7PYTY71pOk5VLM+rNBrZc4HpjXnTRCulOYn7Lb7WcjTCrdopAsAYEpwiNHx5BzNiKYN6ataNxlcsMkEZAhN8mpdAuC0sQplmBCNOScfYDzWGCuOzlhIbrMrIa5NeSOfJHTDgWG+So6PTRkX2lEMMtOYFOILnNes9zoE83mUlsQEmYmXWnyAMEQp/kAF5HAvNV00QGNyzTAbK8CWwY0zSID4rJ9Es4O2fEdD8yVlUIBtw1M7UXD1WTtsuydG/OGKVoigTmkk/YBZpHAvLFqrnh5ZYVJtZqUfOZdGdY0s5l4pxvJTYaMUscDM7Gvrmzjn02i0ejIIZsxAaQMappP5JNfJZgDlhw8wjQSmNbIRYh/tDDJYchvwaODZGk40ySfJNVNsiHr9+mEZhQwr62nI2jjH6rnIY1h/uIfSIePQga0otOkMAdMbD7GAvPGbk9wY4MJyvquUWaaQfU+DJ8lmOUEs+/VfndJq/+QpwuzqO/Aq54yaAgkTvVRjX+C2f9qD1uEYJaWp1EnlJ23LOnGEhT2nP3ZKEC7ISsrjgbzjeuZ1z2zewubZaJqJrl5vgSNZ+lXJW20WSCyPaTXMobi9I39aEwWW4vPxILHZCO7aUiniep+y3MqUhGYu98TTNsrtv79QflsgQnYisH2WYd1mrTj4fffVacB+VzWvbufYJpf7RGomJlst2sFVdHkmOM4zaph97VikaJmPP/p6wRT/3rXt+9nI1qm0l2SwPcyzLuwTlNYwrerzoGn6n05wTRey2e1JTEzUWEq4U+/nR9mmu0lKzDPZxXO3xNM3WtP/FMsLTCLaied9OCQih6te5fCGhT6q+asEv57gql57fnryzATCSYo1VO297txQEBbqvc/5vQ/LX212Shg9iQTODPDRJL643Zq+3vNCl3VkcJv+GP/KZ0ss/N627eJVEgzt5vqkuFmiFpzygaPgGbV1X+s8w83CzQozdfJMtXXVU+hI+nApH/Jap13N5Zllh4YZtPCApJda66ebpPOwZ8+zL7EMJnLMHmXyI4Flz+6MMuwGpD4CFdZ0b6jdLJM5bVHsgHJswKTbSKhP9RRDKrnPHQEpB94oL/G62SZ8mtpD2ZBKQpAm6oRh0eXSsFktHDWLNsuJ5jya9+FF+VPGSa1iN0mYQWpdxqYwcNZ029W+Jjm0WC+ZT3zSo1XxImRPEcyzC3cEYNYXGzOiWNE1XplXTgLZkehWXqYJo6hOL2SYRKUoMGZny13OdzKMDGEF3ToZIkwb8o7QjhrVPqca9VJDN15cjBbaWfN3abVWiYVZglpsXoD6fDrewPMkef+6okzYpqZx+W2Jw+Tzr8jKUJsR0Z4wUIQgIhBknRkw2eoha486UnGhQny2X7Pzg/s3q0XBcxEjD0LaWSEvJUdmGcwvWJV6pneZepGyoKre+xiALpL/tUZ5unPmlyKbctS7bBaMXKBZZgfCV4mIqzh3uAyx81NapbVDfRCi1D/tpEIBodEB0elnf9dfOIjI9WKkSsoFk22nyHktWq6OPr98WEKLMnXMEfO5yyMYD5T6qajC85YbkG9JoLP1aSQApO/U6x6lzlmoslYUmvkixlL13MWRjAGL2YmzdDIqqqKYWqDm7UEk9jjooWpZ0nbLccyTF6p3l18+/b3PS2Duc6FfY8B5o2Q4aOm045GRXxfzDpVYD7X3lNT/hpdNajP2JQHNfDJ8Zy9jwHmuWBFhTjNBfi+mM8qzCYUMrnMMVWDs7P9fl9CHsT+ndB427U2/XLqMMU0U6xOkrAIsLD1o9hoQGLY+tT9WF37cmyYVC5gLV11wuGYnEQBU0gzxeokLWOxftlPCsx6VuGztpZZVzTHlYBoZfpDHde4Oc0HGq6dOkxhagsJ1clrCAueg0gtQLh2mRTmP2aY6WxcmkVtmveOdbAH+t07dZhCN1chVichPOPeUYH5s/GemREmHlUC4oH3h4aSW9EEXp76FJi4Mw+LTjBpEkq5Oa/Rg9bm+GdkPa8O1hqdzq1ocvo72u9amOTL/kMaGWFh7EaCWdaxLcH6YoE5eq9BO3Z771QGKyO4PeG6DTyB5ATpPLsOZh3/bCzxz6h6Xs7aPEFzH+PXhw9OAtDpX1IjCEBIcoLEZFmL5eZJhAmbVj1L/BN8EkxkeVYun2j1C7US+wSTvQoCUCE7Qci5bWZiatKM933UNuaNDpN3BgLfq+K/wwgudrtpBSAsO8G61LVFAssr2EpBczPM0ZT2eknfMqdYPXqgH2EEVy4Kal4iO8E1fN52H6dglsIcLexpRsKwX9csnJ98NNuqeeTvpByVGpifajGPJJzvrDDBSAkJbHaheu3RIzBP/5pi3MJUnOBKC7MObTdld/zrH1E/AmN5TJKHsLscgXszV6UZvJw8zFaaBcrWkDsdzI+LJqy1BLOh98eIp+wr94C0quPRz17SC4dOHWYrzSLFCd7CeRfm5zYzsQSzI0z1NakwTy1py4jPti5IrwKLB2ahRjRamM9Nl97iDWC2Sy1h1bbrBfP25GG2vXlYlefKhQZmeyWGJZjtnd8dDpOY5s4D5n2lGcQEU5Hn1lIhkzNs08yXN4AJ2nIX+cUx9Alm0yhgNoGiEp6ep12Y/22L1L8sMMcaUBBgEjx+MBfHgvl29cwWZqmGpzfLq63pIWnm5VvAbGOe77Tg6gwzYQ1LJ16cbv7qJNDvZP4WmKUtMxkT5u822VhCn8zk5eRhtuVM0GmcvIZbM0xrZjLeHFgiXinuobTzhu3ThnklwFx08ouNmaY1MxkPpnCvySePIfj/k3c2zWkjWxhG4ztiS8OAil2A62Rri7LZ3vHmbgOUfbdSXIEtHXug/DO8cvFvr7pPf0nqFhJB0kyOFkllQjxVejhf7zl9OvHJPCxgscxOrgsSprZZZmS9wsqkPphbAyApr83+V0zfY4EZ5fFY2yaym9kOTPOcUIXbh/4U0/dY3GynEswvhWVmfTB9YgbN1wrJ7BCTZW7zeGjfCXNSXGbWNgWtJyyZqlMl/xlgssxtvj9p0/OUZjBrBWaSAemgGVSB+YLLMnO2Fg8LNIN5OzDN/SKjKvnPGpNlxvnJyeXQpRqsvKAlmL6Rw/6rQv5D5pgs02Jrk5ETJu21BdM7Yz07m86f47LMPMyeE+YJzaDGY2BV9jgZIbOP3TJvC2D224LZIVVGf9LJLBqh3bPAdLdNTmgGNcJkM13V700QqfovfgpMtsB8S0rjhvn5hGZQp2VuK8h4Ov9p7sX+HSYNLDAXTpifioZma4bpV743gcLMyBTPpIHXs4wyXzvVvOf2YHoVN+2zkDkMcVlmzzLK7IZZLADVuqQ0qmiaLGQOULhZOWrpeyMLTLc0Oz8Fs74NFVVNk4XMK1QwOxaY98Qtzc7bs8yqpklhZhYBTHU8wRtaRpldZeYyaBMmM80/KoXMAAfMZSHMlUtnbxUmX775UCVk9rHAJCJm2mB+c8HstQqTmWavSsh8maKAqQ6sW2CGTpjesFWY3DRfy3tZMkMDs1MLzFovw+CbDR5KD+YFIRqYvgvm3AmTntDZw7pvNtmUvnHxTyNkolkdY4X5mwvm4CTM2hd0lcxomQ2/IIEpzzj7F4V5VztMv+xuUhYy50hgqt15sQ3mD1c78zTMuhchRuWunWaFSdAszPb6meoYWBWYj6c6YPf1X+0G251OJkExC5mNvtiWV5Ty9x6PLgjzpoF7+uCiqzJe9goNTCnOVoF5faqduWjiBk3uaIOHk16WhGhgykVAW4uoQ52W+XeACavXgpNeduibb8EAAB64SURBVIgH5rIIput8wqnedDN328LutULbJKDlIYGp7jXZBuVhXhesmhUwew3A7MBNUsEJLzvDA1OqBjaYntMyT8NsgKXccemk+cCvmgrxwLwRhWZkgek6bPL5NMxRpxGaXeP6IbsuyzsmWGBey0LTMjywdMI8MQI0aQhmZwOXt/7xb6cuyzsmWGCqQtMK8/o8mMumLp2WF729OtMfLrKjgSkKTd8Cc+KEeaIDFjcGE6pN+/kTbpjrKSaYHtQmvsXabkfFlnkXfbfD9JqDKRd9Oya5YGAWDcwl1CY+XZeG+Qlg3hDiuHWR1tzOTDnariOl5XXJ8xQTTFZo8gumaV4IcB0DA8sM+Uvs22F2mntEEpQ9G/bgiboEE8wF1CY+fSl92ARi5i34t5l1auQ8zcDfXC4J+g/Rw8+Nwmyvn8l7jz3eUqoCc8aJjY9HajXN82D6m+hw2J2tBGWSoJgQtRMOSXOav3meznr5hvNNkWXeMJbHo21Xe3iONJugpOTgn/UtiPJhEwQDdDBFbRIPLAMDdphPzDInhLE8flh6m3dnwGQog/PcrEppjbD5wA0zRAfTg4GduPz5BG6ZNOAwj5b1BveVdXaf5aT8iq+fSmlf0xHzZYoO5gRqk+3I4i5Xjq7JLPm7McB8J5Z2Zq9BszRT2mwqiw6mqE1sbRPX4GwCcwFelvnZ5zzMUZNmaaS0PbPGvJrigyn6JhGpAHOdfAUEzGN+VO+2kgD082Zp6HqvWvwZhQhh3oHUbhNnXYOzCcx4LGHS0c/AvIhZGkmQNsz1FCFMUZtIcfa6xBBQ4lmJgpkPmpPyap7PasT9T5ulbm72Uu0SfDApr/FBzwspMaa1vB+OBCiB+XZUQXOd64BVYRn4UeciD4TNVziSEMynKGEueW0CEtCSEOMy6bjvmGi/ulchMwmaL7mmSUk8m8Q19jYXYinD5oOhsOODKdJZJgHdwRjGiVGDFXlZGDBzJ09oSc0AwuWl22E99suPEClMMdMV9znXwHC0EwdM+nJrwHzPygYlBSDGcn9BlvLMAstk51OkMO+hNmGqAWV5zbsyTUdDc0UHk7EBM1uhlhOAWJ3vR52LPmLuoDefYoUpNjsx1YBwg6MyajoamgnM2IB5JFnhqFemJLlg6pOtT1p7ky2fAjPGgEhio2PITweFPbCVN6Bj9jHhazM9zfsSAtBF09ico71q6U223pxW502SQnMhqkd5L5gLZjxgHyREfDxz9OTmtGbAWW4uz1IeJ5qjhTkFqd2nVzKteRd66z1xwBwmZeY7e23A/qWiAMRY9jadOh5hmnhhQm3i04HKUYWfdfXAlgFhkVWa5vsgA9NvjWWSV5nFFUKYQmr3BhMJUyzUd/XAlswkobvPYfYzal7UHkuRAz2jhRnCGFA8XAYZvdXRNkn8MnhZ8LMf6UJzCWVm1ApLcdJvhBbmDKT2bS8OVLVxVdQ2+aJhMj/7kZ6e9QCm52a5q5ElrJURxRVGmLDbMiJ0nGlSOtomDCbVMI9p1YByzcA/RG3YpTTNIVqY4vg0MfpavaK2yacEphDOSF41EGWmVdNrgKUwzRlWmLeiNsk1KR1tk89FMEOAubVpeo2wZDv5CbgWjDAXojbRMMVkj0NpfyTkQ8J8y0pAd3DcwRu1xRJqzQArTHHxkKdhiqB5az/UtyLkXcJk/yR16GhBIHDtraPnQf0shQz0jBSmkNpjgMlnCOiwUGlPw3y/SmkGcETQb40lmGYfK0yQ2recjOATFImzBkxWzbybet4tZD7ENtbRDEuRAmGFCVJ7BN1MHgchA7pxKe2EEiMDSsEEzWCbk4F4z6upI7gUBNo2YLbczwyZ1M5dYwAwxzIDcijtj8sMTFOcjXkaG2crk41XS8/LAVOs5kLYnA6V1B4IyVWOaYXEdeUQccKkPI31MpUJmxFpjKVIgZDCFGNAntTPxzKddSjtnwyYbxmYojLp5YZa982xhBToCidMMQYUGzBhUN05066fcRpmKFYkjLKtjCZZQgrUD1HCnIoxIHL8kL4T0lmHOLtyw7wTlck+cxp21yhLrgIFOGGKvkmkYL6JdNYhzq48J8xFkIPZkPCT97NrnDA9cUThTXW24NSBa+Pa0gnzViz82rdSYKb97ACnmxVHFOhYtyl5S9O1pGtSAJO/S0MAarLATPvZIU6YEzHVLmESkc669joZtUlSznwYMJew8ZTUOuxc1s/ihCmPT2dhOu+dTsE0LZNmYDZdlKT87BolTLHaKQreVfXIpXbX9piV0zLBv8bEKEp2bbBkvXYZNJHBlKudlIA+hgk91/aYFXXCjABmpIqS3qYVlkyfHaKEKQpNn2qYvNB06Xmr2AHzTtysQVpMZMUTq9F2ZDBFoanOxCWIoNB07aiYOGLmApJZD7xtO4msETRniGF2tlo/B5iutQZfUpapW2C3I5FKyoyyQvKzuXzQfMF2Coz/kYrlhRrmB/9au29QMC3TgLnXMCsmP5vu5YNmH2Fzmi9di+RgG6Sz0NF0SUCrlGigx0ZidvSSrfbxqyY/fje4fKU5CjHDpJpRoQSk1VnWydYDXTQh2WU/ZF9x5CcxY//yGRBBCVPeCWYw4gHHtQ1aq7MJzDc9ahlEB/jPe7bJpTyexIxHUQ0Z0BojTHUnmAGzUAL6YsAkRgNMPvtqyU9EayhhxB01aGFGGZiuKSA9bJCCuRBJ0f/IgVRZVLqpY0c/SwAGmGH6OknlMF2qgU5nTZhgmPsZh1olYHbruAqOa0AhZphUwaSDosERJei96VNgdxRQcgutohYk/qAGnYilswFOmGI2Uul0R9ovUg1UBnQ8HuVey4RlAIntpJpaQF2fjjbZ55x0Fi3MrYbJZWqnajDRMIWenby7v5S7rbCmPalKLJ/2Ad3uYDzB4XBOOosPpghaUQamSzVQGZCSZhdqlQCrWivAjLI1DOcYdQ4HY26MBAnJQ7dyOnuFE6Yx2Q/ibNHZIaUBaZ1dutj5/AsJPFIptO1TXrXTPSjx4sCN0RdONorOSWexwdTLezwFcwTngK4LMyCl5k0Uy8TJXk3Kb4OOeObr+zwedpU5cpcqCEbR2elsH6UCZGYNBsyFq9BcLRXMNa9hnpWkR4YVLreFnb+M486TxqgoXkadRQbzRse4SMHsgZmtHos0IHaWkxumWga0ZD3hRcnCMRJXknBbjOhhxz2qfyEFIYbaBNcpsJBqQ/LTMJ2F5uM1lJlvb2TzOL1WG0dueB5U6gopZnxdFRt3O87x0uostuY0Kyr0S/QyMB1D7dMpJals83f4YRTuejt1uZvP81XxIw5dwvPXOtTZGS6YjKV2ihsRNN8ETGqrTabTpy7JPX/xnxWIn7k/YZLyu9CbybNjtaiza1wwGT1fvWUpG4gEaL7Mz0FPr78aVqlKekZTFZvuDIilrcokiVhaSGu5P56lsy+oYDK3CmqaYS5s1ACEnVxtspoqlLvH2Tz1hEReqLmwB03mXQXJYMevTxDsg6gOmB6fnf21YLJnNnXe0ife+yblOQMqYGZqk+mTQBl8m+eeWF9Aaguavvq6HDjWjRptvSF1wOz8MjCT366fuCaW1N873zAi88Ocpa8LvhTPb/w1r1JmKbxw8FseJXOya11t7nORsnMQJKGGZIazNg9c1zE72/8lYOZSlGC3yn2YV/78XM/GI5bn98TEjHR2dU11rpN7Emv8of4wyVSamw0YZbDzZe8jIvqWY6+WoLnl20r/+TC/2tiQ3Tr1YT4ZwAOmL9slB3/zffP0XZpR8Ex032T12UhA88+S9FJWGqX8K/z/fd3FYq5Az2jWEjQjPtX+z4c5Y7oEyBOP0SHtO+WHQ8VSCD+7dYrO3ZZv4p2KqLn6WmCW/IIU858T7TkFymBnFpPs66MHbusJmv4vAjOTAE2fDkZ5D3/PnexeN6WDdZ7Q/9k7m+a0cT6Al2VWuVrJYPdY8HR7BXuAr7GEaXO1n0zhGi1T0mtP5WM/luQXyf5LlmxoCBanVWmzwT/+7y/6nGEIHj+LLJ9hlpn5PdScoURESS1lU2pq42MXiE1uMTQJ4+gbqaST/tGqYkk/tQ8zWmbG9H8ZzUdewYSI53rVr3tDSECJahmenXQhYDHY6WCaHqneLNIu25iuzCvHB/aymNT0J8lo5vYyCFV/i9TvXqR5JcTdngZK5slKu92n3oVik/B2kwbRU+Gnfh4J4wOpWnvS11NGk0g3+AGCeWj4Q5hddgqg5P6W9L24jAfEPtctZ4AqP7fshszUkR/rXqtjqmcZN68rzrR4wKLYZgqdzqHU4K/whWCOb3oKrMRZdbYmuHYHFBRDalmuAygfxFgmH0CWdfgXSRtQj/nmi9NP/Dnvqs+sZ0mbJ3Us46cQijsxeOUXV75hQ7QvE2g+3H6nQcTEprhhJMUTUBy/0vfR96/M8VX7PrAXzH3n5iUmnGVDE2y8S+jZQcDkibzsUSfctTw0afxbqz5vrVh+ov+CADQ5y+aX5zIeEG3pun2YmC8AZiYNNcIKFo/Ir4MVy5Rp5VX1hSkTe3uF9e2fAyr6MeUU0ABgrrKw5K6giZom86msO5c0n+1U7I9S/oMy90OrmdINl5KL1ScHxNpQ7u5eXl74f1Zu+iS6eZj0YsQdU3j0Fu/G030S65X/EEuaq/IvR0XBhrcx5zUwDGrsPu6sVFcPXtFuUDBHXvb1RbyG+bKvq70vcjY9IhoGUIqhNLDCVpKAEKKV8e7uLNrVy32vKBkQTHy8eymfAqn5I/O6UVvlQCzMZdHcDrwUEt7Znc01jOyuHXd5Ps+/eZi0kOkJvSL3tawqfmiGjM0/BcMZMemaAiiVXnFXd3Z3B5dud9xPv32YU1yUG3dJg9K06bvmoonNXZ9cwhsvL1Rnd5MzssyLCKMBqFmqlxIh7nuoCWZDBg3jk6WUDiBQH4rGbeoCE6lY8vLeAGBGWJigpG7Qg1yIrOvdwittSccLbmz5g+TXvTb92yE2QXusfiGqZm8eJn3MvlhbFGEuAIVactGynMsWERBMbTq/S2ySaFjSSkIG89aTBguMxScnw+TOzqRZAMFAerzuBIexTjD134UOzQZlf2hwfGT/69nnb0LDk5ekfzoD9IfrmXEUChMJTZhps22r8mS2Wpa+3HrQeE20MO3bLcudqpktj6LyA/5T2tFjmn202x5PCLG8dACSzIxMKOX2WrNARG7bg1xZfWiz8TorWT+SG9ii3JR6tw9z9vJNalEeSSKzqNzBTHVFXyV3cavpG/kP1swYG6Z3F7ZZAyqYLx/Y73eI5M/L+tBYPuRw6zAzsfGl5go/1ts63G4z0+dGkGJnMu2zBntMO3FZHSYIG92I+0ID3/oU2FQKA1I5UaeDqUYRNlsTGt6lHubaFibhOTsWnkyi+ufNrcPzrcMMUylAr3WNbNQsJ8ZVMOhf+2eGWbQX8Zu/mq2lG24Ybh2mPD1Zg6nRs8YVavBn3MctYWrX8vQu33lY/7wpvtkm6Oq4xF6tuWLbElSY5mbLMANbO7Nduy1poTTfrNb4vKMBwFzLQ+qoJnJK0RwbtxrYy/U2+0ddSpnJXZ4l8IHPG5Hg5mEu5MwZqgsN6Wsxp/Ywv2cwkTXKD9U81BH6vMubhxlu5MeGgOo0VL2Ke7k/LWHmlzjCnavSr+ixHGGUP2908zBJzTqN6lHDxj6wMNDT2raTxdaybFI2i7CJ8OgtFrVchZqtrwIZ1V2bCGAZmsPcdIF5sLOZvP8We49vS+/NYa4qmLzVdN/wbdY9dKwy7aD9OszvrWByFZuPeg8Z5jrv/+ErekmASTNs2FjF+0ZaVg9zGaxsLkLZi9trrgjmH69nLrC3E3fXgbRINz9WlWNvjVIjPMd2LP23Wed6ZcXpDfbFpmH4Sc+7yiVkcE1SDvjVOGnAWP6IHczsKHIkxeK7sTpWtLKXYg3NDqbxYnc23/kjdjCLjTE0OHspl5/voFzbyMgLNUzltcMkxjfVJOUVxAOHmRfhA77zLKnSBoEyJ3eIz6Nlcdt3wDdPq3uxgxnmI/DH+q7eFJK/tW2yQK9l9d5svDF0ZlmnbOhglgNdR2heXBH8P8Rn0rItMKeG/o+43GLAMHMN+wTARLDLSmzKXrqCiYHtNYS5I0KkNFyYfBiarWs+Qr1RMJnJ2bRsC8yFUZjJrmsLw6HD3OczWDMIJjWaBzCZcziblm2FiQwjzHE0cJh8+QfbgTiHYCaK1EC6PZuWbeu0xIZK1o9mw4b5Kd+YR48gTESsraOtlm2BucZmSpb2hwwaJus6/CtPDK8gmLQMdjgDTKKBOW6BiYw82f+iIcMMWebbC4t3lxgKz/e2KVhrLdvyZTGASdVHEM8GDDNk+yX+qt6dgTCT1kCwr5btDZN7P7OrhnnhOlvErg8WGr6XGHvwt/7holpWDzNsh7krVxxfTwHzDxen6cWDodQig8GUdmqfubPTsnqY41aYzPt5HjTMEQ1IpHcVxabEbguXkZYl5k3QD61xZlJVyQcKk+1Clt/NdCEEExH7dI+VltXDvG+LM3lYMmSYX2jOp/YuFdYEXpvc0wVa4e4wJ20wBcEcJsw1K/zVYW4wqNES3NcFWnSHGXktMNn6gu2AYS55c0X93QWYNeB6rBdM3B3mMljoqyZ8CHPAMPew77fGcFF/j/tlgeY9YK5wqm0BQmwV+GzAMEP43SUcm+QJlu6vTQ+Yc30/VzEdPWSbCR9Donhw/UQzwj1grrG2nysXTAcTmgKjHhACnQxwS3M/9ycwSBossK6fiwnmfeRggsO21AMCJGEPy8983D/IbIeJWgRzO3MwgSNL6KHiVrfGQwPcVIP4c437wJxCN6CUv1YK7hNxMOkxpGkDRAIEqjOggX1j0NQ+6gVz42ss5o6VtmcOJnikejYLK5uKlsWa94ASbE30zXEvmCPNrjUmmF70LmC+RRWOb3wUFW1Stf43WwJIu5ebwk6PaaeBbt0+qn6nqytgvklDV+1I/Y19cXk4fd0hcRvvFqhsjU3TskGXthHNslkmmEHsYCqPVDTZHTWFH+uL665qNKftnZIjTUjSE+ZOUNEOJnTMrCZLXRf3LqIyM8oX8j7XBPN+pN1qYGAxtdXSpQbmXhh4cTDBI6HLWHGZd0HlHub86pq/Zal7XmlTfcQE5lanpZHWYj44mLpjJm6v5SUDtJpZZfj4Ho/gMffRRjxc2Wimbhe4J0x10yw34qGDqT1SzRhsSpr7StHlW1kyg/r967e7UkOq5+GXuC9Mdf2LCWYZLDmYiiO9qIvpR+bSIiH5jnYE2Ee5VtIcmcEMu8Dk3rWTzJZj+Cl7vsvCpc282KPqHh+/CiUhmlPcG+ZGVf9iX6s/ezfJu4Q5C5ejx3BduLR7qS4m3pb2Q6xxNe9/mhuy1HUxEBVMLpgzB7P9SCfjqdn0dmzr7FFyPIJ/6aKg179DGVt1saZRF5cQburCTE9jMSeRg2l4ZGYzo5npWUk8EqzqJZAu2lthfAbJVBUz93mK3cE0PC7zO+32NdGE0rG5q1NJpwVLrMsZ+GqL6UcOZmx1NRgNUOQ2HDQCdqpH5X1N6DH7OZ/vLFgGujDzqBbM8czBtDhu+DoZIotmCj39JcE2L2IGUzGawCwmq329G5hvX4Xj8karE0WqlosFFOVHBjQDEKumwD3F6uTP+KoLmFdQnK4dQ2b5AlpGEQr+CGoHitVLK3UVsJ+nX7pZ3hSrWj9zeXYwzY8hu7bdI9LtfYgoHv8nbPkKTqcM5sQ2zNxXtS8H0+JYBB1S92qq8j+jvTXLE9HdUQP2zO4qwXQwrY550DEVRXOvLidHT63+jswyg/mgiUw8vWA6mHZH7tiEYniy0zx/g87K4nVqhbmGwkxmMXHsYHY4hizoOEyFLi800k2ebAxZfmyHuYDCzL14fZiDaXmkmaAHmkzfVUZTU+iIzIJMrmRPJ11/H7SdlFfhQgez45FOh9GmgdIbSXR61rC94GcJc6xpOkkUghk5mF2PmaZlDQWoNFva3mdjT5bDVDcaAENp3GJuZw5m52NEttSzKfNAI+0k9dpCME+a2vSyGZnw5I8fOZh9jiGd3qQ1lLbgxLAnr2D5W1M0WTcjEy6YzzMHs+dxXilapDWaBlbzYwHzlwYm4Mzy5biRg9l7RqxKuOuDEwOreapgeprMLAJd2cPMwex9XFYJ97Tlaj1T90ebZ8cYFEwcvUOY11ejm5aKVh+c6EXz569Ky+pSs1HDmeUW8+E9FDCvrzjdOJJC0SKiH7Od6oTyV6VlT1j9rVjXnVnuynLv18HsfVyXQyhpy0WJOgVLAhHmQa2rfUgwJ7GDeZ5jWowttOnZVOP5kI8izGf1jzhCgvnsYJ5vrIibzTY9u9bkCqqMAY1MQlP/hwumHzuY5zqWje4t/iycOOAiKZhMTZi5rO3YRKk4metgnuM4yhvd2/TsQhle/g5EmIFatmVndifd2elgnuO4ylujEdHnDSJlQva3ZDInaofYBwTz4GCec0bsS94anbYs+05VqYJfP40iEyL7Pzu5x9bBPMuRdwWhJNF1YoEuUA7x98kkMolk/4fvx8CH0ME863HJxxAQab0sWpXDE/2frfq7kNTWUdMUu4N55mtw+QRfFvbZhZofQZhqB8pLmoI5czDPfGSjm1mA0rJReK2qlJyEzGygNpk+IJgO5vlvG2dy4o1atnO1CqbOmZWGlXi+gNa+HMyzH3kz7SvWZ4FGcKPIycSZlUxmnsijRen3CvOaa3Qrk9sSF21a9pc6MzsVUwa5YI7fUQHz6ovT4jE3iFrRXLVpWY3/I5rMXDD92MG8zLFoXD+YGs2PoP/jqaPMY8374UGMg3mJYx55aB3ajV7LakzmQkgZ5GHJJHYwL3bMR6UfzIITIGNA2ywPyq+BsLJPXP3kYF6mWS9fY7A1SrZbmkzhAoyd9KVxMC80JL9s9YFIR5MpXExfhCWxg3nRI195oBtj/397Z8zbNgxEYbtBndW0EStjTaKdZQqK/kYNoc2awGi6RjaSzP3ntSSSImWJklvEEpnn7QFZgg93vHsn8jb/f2SKwDwA5jvL0qUl+1aYYUeXedUa0YHxmjhZccB8b8m+dFgHtvqn/ciMqyNTtiUUMN9ditjbdU1OzjNmq0WewvtZcMC8hCznYazj0Lw9qzHJpDGrqh8KmBeRoc07iP9lllnt8RRJdkcB80IytJW0WevIpEeWld4PB8yLydBS0q7bitk/1iw705Mso+7DdGZkV9a0V7bmpMkxsGTZsjERLebOxQGmQ8PpmiyHXamlOTnTMVidGOyAeTHJeOuO8W0zTMt3eSLL1nw8wLyc5G3LTZJmz6B1sY3a/24kWcC8qAz1IihOzTwbnGHlbcssayZZwLys3GpFUHwwTaDgNDDnFgdwppIsYQwwB5BcWzLOl2aeDfoHZlJmWWEX7DlgDiPvK19vZYZa0D8wp4VjIA7MPaeAOZC8V5CI6RsEJz1mavH/Hiaza/E9HgXMweS9rFgyDdZdvTU5JtnWC2Tr3JedPVTWD2AOJh+FSTddmpmzNi4JImv5I7sSDphDykhk0O2NWdPcGiwb5p+pcn+CB9GV7DkFzEFlXF7s2gQ1T8dgeeqwJ6n6y1fRlcwjCpjDyvwjr0UejKzmtlco1d5NPRNXbcyTODBTCphDy/wjr92x6DmcGLRBYO5Q1WvYhTpdVw/agekPTFcneOs80dbqVe0W9acmC++gIvhJHphuDzCdHU7X5fRIsv6wjFxe89zYYJIqMOWNLwqYo5DHxj/d1m0B/nMymf1omWDOVWBWHSZgjkMmZLVpnT03TTCXspSdZ6r4AcyRyEfyi9z0ZhmWUZyopWE7DpjjkXG+1683TLEqV5VIZSELmCORxnCz6xeXGVndzL3iFDDHJDkhHa+xaeVPkWXVAwifOAXMUUm2Ib3zbGm7Z2ZcAuaIJLNdJ6p9WrDUkuwuAszxwVz3zbNZnmUTxRIwRyh5zzyb5B8niPtFQRoB5hhl/lrioQfM6THLSpYsAsxxypD08Q2OfxWJZ0tWPtHzDGa+opH1CMyFYPkS+QzT7Qle8QnIsvvEJK9lit1Frv+/Hg6nK3nXowSS3eWcRYA5akk6SyDZkXz2jp53MNcd7yRKbz1II8Acuwy7QnNrVD6AOWqZ2UOz8Nbn6osEwBy13NifMM2KsOQMMF2QsfUJ03Vxl9ZTev7BLL6wtFx3J4RRwHRFJu3PuBdRe+CA6YxkWWuizcSiEsB0RiZtzyRO5Zt4gOmMLP26oJnlDQdMp2SorFf9vMyqN/EA0x3JHnXHrvx9Jx7e8+qA6cdAT744+yr/w29iUvLi1z0vv4fTUqpNNcHzZDJ5k8q3e14fA2bDJnEf73l9EJjaqhqDJWC6KONTlikFTEflXS0254wDpqtSfkxJ5AsV/tPzFyZn/LeWYiMKmE7L6Ov1W/7LH6jggOm41Aw9wKSQgAkJmJCACQmY/sP0eb730SRgAiYkYEICJiRgAiYkYEICJiRgQgImYEICJiRgQgImZC7/AnuDruKmarFOAAAAAElFTkSuQmCC;clipPath=inset(2.55% 18% 2.55% 19.33%);imageBorder=default;" vertex="1" parent="1">
          <mxGeometry x="480" y="280" width="80" height="79.15" as="geometry" />
        </mxCell>
        <mxCell id="mNUbwTobc1eYGkok-ZhT-28" value="" style="shape=image;aspect=fixed;image=data:image/jpeg,/9j/4AAQSkZJRgABAQEAYABgAAD/2wBDAAYEBQYFBAYGBQYHBwYIChAKCgkJChQODwwQFxQYGBcUFhYaHSUfGhsjHBYWICwgIyYnKSopGR8tMC0oMCUoKSj/2wBDAQcHBwoIChMKChMoGhYaKCgoKCgoKCgoKCgoKCgoKCgoKCgoKCgoKCgoKCgoKCgoKCgoKCgoKCgoKCgoKCgoKCj/wgARCAHuAtgDASIAAhEBAxEB/8QAHAAAAwADAQEBAAAAAAAAAAAAAAQFAwYHAgEI/8QAGgEBAAMBAQEAAAAAAAAAAAAAAAIDBAUBBv/aAAwDAQACEAMQAAAB6pjX8ktnJ6KaZjJtHHkKMpnCT7SWYfhUVxHYpTIxBqYDHZmZwk0teNgo8dTOspc8pnSmIVAn4nvhVxr+SWzk9FNMxk2jjyFGUzhJ9pLMPwqK4jsUpkYg1MBjszM4SaWIyUZ2UWSoeB1hD0T9AlS65LbNZ98boppetftjG3+Jr3Ww94oaHvkoUZTOEn2ksw/CoriOxSmRiDUwGOzMzhJpYjJRnZRZKh4HWEPZOxPfCqJhKyOBRXX+E9zIFGd9+E+riCjGZ+E+6kFHXqPwTuzvoxr7PE/F3Wdm2LnbNXrUjn605OxHjQK+0zd2boF384b908W4ZGvUvKK6/wAJ7mQKM778J9XEFGMz8J91IKOvUfgndnfRiNQDHVnfT5PoBky67PL/ADqtzePuXoHn3weqRbEWfljZw6Ig3g4X3vlNvXzN8q4j2NGMz8J91IKOvUfgndnfRiNQDHVnfT5PoBlcnfRZegDuSd9JxQCjjnfRFl3wPpreyfRy4ijKMpNtY8BThMZyXsSaxR12lyInbKpZ4/Q9mroVz3c1X3d5tPnTM9Xu2GPJh0edO3P7fXrHZeMp93l9dZ957YPpreyfRy4ijKMpNtY8BThMZyXsSaxRgvMCVlDCMyaE0o6FpuwGXar3DvCPQVqHE6YHzFo1ve9H6L3coB5cACPKOy8gvyfoiVHu3Y5trHgKcJjOS9iTWKMF5gSsoYRmTQzGKjOxglSyGRiZ5F8VT0OEoEstXwNrzsgk67gH5y7BOrZFCnGHCVexoFfXWXTRua+nKrLus2uh0aoGxgvAPJEC+ex5Ftm2c2jRtYk7xdhrWy/bI6b27juHvcvqruf5dW/OXYJ1bIoU4w4Sr2NAr66zRJV1REoxkdCj7sPO6vSSNtNBKXnPJkPonP1gHF6BKq6zpr2bY8eTrQAIzAA5/wBA1idK3TeT9R1c6nGHCVexoFfXWaJKuqIlGK66JVUFRidRZMbkzCC1XKZMkjyLFoGMcb2Ls1cA2nOZEaLqRRlL0CVayTCvCKxEibv+eiH0CT1OnV9Ao2gAAAAHj2HLdsr6BTTtYHJ1Gr7R9thrPYeNOd/ldHotqWwoyl6BKtZJhXhFYibFN5943/mak/Lf82bU7j3qcvnvuPu96E/7rlptSorVYt78/HvuZU8zg474Yv8AcmbD7l647r2D33cZ2uZ3kTrvAuuacFS0riK8IrETYscYswWKxKsqTSjJeoCVGcmMJVWTGxIwhit+zIQgx5LuMyLxWRdyqmOTp1En1XJRVjLWiNdyQiTxTYqkZ7o2GXpgHnoAAAAAAGi71hlDVHtL3XlS+AZrTUtt+3Qk9Q4rsHe5W9VI+tWw6VG5rgrnuGvr18GrX7ns52vxk+FUzx78+p8/Y/l1elodDL6uY+eo+bYaTTrSfPaS2tT9VXcvvPt1nocAhYAB9+ffXHu+cB7tr5NKSta98jXckIu6982IhXccEtRmLJKqpySjPoURNyUkMr2WDHkhYj6bCGPxEyH3NXXMi0p0Xcozh2ejWJ1JuMVYH3XjkHbeZ9Yo2AFOsAAAAAAAAADntHYudQo3EDjawANQ28ur5xtsyruzVvQcvaAAAAAAAAAAAAACbhLzSoXUpvSyG6cSrbq+sCzNWsD745H3DhvetnKnUm43vlWRgukezk10tyfl4kU8cUqz2KpOdSnDy1FwUzyljP5sZTGQQZ9V8ZjxSmQy1EzItOoi7T8odSStE7l3avz0bTucO5l6YBCwAAAAAAAAAA5Z1PTp0u/Y9jiaACuQAGu7EWQg3kVrY1wM1oAAAAAAAAAAAAAAHnTN1L6ub9b0GH2sXafK6UNfN+88X7Hr5bqSVonPNwirOW2IkP5IJVTLJLcxySiuxREM6SQ7josCnuViGSyCfmZkGPVNcx45zgZKM4y4UKotmfjDv5t73+fDuDvz7j6wB56AAAAAAAAAAJuHvnK9x0zdMEPgGHQAAAHz6GLKAAAAAAAAAAAAAAAAABq+0FsNH2vWIfe528dS0LfrqMeZ+MOro3icy5rxTwL3SZnyRijiKpOy4p4/4ZcEPaS478o5BMlBQKOMT+TmRgopmP5OogUZRl+TrRH4J+guE+e9n+Bj6wAAAAAAAAAAAABy3cNW2TNTkA5moAAAAAAAAAAAAAAAAAAAAAAAADzznpCOui+zzLpPe5ezfIuxkSlCojvydsRO+uQSiL2Sd9ySSiFEnfcSRRGWCd9SxFEohK+o5Sj4fXEvc90ZxUZxjyzawYKcYQ412HjnkuzAY+qAAAAAHz6AAAAAABzm/r+xZqvQHM0gAAAAAAAAB4APQAAAAAAAAAAAAAB9NTvytM73L7HtX5z6Nros7lofRhdarro8xOuiGF2KUMy1UnY8k4pZBwmecaxU9MZCUJBa8N4yVkSZKOB9MSYnURlSnKMbkq0Lfnz9I/mvz3tx9+Y+sAAAABIr63dlXnAjYAAAAByvc9D3rJSAc7UAAAAABFnGxI0x3o5LbUzNGWzfdeuYtGUCqYAAAAAAAAAAAEmvJurReqw7YfNV3HWtufpOz8a6/wBHHkoxdiFEasEddnWRBV2SUWVqJMw5EirlGCR5x4i0MBC94MhZwNrkplJwopUZwnQl1RiZXjGPhXcePnVfcexj6oB5IAAAT1XduYW5+nijdd4B56ABMp8/nXJ3OPY5MgDNcAAAAL++RtZydA6mJV0OZtAI+gHgA9AAAAAAAAAAAAefQGnbXzLo5LG76bu3nvO/0JwvrfTxbDGu69dXnrRropNqxh2hOqk5NyeVGV3CRhyLlr2ZCEYw2HGeCIzjzFdNhYlUU3CjKozxG1KpDfGOx86Je6cv6hm6ABXeAAAEiue+cn6npKNmXpJrl+vTkPs9765dl22FDIHF2AAAAAGrbTqeum5Q+/M1p9UgWQ2Q0eVsz9SOV34y3UWZwaQDz0AAAAAAAAAA+fdbtgh1ZfcfouRzSN13hua/DvnP+j2QtbFCs31EG3JMlmRTF5NWeOUZzpOSeWKrCmcjYs/kumMIOTL6K65iJTuPKVJzKxOrJND8aikJMjx+cu4cf6ZTqpgUbQAAAAPnM+m+ZV8/XZSpq+49r947sOYMl4B4AAAAAIdxO+Dc+j9rkk7LkXV7WlB+Thh1fcYHSyIbbn126vohzzfeJ0cwGa4AAAAAAAA86963Ls8/ewOhk+cM7Zw7PbL7hwD9H2wd121OnHFekPhFqpmSrLcFp1FcdcQzk5Z3GVMqnsijIWca/kls5PRTTMZNo48hRlM4SfaSzD8Kiuc7T6NxCM+yAZOoAAAAAABOonvnLNw1/YsdfkDnaQAAAAAAAAAAPh9+xtb1U29L2vD0cndsLPvdl4Xrv6S5BH2ll550Lg9T6BmuAADyegAANF7xxfuv0vG+gWRgci6Bz7Padg0TomipHYpTIxBqYDHZmZwk0sRkozsoslQ8DrCHsnYnvhVEwlZHAorr/Ce5kCjO+/CfVxBRjM/CfdSCjxLrs41XYuSdbzdAArvAAAAAADnexa5smSvyBztAAAAAAAYJloshqq+5fdFei4egfJR1bY8xntNZ2aT751R7VNr+i5J59BybWu+8urnn+a9sPz3VAK5kupBvrvAUWCD+u3V7B07Wtl+j5AGI5bqFVbPd0zakjRTR16j8E7s76MRqAY6s76fJ9AMrk76LL0AdyTvpOKAUcc76Isu+B9Nb2T6OXEUZRlJtrHgKcJjOS9iTWOb0Nx43Czq5495emAAAAAAGgW0smapoDmaQAAAAAAAAAAAAA8+vvvmLqHFu0fS8f6BOJ8+hy2d2Hk+e14kV+D1DW9i1zRXsoGS407cdS25u55jD3Obl1DW1oSg7fz/sMJbXCYz3Vy9iTWKMF5gSsoYRmTQzGKjOxglSyGRiZ5F8VT0OEoEstXwNrzsgk67gH5y7BOrZFCnGHCVexoFfXWaJKmbKicv3/RrVGzYD59p1gAAAAQYW4aJVVsYHI0gAAB98q++Nk9eyNgheZeXyS5CTQfa5fAA+z07YYOr6Nl6mLpYHQyAAahU/PB4va/1fHo1bacvzkbwCmw1faIfQy9o49178zdnnKdD1DoPP16X23lPYt+WVexoe+V9dZokq6oiUYrrolVQVGJ1FkxuTMILVcpkySPIsWgYxxvYuzVwDac5kRoupFGUvQJVrJMK8IrETYscYswWKxH5X2WKS6HLujZug2BXeAAAHMenc39p2U8+uHqAPAAAAAHrH6BJK0Ww1v7sZZHX8tvx4x41cEvIOSvA6OTvj3Fu0bsv0A45zna9WKHTI1rhdPyfTHo+B49ZJf3L0se7fnrtOHo4tfrxcHM3Y+z8rg78vfoSuwaaYmxY4xZg4axgsqTSjJeoCVGcmMJVWTGxIwhit+zIQgx5LuMyLxWRdyqmOTp1En1XJRVjLWiNdyQi7r3zYiFdxwS1GYsms6R1CX57LcU+Z97gFd4AGv7Aex51sWmbjz4+gMWgAAAAAAAAAAAAA+oukvOf7Zi1ru8zp0TYZd1PPcXYtihLiP3tvyufHXuqam8k0tIvTj0P1pi/vnQPnGur1Te5l0TQ5eQXNK2zPp1zcEbmzNGn9a2K6vgz/AGaCaNT2+yafs/iSUZ9CiJuSkhleywY8kLEfTYQx+ImQ+5q65kWlOi7lGcOz0axOpNxirIwXSPZya6W5Py8SKeOKVZ7FUnLMziYhu7kLdEptT4XZipBhbO0jdtSQ2Y17YuHs+AVyAAAATSthZNbxWQ2k1k9bN91f742c1fz62r5q30txIdrp4u0Gi10KMLZ2fGvbCqz57H4B2fi2mvtO7fl/1bH9G6Dy4MnY+U/oOmWFjHr9E+ebJpW503+Z7DE475Zya70MtuT8vEinjilWexVJzqU4eWouCmeUsZ/NjKYyCDPqvjMeKUyGWomZFp1EXaflDqSVonPNwirOW2IkP5IJVTLJLcxySiuxREM6SQ7josChNxGTXt/xn5l2HrurVzm0NJS52vfVR/BqjJ7KTjCbpEfcOf4VTAPPQADHrd1ew6Ul0rqYeY/obTtB0UdtktU6Z6T43kNdv+zz01baR7xTVP0undX+cHdk6tZFO+GW77olHn/vmVu385nQ0LZdc7N3OZr1VtKyFihz/wCG+J/LRLcxySiuxREM6SQ7josCnuViGSyCfmZkGPVNcx45zgZKM4y4UKotmfjDq6V0nMua8U8C90mZ8kYo4iqTsuKeP+GXBD2kuO/KOQT8zMgx6prmHVLDhwul2rlFU6/3QN84nS9gZrgA8IUPM4wJm2u9PFru57V8vo86ztHjx7i2iMuH7T0fUrq9oy8gpx96YSa9c/gHnoAAAQ53K762t5WZ5HRNZq6poq3ffUL/AGOfOZc14pzfd05m9u2uFrHzvZTY8uGeUPDLgh7SXHflHIJkoKBRxifycyMFFMx/J1ECjKMvydaFijCHfk7Yid9cglEXsk77kklEKJO+4kiiMsE76liKJRxifycyMFFMx/J1E1Xl36L4zCVs1nZvnusAVTAD7rmxQNlHXvmrbTvwgEZAAABgznvmst2z3wAjIAF9T2pqcNR5s9d8m8kaJh1ee2R957fNXKML078nbETvrkEoi9kna/ssk0Pen9NN2+wXCiMsE76liKJRCV9RylHw+uJe57oziozjHlm1gwU4xkzy7wutV10eYnXRDC7FKGZaqTseScUsg4TPONYqemMhK+o5Sj4fXEvc90Zw0pxj9z6xxDaOgcew6doPvzidIAAA0/sOk651+f2Yw5p1gHnoAAAAAAAAc3z6VbCwtP6R5PmfV362vP8AcFON6yZ5d4XWq66PMTrohhdilDMtVJ2PJOPlHM4TPONYqemMhKEgteG8ZKyJMlHA+mJMTqIypTlGNyVaBCvCMlGLsQojVgjrs6yIKuySiytRJmHIkVcowSPOPEWvDeMlZEmSjgfTEmJ1EzL05XjHJdteuWze2a/nt0pr7Lw6qRrrmS+th8M1T1vqena50sXY/ui7xdT9PXzz34Y8I38mp++Xzn2nz87DzKPvV0Oab71HBbGRSnURlSnKMbkq0CFeEZKMXYhRGrBHXZ1kQVdklFlaiTMORIq5RgkeceItDAQveDIWcDa5KZScKKVGcJ0JdUYmV4xjrRboRruvGetGuik2rGHaE6qTk3J5UZXcJGHIuWvZkIXvBkLOBtclMpOFFKjOE6EuqMTK8Yx1ot0I13Xj0q5d8cr1Tu8Y4pQ7RTrnwxXts85Kv3Z2cfz3n7Iuczy9kye+cl3TLkLOBtf1KZScKKVGcJ0JdUYmV4xjrRboRruvGetGuik2rGHaE6qTk3J5UZXcJGHIuWvZkIRjDYcZ4IjOPMV02FiVRTcKMqjPEbUqkNwrMgwbFCshBtyTJZkUxeTVnjlGc6TknliqwpnI2LP5LuM8ERnHmK6bCxKopuFGVRniNqVSG4VmQYNihWQg25JksyKYvJqzxyjOdJ06kt4qMqZ/UbFn8l3GeCIzjzFdNhYlUU3CjKozxG1KpDcKzIMGxQrIQbckyWZFMXk1Z45RnOk5J5YqsKZyNiz+S6Ywg5MvorrmIlO48pUnMrE6sk0PxqKQldlvDeu2pxivSHwi1UzJVluC06iuOuIZycs7jKmVT2RcmX0V1zESnceUqTmVidWSaH41FISuy3hvXbU4xXpD4RaqZkqy3BadRXHXEM5OWdxlTKp7IuTL6K65iJTuPKVJzKxOrJND8aikJXZbw3rtqcYr0h8ItVMyVZbgtOorjriGcnLO4yplU9kUZCzjX8ktnJ6KaZ4JlHHlKEpnCT7SWYfhUVxHYpTIxBqYDHZmZwk08Jkoz8gslQ8DrCHsnYnvhVxr+SWzk9FNM8EyjjylCUzhJ9pLMPwqK4jsUpkYg1MBjszM4SaeEyUZ+QWSoeB1hD2TsT3wq41/JLZyeimmeCZRx5ShKZwk+0lmH4VFcR2KUyMQamAx2ZmcJNPCZKM/ILJUPA6wh7J2J74VRMP/xAAwEAABAwMEAQMDBAICAwAAAAACAAMEAQUzEBITFAYRIiMgMDIVITRAJDE1UBYlQf/aAAgBAQABBQJOY1HzKVjUTSVkUfCnMmjmNR8ylY1E0lfmo+FOZNHMaj5lKxqJpKyKPhTmTRzGo+ZSsaiaSsij4U5+dzvtATLD891q1xwVIseik21h0X2yYdst7I9ImkrIo+FOZNHMaj5lKxqJpKyKPhTmTTsCqvCVOuSFurVewKIuanXJD8C7Aoh5l1yQuUap2BVWalXrkuwKq8JU65IW6tV7Aoi56TpkaEnPJnBX/k05f+TOFVryCKShT4zzXYFVZIq9cl2BVXhKnXJC3VqvYFEXNTrkh+BdgUQ8y65IXKNU7AqrNSr1yXYFVeEqdckLdWq9gURc1OuSH4F2BRDzLrkhco1TnFX271lOW+389AEQFTpwRkLE+4V/QJalxnIj3js/tgPwLsCiHmXXJC5RqnYFVZqVeuS7AqrwlTrkhbq1XsCiLmp1yQ/AuwKIeZdckLlGqdgVVmpV65LsDo3kUjEouRS9IuNSMybx6N5FIxPOgy1cb844mIr8mrVoGibgxgRxmCTtpaJPQJMesK+vsq23GNNb0byKRiUXIpekXGpGZN49G8ikYlFyKXpFxvOgyD37ueQXSnpb4dZJ0pSlFcpRMDbbW2wOl4hdyMw6cd9uUMyIouNSMybx6N5FIxKLkUvSLjUjMm8enWXDsXZXJyrrLbwLsr+Qust3AuyuPlXWXNsXZXWXDsXZU2c2zGnTHrjIh2wW/rlQ2ZFH478Jy0eReqoxStOHYuyuTlXWW3gXZX8hdZbuBdlcfKusubYuyusuHYuyuTlXWW3gXZX8hdZXC5MWsIIvPu+R3PgGBErKdARbBEVACytVlzPo8hicMjxF7fXrLdwLsrj5V1lzbF2V1lw7F2Vycq6y28C7K/kLrLdwLsrj5V1lzbF2V1tHMaj5lKxqJpKyKPiTmTRzG6YtNzpbt1lw4jcUfo9PoKlCGfbatqyXtyEQug9HUfMpWNRNJWRR8ScyaOY1HzKVjUatBpePI6UVltpEVwljCjNi7OlMtCw3peHq1URikWN9E2PSVFtb9YdyUrIo+JOZNHMaj5lKxqJpKyKPiTmTTsEqPEVeuKq3RqnYJCXOuuKP4F2CQjz064onKtV7BKjImuuK7BKj1Sr5HcKPvWmNwsmVAGTdhohrcZyGxSzVbBIonItyhqNdUBiY63K37lZrodvcj0ZkNVbo1TsEhLnXXFH8C7BIR56dcUTlWq9glRkTXXFdglR4ir1xVW6NU7BIS5lcJESA3c7q9NrZLP6VrUCauswrjMgxqRmdK1oNLIHauX1XxrhuVonE/bRHnp1xROVar2CVGRNdcV2CVHiKvXFVbo1TsEhLnXXFH8C7BIR56dcUTlWq9glRkTXXFdgtG8ikYlFyKXpFxqRmTePS+zepDtkfsSp84YyZjyrk7CtEeN9M+2MS6ONyrU/ElBJDW5wd9LJdTtz1XAeiqLkUvSLjUjMm8ejeRP4lPvVI5GLsl+2WQYYrya4V9LNF9Ka3Q9kGws8Vu+rylr3eKH6xIuNSMybx6N5FIxKLkUvSLjUjMm8enC2ibAR5nE2ZOHwtp2lGh5nE18q4W07WrVeZxNgLg8LaJ0xLmcRNtAN1l92Y090YVstBPpsBbD6nWwdC4QXbc7EkjJa1uUDerHdqwTbFlwHaUaHmcTXyrhbTtatV5nE2AuDwtonTEuZxcLaJsBHmcU66MxBlzJU0IUVyZW3xGYAtfKrk8zBiMgc6bSlKU1vdfVNhxh9XkTe+2+GVp3Ha1arzOJsBcHhbROmJczi4W0TYCPM4mzJw+FtO0o0PM4mvlXC2na1arzOJsBcHhbROmJczi4W9HMaj5lKxqJpKyKPhTmReWzeCErLbd/2iETGS0donAVDDW6QNy8fu5QXHyoTKiaSsij4U5k0nS2IrL90kzSKkeHW32V+cZtA1HJxsU3dILK8mujU2lvmDGD9UcqqTZhLnuNVuuaeZnuujcLoqXOXRUuqpdoyG5QyQyGTVP3VyDfb/ABEvS8Ssij4U5k0cxqPmUrGomkrIo+FOZNN5ICKp7BTtKC3vJMV3FsFSPYt5KP7w2CniqLm8kA0qNRClLxL7k+xwO099ubFGXHtjpMP/AEXSD6rx+8dWtBCtJHsW8lH94bBTxVFzeSERqMl6NGB++uul06esma45SExOZdqN0cX6dUkNsiighx6KvA0imxARXZii/VvVUnSzVHLkaGtwclDbZ1V+klVUs7K/RYdVWxQ1Xx+Ov0L0VLXKpS3E83Pauhgoz0eSLxVFzeSAaVHYK3kgIqnsFO0oLe8kxXcWwVI9i3ko/vDYKeKoubyQDSo7BW8tG8ikYlFyKXpFxqRmTf4eUTOtbo7JPuxWBjR/ueRxVCf7Ef6LnAXjl64KytIuNP8A7vSrlEipy9TZdAt9XDARbEhElT9tCMQo5MGiORPJOMXJ1Vt8tHFfFNuuM1au7woLyFU3OjuKCdHb/wDWP5W7473Fx+lPWRmTf4aN5FIxKLkUvSLjUjMm/wANXPwUfMpWNRNJWRR8ScyeSSea4eMxvvOt0eagFWHP+m6QfRePXujSdvluaUvyOHWtb+87V0bjOoxb47P1+lPX1+kvcnIcdxO2lqqftshpMPORnYt/qo0hqSH0/wD0vZepWRR8ScyaOfgo+ZSsaiaSsij4k5k03ijKlQ2EmRrRzeKf94bCUf2LeKfpvPYSarQW94qY512vc45EYpGjfe8ljbThPdiN9NzgbVBi9p1m2x20NKBT+k/GafUm1OAm3HGHLdexcr9Jju8hkU3FsJNVoLe8UYlU9hLeKMqVDYSZGtHN4p/3hsJR/Yt4p+m89hJqtBb3ijEqnsJbx0byKRhUXIpekXGpGZeWv8dr8fY5rh9+cx2Yllc2PfVcIVWygTqSR/qzIbcqkqK5GK2XVyIo77chrSn+45cl+i41IzJvHo3kUjCouRS9IuNSMybx6cLiFsxLmbRnRweFxNUq1XmbTvyrhcTVeIeZtGBOHwuLy93dM8Ya2xP6F3Dp3alfWn1TrfurBnb6/wBUhoY3G3cShTHYbsKU3MZRlsbsdKleG68Q8zaMCcPhcQuAI8za4XELZiXM2jOjg8LiapVqvM2nflXC4mq8Q8zaMCcPhcQuAI8za4XNHMaj5lKxqJpKyKPhV/d5bxZB2Wv+h5MzviWl3khfXKityKNuORq/1rjblBluQ34z4SGLufHbPFQ3XqVkUfCnMmjmNR8ylY1E0lZFHwpzJp2BVXhKnXJC3VqvYFEXNTrkh+BdgUQ8y65IXKNUo+NVJPkkwR2Qv6ExrniWM9r32P8AdACgU/rXSD6qzT+m/wCSu+kDw4fSSQ8y65IXKNU7AqrNSr1yXYFVeEqdckLdWq9gURc1OuSH4F2BRDzLrkhco1TsCqs1KvXJdgdG8ikYlFyKXpFxqRmKu0B/etKbaf0T/wAa+/8AQ3aHx1dfNxrxhvZbYhUqCkZk3j0byKRiUXIpekXGpGZN49OsuHYuyuTlXWW3gXZX8hdZbuBdlcfKp7XHBhDvl1/3/Rv9Nl2/3/0JUoQz41Yz3jhtybbIL9PuvZXHyqPXml82xdldZcOxdlcnKustvAuyv5C6y3cC7K4+VdZc2xdldbRzGo+ZSsaiaSsij4rz/wATZ6etz/peT0/zG8X/AEM2PSSxY5lbfcfKB5LbFd54sfFa6/8AuXMmjmNR8ylY1E0lZFHxJzJp2CVHiKvXFVbo1TsEhLnXXFH8C7BIR56dcUTlWq3N6p22y/8AKf0vKf5DeL/orzFUKXSZ4/4vUX7XVyrZWd/dOoyJrriuwSo8RV64qrdGqdgkJc664o/gXYJCPPTriicq1XsEqMia64rsFo3kUjEouRS9IuNSM0unrEs/7XP+l5P/AC6fsP8A0U+4A2qUPay64yUS/wBDjeONbLa3j0byKRiUXIpekXGpGZN49OFtE2AjzOJsycPhbTtKNDzOJr5Vwtp2tWq8zibAXBkMjwWuv/sPsXBzj+1eTq7dy/39qtaDR65xgX6u0gucYkNaEP8ASuUnrswbcIjdP2t9sabO3XCP1pHir7cm3k6YlzOLhbRNgI8zibMnD4W07SjQ8zia+VcLadrVqvM4mwFweFtE6YlzOLhb0cxqPmUrGomkrIo+Eqeox/iuFf8Af1+QDX9PYdo8x9gK9m8/al3BphPPvSjatkg0FnX6O2moDserfJ6f0Rbo7PV5PbDjVpFtjEc51fGpPWurmTRzGo+ZSsaiaSsij4U5k03kgIqnsFO0oLe8kxXcWwVI9i3ko/vDYKeKoubyVyHiuYlvD65bXPE8cleofXcXuvCsTfq/9m6zOIYkNySUWM3GH+sNKDRXlzdJcdcuEhkBZbnD1p7FQeY2Ct5ICKp7BTtKC3vJMV3FsFSPYt5KP7w2CniqLm8kA0qOwVvLRvIpGJRcil6RcakZl5E3su1pd5bb9i7NlAucV8ZMf6vJ5HutTPFD+xIc4WIUcpkgRoAf2HnRYbecq67aJLbJq/U+fx0+SzaN5FIxKLkUvSLjUjMm/wANXPwUfMpWNRNJWRR8S8wb9JfjDvrF+xdInciWiacJ5sxcD6JcluIywJ3Gd9m+O+2Ax142lVVxuio4Ff6lfSlK0eu8222aNCDyi1BVi1vc0W/ZvH/+I0c/BR8ylY1E0lZFHxJzJpvFGVKhsJMjWjm8U/7w2Eo/sW8U/Teewk1Wgt7xXljNTgeNObZ/2b/CqJQJDojHvEZxAYnpLlMxQfceu0uOyEdv7Lgdi96PNuGnbY6aO1yRTjLrVQdMKxrs4KYfbkU/oXqRsb8bt/ThJ4KONWb1CVfa/wCVYWy/SNhLeKMqVDYSZGtHN4p/3hsJR/Yt4p+m89hJqtBb3ijEqnsJbx0byKRhUXIpekXGpGZT4/atcF3rzK/7+xX96XKE5b32TjXITtPoujNoqWp0jabBoPtQB/zEcg2E3KYcVP3VfanJMcVKrbnFX/YGQFDulKqn70+6RUAbFH/Urxrbv+Uu5bp1kHbaNG8ikYVFyKXpFxqRmTePThcQtmJczaM6ODwuJqlWq8zad+VcLiarxDzNowJw+FxC4Aje4/WuVse54H2SGhDcLMQFFudRqBCY/cjBtpo/BYeX6TWlf0kqr9Hov0cFOaaYcstiKcxcID8B2FOONVl0Hm/uXp7Yx4jH4rdo+fGzY6++lCkSmybab5m1wuIWzEuZtGdHB4XE1SrVeZtO/KuFxNV4h5m0YE4fC4hcAR5m1wuaOY1HzKVjUTSVkUfCnMnlMfdH8Xf9n25UKPKU+Odqkf07lOo0I03ONjQW5MduS1e7K5BrDlHGcacF1v7d1rV6fEZpHjaXxzjtMb4bN4yzy3lzJo5jUfMpWNRNJWRR8KcyadgVV4Sp1yQt1ar2BRFzU65IfgXYFEPMuuSFyjVOwKqzUqyYVX48JwoFx+55H+9wr/v75VoFH7jHaT0uRMKJa/RXcaBJH8VWlCp5BY+urdLrFcpWlafTSvr9Hr6KwNdu+a+Xu7LZcvhgeHtcdKs1KvXJdgVV4Sp1yQt1ar2BRFzU65IfgXYFEPMuuSFyjVOwKqzUq9cl2B0byKRiUXIpekXGpGZN415RF2P2OT2IP2/If+Vr/v7TnKjO4CimXAVWdPRP3FxDBlvVZtI0TTbbNFfh+KEfJD0r+6v9i2K0zNlfpaL0uGs8+OH4Ux8evkbnZu95Krk6Ex1YjePRvIpGJRcil6RcakZk3j06y4di7K5OVdZbeBdlfyF1lu4F2Vx8q6y5ti7Kn2+kqHaX6wbh9vyX9p5fl/Tuob4HjLvLZ/o8isnqrXM5R+h2u29a3wvSL48zwWjRwqNhDd5H7AzWZeesubYuyusuHYuyuTlXWW3gXZX8hdZbuBdlcfKusubYuyuto5jUfMpWNRNJWRR8ScyaeXW/jcscvsxPteUj7qV9af0zHeHhz22v0+Q2bardM7Qau19b7re67pLQcbWnk8ngtc//ABbd4XH9GU5k0cxqPmUrGomkrIo+JOZNOwSo8RV64qrdGqdgkJc664o/gXYJCPPTriicq1XsEqMia64rsEnv8pqnJZroJCYfZ8nD1hRC3xf6kdzpeRfVf7ScZyFNCSKMhbC2V55Wr9OW/J1wWgn+T+hzZQ3Wdd3OWbawrCgdglRkTXXFdglR4ir1xVW6NU7BIS511xR/AuwSEeenXFE5VqvYJUZE11xXYLRvIpGJRcil6RcakZk3j0byeR23vRfHp22v2b4G+12kt0D+peWtzNqk9uB9N8u7UFv1/dp2eLTMSTKq2ANjqzTd5MvLrhU5CtTPBEtTXbu8jKm8ejeRSMSi5FL0i41IzJvHpwtomwEeZxNmTh8LadpRoeZxNfKuFtO1q1XmcTYC4PC2idMS5nFwtomwEeZxeQ2+o1s8+k1j7EsOSLYi/wAb6q+vpXsKpy6KsiVRVuFRVLowhuEUkEhk1T9/occkAgubNSpseb8Ye68n6LtNpAhOuE64mvaz9LFPTycioIzHueVbo/YkP19GPFA/zmxFweFtE6YlzOLhbRNgI8zibMnD4W07SjQ8zia+VcLadrVqvM4mwFweFtE6YlzOLhb0cxqPmUrGomkrIo+FOZNHMabGhndYTtmnQpQTGPsW7/HuX2vWqKgkiiRzRWyMS/StqoxcGl2praG5s+rbzTqkxmpFHo78A63KtXIcgJUfXzKTvlqCzV+T9VKel/v7/XtStLHFFIaGFplDa5cUhNhOZNHMaj5lKxqJpKyKPhTmTTeSAiqewU7Sgt7yTFdxbBUj2LeSj+8Ngp4qi5vJANKjsFbyQEVT2CnaUFt8KSGnBesk+M+Eln678FY1zEqGP9AhEqOQIxrqSGlWVIZUkIzlPF7n1ntfJ6Vpela4lWGfSq9K6uGLYi6/JTVjnPPV8fYNF41CrSVZ5tvpDuQuVuESkoLdcpFsdjSxktANKjsFVM6UrOYbJt+K4nKUo3vNMV3HsFSPYt5KP7w2CniqLm8kA0qOwVvLRvIpGJRcil6RcakZk3+GjeRSMSdhtTmztk60OxZDcpn6r3G7MCyv72f6j0Vh5XKJSKdr8jqy275NCGjvksklM7c6QEGb69e7mqW27EhtN3TdsvKG3XbbDszTVeRsaCYF9HktqoNLRL30uIxTGHMcgv0vN2kif6++q2m5uofH51UPjE1D47Mbo3b5g0jRZXqyBgMvSLjUjMm/w1c/BR8ylY1E0lZFHxJzJo5+Cj5lKxorfucYe5Prmt1tlzEqGP8AUuzXJDssVuZcHbFANqke52ukK8R5NfX6Lpe2IRd653R5rxh81TxWMnPGNtGbrNtkiHJbmR33m47T1/ckFIbcjyI1tZq3dowUieLu74Ojn4KPmUrGomkrIo+JOZNN4oypUNhJka0c3in/AHhsJR/Yt4p+m89hJqtBb3ijEqnsJbxRlSobCTI1o5vFP+8NhKP7FMisSk6xOaoU02aNT4rqp++t2h9yLaJWwvv+i9K/ROrtheKN7rtpLgx5lKRZ8FQ7mDziu8vpW+ta1r4s5EC3crdFJucOONx8n9aGVTLxNqrdskRmZKbAW6eUbf1iNT0jzf4fiPrWRsJbxRlSobCTI1o5vFP+8NhKP7FvFP03nsJNVoLe8UYlU9hLeOjeRSMKi5FL0i41IzJvHo3kUjCouRS9IuNPtt8pRWarrUJq4uFABm6wnFfolKHbZ9Hh+qv7I5UcEVzi0RXdlfqjprs3El63Qlw3Il05tV0Zi6twouK6UXrdBUua+8NpfkWxN+Sxa1avVvcTb7Luj7Lb4ryiMb9u09dYMU5klloWWXnRao7fIbSucoZtyCTHJXMvSB4S3Xl0byKRhUXIpekXGpGZN49OFxC2YlzNozo4PC4mqVarzNp35VwuJqvEPM2jAnD4XELgCPM2uFxC2YlzNozo4PC4mqVarzNp35VwuJqtGh5m0YE4XC4hcARJxoqVieqnWFp8HGzaOLdagLEth7QnBFVeeqiCc4v0upobVHohgxhQtNj9h50GQm3A5Chk23LZdB5s2Wzo7aIDqc8bhkm7PNjJpy5NIC3irhZIstS/H5rCMCCqixnZT1otoW5nTya58DVut40bctkYlcIgxKWcrpEiN+SUAospiUhbIS5m04dHB4XE1SrVeZtO/KuFxNV4h5m0YE4fC4hcAR5m1wuaOY1HzKVjUTSVkUfCnMmjmNR8ylY1E0lZFHwpzJo5+HqpNhjynbjZpcFRbg8wostqTT7ZmLdJV1pRUbkyy8dtkeka82QZSgTpNqkQJzE5v7EiMzJFuwyzmW+E1BZ0vN2CANvjE+6q1pSg0O6XPZRtF6EMrx6C8qxLvblHvLBHGrQnFKxqJpKyKPhTmTTsCqvCVOuSFurVewKIuanXJD8C7Aoh5l1yQuUap2BVWalXrkuwKq8JU65IW6tV7Aoi5qdckPwLsCiHmXXJC5RqnYFVZqVeuS7AqrwlTrkhbq1XnBTbLDnK5W6RbXoVzVP3p9JEIo50YE7d2qLtzZdY3jsp5RLFCjoRoNLQNYjyuVuYnhLt821O23yOlU04DwfavE8YEWDHKa//APFeJW0fFItGG6s1KvXJdgVzCSk24JQOWibbyi+QUFzfSQHXJD8C7Aoh5l1yQuUap2BVWalXrkuwOjeRSMSi5FL0i41IzJvHo3kUjEouRS9IuNSMybx6N5FIxKLklR25TN38eKPSFNOKQELgfR6UWwE6yBteJP0KHrtpu1n2GJKR2u5204vkZt1iXGJL+xeLvSIrgMjsRmuGOp8mkVi1RO/OpSlKN49G8ikYpMdqU30p1sK239iTWVpFxqRmTePTrLh2Lsrk5V1lt4F2V/IXWW7gXZXHyrrLm2LsrrLh2Lsrk5V1lt4F2V/IXWW7gXZXHyrrLm2LsrrLh2Lsrk5V1lt4F2V/IV8s1JTFtl1jOf7p9UJ39Ovv2XWWnk7Y4DlY8FyPX6H3m47RyZ1xrWPGs0O3tnLmKXICM2RPTpNqtgxIfWXNsXZXWXDsXZXJyrrLbwK5Qos+nPNtFYDrE5ndwLsrj5V1lzbF2V1tHMaj5lKxqJpKyKPiTmTRzGo+ZSsaiaSsij4k5k0cxqPmUrGomnktq671mk7g+q7x+Vjx+fSbC++bDTjnqr/ce/IhM9eNKktxgecdnSLRbhgNx8KcyaOY1HzKVjTACYy7O9CfizhnAo+JOZNOwSo8RV64qrdGqdgkJc664o/gXYJCPPTriicq1XsEqMia64rsEqPEVeuKq3RqnYJCXOuuKP4F2CQjz064onKtV7BKjImuuK7BKjxFXriqt0ap2CQlzrrii+BdglxjKbu8By1TWXaPNfU7yWqbDkty4/3/ACK7DUbbB4BnXPaUCC/cnrPZ2Ig9cUTlWq9glRkTXXFdglR4ir1xVW6NU7BIS511xR/AuwSdhjKq2x6gTlWq9glRkTXXFdgtG8ikYlFyKXpFxqRmTePRvIpGJRcil6RcakZk3j0byKRiUXIpekXHcIozIkCpwpP1Oti63CkO2WYy6DzX3b1dvVNOxoaEpd0fjWSNDbpSg0i41IzJvHo3kUjEouRS9IuNSMybx6cLaJsBHmcTZk4fC2naUaHmcTXyrhbTtatV5nE2AuDwtonTEuZxcLaJsBHmcTZk4fC2naUaHmcTXyrhbTtatV5nE2AuDwtonTEuZxcLaJsBHmcTZk4fC2naUaHmcTXyqrbVKO1q1XmcVwtDNzErJc4q/UKsuNPtPfS82DzceRIsr0OWzMa+0/MjR1fL3WQocKVMrC8c4qRxGOLXyrhbTtatV5nE2AuDwtonTEuZxcLaJsBHmcTZk4fC2naUaHmcTXyrhbTtatV5nE2AuDwtonTEuZxcLejmNR8ylY1E0lZFHwpzJo5jUfMpWNRNJWRR8KcyaOY1HzKVjUTSVkUfCnxEymWWM8v0q8Rkc9+OTdxjGhfZJU/dGFDGsN+I7Av7ZVEqGPovRVMaKsliiKdEFOXiAFJPkzIqZe5spRLPLk1t9gig42AthKxqJpKyKPhTmTRzGo+ZSsaiaSsij4U5k03kgIqnsFO0oLe8kxXcWwVI9i3ko/vDYKeKoubyQDSo7BW8kBFU9gp2lBb3kmK7i2CpHsW8lH94bBTxVFzeSAaVHYK3kgIqnsFO0oLe8kxXcWwVI9i3ko/vDYKeKoubyQDSo7BW8lWlHlIsNveUzxagi9Z57CpW4NJuRc085JOjX6g3StLya6V1JfpdwKoWGaSp4zOrQfFpnqx46yKhsMx67BTtKC3vJMV3FsFSPYt5KP7w2CniqLm8kA0qOwVvJARVPYKdpQW95Jiu4tgqR7FvJR/eGwU8VRc3kgGlR2Ct5aN5FIxKLkUvSLjUjMm/w0byKRiUXIpekXGpGZN/ho3kUjEouRS9IuNSMyb/AA0byKRiUX81K0i41Iypv8NG8ikYlFyKXpFxqRmTf4aN5FIxKLkUvSLjUjMm/wANXPwUfMpWNRNJWRR8ScyaOfgo+ZSsaiaSsij4k5k0c/BR8ylY1E0lZFHxJzJo5+Cj5lKxqJpKyb6esfEnMmjn4KPmUrGomkrIo+JOZNHPwUfMpWNRNJWRR8ScyabxRlSobCTI1o5vFP8AvDYSj+xbxT9N57CTVaC3vFGJVPYS3ijKlQ2EmRrRzeKf94bCUf2LeKfpvPYSarQW94oxKp7CW8UZUqGwkyNaObxT/vDYSj+xbxT9N57CTVaC3vFGJVPYS3ijKlQ2EmRrRzeKf94bCUf2LeKfpuPYaarQW94oxKp7CW8UZUqGwkyNaObxT/vDYSj+xbxT9N57CTVaC3vFGJVPYS3ijKlQ2EmRrRzeKf8AeGwlH9i3in6bz2Emq0FveKMSqewlvHRvIpGFRcil6RcakZk3j0byKRhUXIpekXGpGZN49G8ikYVFyKXpFxqRmTePRvIpGFRcil6RcakZk3j0byKRhUXIpekXGpGZN49G8ikYVFyKXpFxqRmTePThcQtmJczaM6ODwuJqlWq8zad+VcLiarxDzNowJw+FxC4AjzNrhcQtmJczaM6ODwuJqlWq8zad+VcLiarxDzNowJw+FxC4AjzNrhcQtmJczaM6ODwuJqlWq8zad+VcLiarxDzNowJw+FxC4AjzNrhcQtmJczaM6ODwuJqlWq8zad+VcLiarxDzNowJw+FxC4AjzNrhcQtmJczaM6ODwuJqlWq8zad+VcLiarxDzNowJw+FxC4AjzNrhcQtmJczaM6ODwuJqlWq8zad+VcLiarxDzNowJw+FxC4AjzNrhc0cxqPmUrGomkrIo+FOZNHMaj5lKxqJpKyKPhTmTRzGo+ZSsaiaSsij4U5k0cxqPmUrGomkrIo+FOZNHMaj5lKxqJpKyKPhTmTRzGo+ZSsaiaSsij4U5k07AqrwlTrkhbq0XYFFXmHrkh+BdgUY8y65KjlGh7AomalXrkuwKq8JU65IW6tF2BRV5h65IfgXYFGPMuuSo5RoewKJmpV65LsCqvCVOuSFurRdgUVeYeuSH4F2BRjzLrkqOUaHsCiZqVeuS7AqrwlTrkhbq0XYFFXmHrkh+BdgUY8y65KjlGh7AomalXrkuwKq8JU65IW6tF2BRV5h65IfgXYFGPMuuSo5RoewKJmpV65LsCqvCVOuSFurRdgUVeYeuSH4F2BRjzLrkqOUaHsCiZqVeuS7Ar/xAAuEQACAgECBQQCAQUAAwAAAAABAgADERIxBBAgIUATIjBBMlJxFEJQUWEjcIH/2gAIAQMBAT8B81ELnAlfDqu/eWsg9oGYykfXkV8Lnu0WlF+o1SNuJZwn6QqVOD8yqWOBKqhWJcx/EfcVQu0ZdQwYy6TjxqKgo1GNxCjsO89d/wBYOIXZu03llQsHeWVms4Py0U6Bk78q/exbnxK/fi1gZyZhru52ioF25MobeDVT/EBBGRHQOMGWVms4PwAEw9uXDVZOo8rjhDEGBjncMp4tFWe56kPpNj6PJ6w4wZZWazg9IGYKdPd4VduyjtBwrz+kP2YPYMa5qH7GNg75gB+sz/yTVZ/qFmIwR4iLqOIBjqsTUJQ+peVlYsGDLEKHB5LWzbCJwn7RK1TaY5FGP3DwwO5n9JjYzRcm3ePa/YMIlqtzMO/h8Mv93wD2WfzzsrFg7ypFQ6XHf4iAd5Zw32kS4qdLwHPJt/DqGFHwXDtmI2pc83QOMGKWTs3x2VCyAtS2DC3tz4Yi7fARmcOe2PAsQOMGMWrBQ+Gu8Hw0fmR4N9Wsf98NNx8VP5t4V+nV7fCXeDoB9xHTw/fJ6WcKMmHiGbsggN8VifyHw2ZxgRkCIZauVCjfwkOR0W+0hoDnvztbSsoXSg6Ccd4qG9tTbQAKMD5OKfA0zhsEavuWjSxHg8Ocr0MNQxEY1nTFcGFgIAbmz9dN+dOB9xRpGBGZhsIeIdd1i8UDvAc7fBY+hcxmLHJnDNh5f+Z8Hhm+ul69UBXa0T0Eg7dLDLCEf6mqwfWYXs+llyNuwxK7GTaVXCzr4p8nTyp/MRzlifBrbS2eogHeUDBI+F71XsO8tV2GtuQODkSm31B1O2pieVfbJ8Oh9S9VP5N1Fc/c9Jv2n9Pn8jEqVNpcMoeaOUOREcOMjlYcYPK06UJ5n21/z4dT6W6q+1hHxGONLY51WmsxWDDIlvcheXFH2clXUcS0+7xOHt/tPTtb0E4hsAnqrA6n75mxR2M4pO+sdHDprO+IlYTlxf4cuGTd4fFpt1DB6LfbhoOo1qdxPRX67TQw2MOrZhmWDA9p/wDnRw9ehe/LM4i1WXSJpMpuTGg9pdUUP/PFBxtKrg3Y82XUMShsjSfr4ioO8vr0N2mIFnf/AHMkfcNhO81QNmNiVOzroxLUKHB8YXsIOKP2IOIUxzg61iOHGR0GxRuZ66T1h9Az1D+s9Rv1nrf8MutDtkTUJgQRt+aiHAnC4yZxf5DyksZO6xOL/aA6hkGeip3gqQfUAA5vaqbyziGs7CbTsZpEAhGYUgGYBiBTYcCClAuMSzGrt5iWFDkSq4WDmdX1LzYvYmBZphGZpI2mqZ6C0pr0LOJtwNA85WKnIlb61zz4hNSwHPRiaeZlFetpfeE7DeE57nz+Gs0tjouq9M5G3wfl/Ea7SNKf4JLnTaLxY/uEF9Z+57WllBXuu0zMzM1TXCT/AIfMFjDYwuW35dv/AE5//8QAMhEAAQMCAwYGAQQCAwAAAAAAAQACAwQREiExEBMgMEBBBRQiMlFhQiNQUpEVM1Ngcf/aAAgBAgEBPwHrXvbGMTlNWvefTkFTxTO9ZdZA9RNXhuUafUyv1KZUSM0Ki8Q7SBNcHC7ec5waMRVRUGZ30qOHEcTtAiboGyBv01XUGR27ZomUMjszkvID+SfQPaLtzRFtVDUOhOSilbMLt5tZU704W6IC+SYzdsDNsR7dLMXYbN1KjjZCMtUTfYDZTQtnH2nsLDYqGZ0TsQUUrZm3byCQNVrsrp8AwDvspW4pQjmdsZz6WR3biqod43ENRshmdC64UUrZW4m8JIGZRqMWUf8AaEkUebnZo18QX+QH4tTv1Ti3a3ZH4AKPED6cN16u9lkrNQA+ekcbBHiabFVUW7flpshmdC64UUjZG4m7Hysj9xUniA/AKSd8nuKuULd02VjdG/2m17m6AL/I3yc1bylk9wsoIIgcUZuiwt6eU9uRUs3kX/m2Cd0LrhVEj5G44jkiSdeS1xYbhQV/4yItDhibtHRvOfIZ8KVmB5btjldEbhPa2X1R6/HLgqHQnJNc2duJqAz6Q8gKvbZ+L54Sb8uGZ0TrhMc2UB7ejOnKr/a09DSVG6dY6dGdOVX+1vRUmPd+vojw2y4fEPxHDHG6Q2ahRRxi8pTm0fypI2jNjr8mADFidoFHK+aYEqB5D3PJ9PRHgZnlwMFyqx+OU8DW4jYJ8gpGYGapzy83dzKCIl2NVxLSGAWCgdijB6GQZ8ANk+xzRFlZTzCFtu/DRgY8R7J7y92IqONjvc6ybRRv9r1J4e9vtzTmlps7kQxmV4aE1oYMIVazFET8KmFom9DKOEGyfHIzOE5fCNbNoiS43PDG7DG5McBqEGQu/KybFANXqmkYfS0kqWFkos5VFM6E/XHQRYW4/nZU/wCopjcLQOhcLjiBsq/Rp5ABOijo3vzOQVM+Jjt0z+9jmhwsVU05hd9cIUbcDQ3ZNnZv30cgseKv0bxMlw9gUKln/GF57D7GgKSeST3FUrsMoO2SMSNwlSxGJ2E7IBixD62UzcUoG0eqW/x0b23HFWj0NPKBsbpjsbQ7bPAJm27p8bozhcqcYWuf9bPDxeXY92AFxUA9F/npJG9+GqF4eBrcSELjpb+15WT4Rhe3UbRA8i7RdUMl27s9uCslEYGV1LO6TLts8OP6h2VsmkYQy6V7LcGHG0sRFjbhvZCeQaOXm3/lmt7Gfc3+k0MveN1ioXYiC8Z/I4K6bePsNBsAJ0VJA6N2N2S3rVUU7y7etzVPOJW/fTOZbaDZVsWF2MaHlNcW5tVLNvI7lbwHRGUjssY+AvflYJsIbpktynMLVHfUKeNkTt7eyhlErcQ6YsCMSMZRj3jcDlLE6J1nbdUIZDo1eTl+F5U93BeXb3eF5dn8wvLfDgqeAxRkHuiwrEQjbsodNsxysgCVXA4AAF4eLRnqpImyCzlL4d3jKI3Rs5qFS8e3JGolOrkXE67YoHy+0KKlZB6jmU79QXCuQsbkTdBxGiE3ynSAIm6uIm43I1MjnXBUQcGDFr1kkTZRZyqKZ0B+trcH5Km3JBc1uiMhKxIGy3gd7kY/4oi3AyPuVVTmV/0qGnud47rnsDxhKmiMT8O2ikwPse6IseHEdoICqJTFH9lUtKZDidogABYdfWw7xlxqNoyUE2+bhOvIaMOfdNpsTscuZ/YpKaOTUKTw7+BTqSVvZWcw30UVS2XJ+RRbbZZYShESmxgfs9k6FjtQmxNborIA/tpv2/7f/8QASRAAAQIDBQUFBQUGBAQGAwAAAQACAxAREiExMnEEIkFRkRMgUmGhIzBCYoEzQHKxwQUUJIKS0TRDUFNjc6LhFZOywvDxNYOj/9oACAEBAAY/Ak7SQkNZOkNJNk7WbtJCQ1k6Q0k2TtZu0kJDWTpDSTZO1m7SQkNZOkNJNk7VGHsVCf8Ac4fRFznE83uW/aeVdAYqsHZHnwVkkVHFpTdl2x34Ih/WTpDSTZO1m7SQkNZOkNJNk7WeBVkVvuWIVt1KDksCrLccb1iFv8eSwKtM0vWIVg1qOSwKLgRQ3rELAqyK33LEK26lByWBVlut69vGba8LbyiNmgNA5vNSv8r+lDtdnYfwmi9oyLD9UOxiB+iwci4EX3rELAqyK33LEK26lByWBVluON6xC3+PJYFWmaXrEKwa1HJYFFwIob1iFgVZFb7liFbdSg5LAqy3HG9Yhb/HksCrTNL1iFYOI5LinwtnNIFbz4l2kW6H+aDWCjRwlZG9F5clWjrPncFmhf1Ls4wo5fu8V3t2YE/EFv8AHksCrTNL1iFYNajksCi4EUN6xCwKsit9yxCtupQclgVZbjjesQt/jyWBVpml6xCsGtRyWBRcCKG9YhYGTdZOkdJNkdZGTdJt1kUYkVwawcSizY6w4fi+IqrQfxOXtYhPkFdDr+JXwWL2TixW23/MxWdpHbM88wQ7CJvAZTjNusnSOkmyOsjJuk26ydI6SbI6q1EdZEnbLsx/5jh+Sq66GMSgBcBgJCHC+1f6IRNoHaRzffwnu/asvb/ZNiQzR7TVQI7PiGHKR1kZN0m3WTpHSTZHWRk3Seb0Vq1hesvqrFKVWb0VrHgsvqvDRZvRWc3FZfVW60qs3orNnC5ZfVZvRWrWF6y+qe+NusHqr60+Fg4IO2jed4eHf3hZf4gg4Ejk9qEHbjvcIn91UPqFatYXrL6qxSlVm9Fax4LL6rw0Wb0VnNxWX1VutKrN6KzZwuWX1Wb0Vq1hesvqrFKVWb0VrHgsvqvDRZvRFrzbiHBgTds2/P8A5cLhD/7rsoJ9u8X/ACBcmDMUGMFGiTnuytFSom2RRc07uvd7Zg3InoVE2Vxp8bf1Wb0VnNxWX1VutKrN6KzZwuWX1Wb0Vq1hesvqrFKVWb0VrHgsvqvDRZvRWc3FZfVW60qs3orNnC5ZfVZvSTtJCQ1k6Q0k2TtZu0TokQ2WNvJQDRRmDW8lde/i6d9FiOvdLXCrTwRibPezi3khDjEv2f1arcJwcwi4iQkNZOkNJNk7WbtJCQ1k8uIA5lGFsGPGL/Zfvm21c43sa78ynRn3nBo5lXmr3GrnIQ4eAmzZoeZ2KhwW/Djr3Xwjxw1UGI66y6jpDSTZO1m7SQkNZOkNJNk7WeAVkgX3LFytjELAKy7W5YuW5x5rAK07HC5YuVhtKBYBWr6m9YuWAVkgUNyOzwD7FhvPiK7R2d/oFaiENHmqbO218zl7MRCPK4Kr3w26uqt2NC6lWt+zzaaqm0t/mCtMcHN8u4YsAX8Wqy6roDszU2JCeXNPFWm4hYBWXa3LFy3OPNYBWnY4XLFysNpQLAK1fU3rFywCskC+5YuVsYhYBWXYY3K1HiGvBoxKsD2cDwDjqm7RtjfNkM/qjFimy1v5Lcr2Y3WNVn4zmMy44C9RNqfgy8a8O/GHB28FAfcTZsnUK07HC5YuVhtKBYBWr6m9YuWAVkgX3LFytjELAKy7W5YuW5x5rAK07HC5YuVhtKBYBWr6m9YuWAk3WTpHSTZHWTpN0nRh9rFuHkOaaDkbeVZbR0Xl4Vdf8xwCtPHaxObsOndr9nF8QCvw5/C5VZc4Yt7hjQRvfE3mqOqYDszeS7SEbTHXgyOkmyOsnSbpNusnSMLYqRdoN1ReAvaF0faH8AmxdqAfHOA4Nl+5Qzdmif2Xbvx+HuRPPdTXcYhtd+BF5iyVHZ4Xg9f/AKR1k6TdJt1k6R0k2R1k6TdJ4IuAvCzKy+8FYKrLisyPaX0WCssuCzIOeL1giAbgsyLnXAXm9PifBg0cgt37eLfoF2211DDfTiUGMaGtHAd8sittMPAoR9nJMKvTVWxc74h3DFgDe4tXZRqu2Z2I8KD4e804EFVZcVmR7S+iwVllwWZBzxesEQDcFmWCLgLwsyP7w+0f9sYlFzz+67IfX+6LNjZ2cH4orsSqQBvcXnEo9pfRPjPbhgOZRLry42nFUbcBd3IMIfEaprBg0Ad8nixwKjw3fEyvRWWXBZkHPF6wRANwWZYIuAvCzKy+8FYKrLisyPaX0WCssuCzIOeL1giAbgsywk7SQkNZOkNJNk7WQgMO/Gx/DIbTtQr4Gn3Ra8Va64hAt3oLsPMIOYatOHcMaCPxNXYxr9ncf6UHNNRzk6Q0k2TtZl20RAwUu80Yf7PYYcP/AHDit7+J2n0CG0ftIkM4Q0GQmBrBwC3ojG6uCdb2mH9DVQYezOJY28mnFO9kXPdxW7sv5rd2X0V0Bo+iwb6JsV7CXNwW9s7Xfyrf2A/Qrf2OONFvdqzVq/xDBqt2NDP8yuoVtDfkqgObChpJsnazdpISGsnSGkmydrPM7qm1JxWUdES0AHyWZ3VUdeKcVlHRNsbuizO6revv4rKOiIaSAszuqBIGCqQ2ifErVg3W6LtIo9iz1PvHQn6tPIp2yR7r7vI90xoI/E1DZ9qvgHAn4FUBtE2xu6LM7qt6+/iso6IhpICzO6oVArRWo7mMHmuz/ZzHuPjcjH/aMa27zNy7LY2ObD5gLtIMOj+bhgva7aW+Vpe22qK9XtcdSroDfqr+yas4/larg8rcgOK3Nm9FdCDUNn7RoeRVe020DRe022MdFvRo7vqsIn9Sxij6q6LFHRbm1vH0Vlu3uvuooR2W+NW7zX8dsEdnzAWwqwS130RDSQFmd1QJAwWUdFmd1Tak4rKOiJaAD5LM7qqOvFOKyjom2N3RZndVvX38VlHRENJAWZ3VAkDBZR0WZ3WTdZOkdJNkdZGTdEWNO/F3QmQ4eZxomQmYN9fet2uHiLnfoUH/ABYO7pjQRd8TUNm2t3svhd4U2R1kUREigu8LN4qxsMLs2eIrtNtiuiv1VljQ0eSFpoNOauu0lVxDdV7OFFiHyavZbPYW/b/qV8I9VvQX/wBK3btQr2w3fRb7HN0KuiUPzIlhq0NPuAoHlGp6r6qtL0ZN0m3WTpHSTZHWRk3TuO0kJDWTpDSQk7VGH8MHc/un7S78LffPhPyuFE6BFwJsnvGNBG78TeSGz7Y7c+F54K/aWk/KCVWGyK/6UVNm2QfUly/io/Zw/AP7Ktm27m7v1oK8+9vAHVb0Fv0uXsnubreq2bbebVbhOLHhU2mHX5mq1AiB359/SP8A+5DSQk7WbtJCQ1k6Q0kJO1nmHVEAjBZT0QJBAWYdVu338FlPROt7uqzDqgW3inBZT0QDjQ+azDqo0ci5gLlzc4qHBHwi/X38PaW8bnJj+OB7xjQBu/E3krNsM/VXgvPzKjQGjy+5+1ZfzGKLoJ7RvLirUNxY8IQ9r3X+PgvLukc9p/8AcqtvFOCynogHGh81mHVOIBxWU9FmHVEAjBZT0QJBAWYdVu338FlPROt7uqzDqgW3inBZT0QDjQ+azDqnEA4rKeizDrJusnSOkmyOsjKFCGMQjomuOWHvH7hFhHEi7VPgu4/n3+32XUgcFZfQRv8A1fdqndieJUeLufBWH+0g8uSESC603uMcOO0fqjrIybpNusnSOkmyOsjJuk8qBIuCzItYakrKqvuCzIdnfRZVR9xWZFzbwVlUGD/tw1Fi8Xup0+49o3B2+ECMDf3+12bdf4V2O07sUcef3ay8At5IxIN8PlyVuEdRwKESF9W8pPf4WkrZeduqo+4rMi5t4KyoAm8LMsqBIuCzItYakrKqvuCzIdnfRZVR9xWZFzbwVlQBN4WZZZO0kJDWTpDSTZbSeAdZUDzqfuLIvFhp9E0cWbvuN8UdwcEIe13s+GL/AH+7mLs41arcP6jmmxYR3T6LaDzFnqoXyglDSTZO1m7SQkNZOkNJNk7WeBVkVvuWIVt1KDksCrLccb1iFv8AHksCrTNL1iFYNajkuKiv8TiVs7f+GPuMWH4mqJDPEe5IN4PBUbWzy5fdzGgi/wCJqo/7F+b+6htBqIjq/RR4xwa2z1/+laZpesQrBrUclgUXAihvWIWBVkVvuWIVt1KDksCrLccb1iFv8eSwKtM0vWIVg1qOSwKLgRQ3rELAybrJ0jpJsjrIpx5AlBAcvuRpc3tP9C7aENw4jkoUN5q2HlRfxiPJ+g/+FPDTWjqGRk3SbdZOkdJNkdZGTdJ5vRWrWF6y+qsUpVZvRWseCy+q8NFm9FZzcVl9VbrSq2h9rCG7h5KC3m8fc7XMAqvP/QS1wq04qz8JylQ2tNHQt1w/VQX19ltA7N/4uBWX1VutKraYNadiW8OYVmzhcsvqs3orVrC9ZfVWKUqs3orWPBZfVeGizeis5uKy+qt1pVZvRWbOFyy+qzeknaSEhrJ0hpJq2v8A5ZWz/i+5wz8ih/hH+hFnxC9qFu5jtx4UQj4LLx1UGL42gpq/a34mfknazdpISGsnSGkmydrPAKyQL7li5WxiFgFZdrcsXLc481gFadjhcsXKw2lAtrBA+yd+S2f8X3OB+FQ/wj/Q/wB4YPJy2mFEPtoUOmrU1rjvMJCsN9V+1Irb6xQPzVq+pvWLlgFZIF9yxcrYxCwCsu1uWLluceawCtOxwuWLlYbSgWAVq+pvWLlgJN1k6R0k2R1k5R/+W78ls/4vucAfKmjy/wBDfCY3tDgeSJbapxorUJ7mHmFE/ebtoa24+Mq2c0Vxcm6TbrJ0jpJsjrJ0m6TwRcBeFmVl94KwVWXFZke0vosFZZcFmQc8XqLQX2D+S2f8Y9zsvIx2g+6I8JDfeVcQ0cyriXnyX2T+qvLm6hWmkObzH3OjPtH3BW9pFp5+HkogaABdgmh7A6pKLAag3hdk4b8G76IgG4LMsEXAXhZlZfeCsFVlxWZHtL6LBWWXBZkHPF6wRANwWZYSdpISGsnSGkmohQ/lifr7m2MYbw5Q4owe2vubXOJX3Za3fiei3iXcgFe0MHzFb8boF9q7oq7PtNPIhe1Da824H7lFiPvEPdbKnicmPfwFVGjPPC7VQwcsTcKdrN2khIaydIaSbJ2s8zuqbUnFZR0RLQAfJZndVR14pxWUdE2xu6LM7qt6+/iso6IhpICzHqtoHKIfzTXj4hX3EWF4m0Ttlfnbe33EWJ5UCfE8I912UM+0OPkt25vFxVIY3uLj93u51lDhcG4psKHdDFwHIJrGYBOs8DaChxKA2m1WUdFmd1Tak4rKOiJaAD5LM7qqOvFOKyjom2N3RZndVvX38VlHRENJAWZ3VAkDBZR0WZ3WTdZOkdJNkdZGUX5qO9FAPIWenuRHhXB2+3+ybFh4O9D34ezjhvOQJzP3vcvicgt43YuKDWCjRw+8mJEyj1TnuxcUWRBQu+OTDzatmPIUm3WTpHSTZHWRk3TuO0kJDWTpDSQlCieIEdCosPwur7ks+MXtTmuBMM5m8vNB8M2mnA90xYuAwHMp0SJhWrvdQ4Q47xTW/Eb3TvuV8Rg+quiMP1V1+n3Mk4BCFAy8OQHNZBEicXOCO1QGBrmZwOIV97mXKH+FQP5vzm7SQkNZOkNJCTtZ5h1RAIwWU9ECQQFmHVbt9/BZT0Tre7qsw6oFt4pwWU9EA40Pmsw6rtKZIlfoUWcHtp7r98gfzj9UX7GR/wASAcNQrMWsF/Jy3HtdoZWozqfLxKuFGDAcGhWIf1PP3Vk5WYz3I5hjyC/xFr8SwDtCt9jmrdeR9VSOLY58VWE6vlx+4iC3F17tEHPFI0W93kOUnsdg4UUeEeCb+FbPRpwP5rKeizDqiARgsp6IEggLMOq3b7+CynonW93VZh1QLbxTgsp6IBxofNZh1TiAcVlPRZh1k3WTpHSTZHWRlEg8XMu1UKJ4Xe6IIqChH2avZ/8ApVIrQIy9jHLdVu7R/wBSrHigjqVZhtst93tkT5rKxX8RDNnxsvC3IrfrcriDor7tVSJFhnyxW6XNf8ouVyqwkFBu0/1hVBqOY98XOwF6MWLexm+f07m16u/NP8rlso+QTbrJ0jpJsjrIybpPKgSLgsyLWGpKyqr7gsyHZ30WVUfcVmRc28FZUATeFGaMrjbboVBfxs0P090WuALTiF2uxa2OIXZ7WDd8StMIcOY97E+aI53rOpbZdzatyPdot7aPRfbf9K+1d0ViG4uIzFOixXGGw5PNWI7dHDAqmaH4UHwzVvvRDGL0YpG9FNfpN7z8Iqtoiu5IAZojqJsOuUUWZZUCRcFmRaw1JWVVfcFmQ7O+iyqj7isyLm3grKgCbwsyyydpISGsnSGkmydqoe0DFhsnRRYB/EPee3h1PiFxTOwjEh94+6dnBcC84kfCm2uJTWtFABSiMOOwPaea7SFV+z8+LVabl4jmg+GatPvLDfJoUKEMGNAntLvkooz+LzRQeTN9O1m7SQkNZOkNJNk7WeBVkVvuWIVt1KDksCrLccb1iFv8eSwKtM0vWIVg1qOSwKLgRQ3qJCfSj20Tbd1l1l/vdmb8v6/cavIaPNXO7R3yqxDBA8LVa2n+kKAQABTghKhAIKO0bGPY/Ezwq++G7MECDVp4967uV5Jr3YNJiHuBnGI+i2aBxpUqNtLq37jUXAihvWIWBVkVvuWIVt1KDksCrLccb1iFv8eSwKtM0vWIVg1qOSwKLgRQ3rELAybrJ0jpJsjrIybpJu0tG7Eudqmg54e6febN+Efn7z2RZ/MFuw4DtFfAH9C+y/8A5r/N+got8HVxVY0Svk1UhNDZQncjRQX82DuO2nYm7uLoY/RdjFO6cPLvbTD50eO5Fd5UW0RyMTYHcgbMMrLyrA+HdUKD4Bfqm6TbrJ0jpJsjrIybpPN6K1awvWX1VilKrN6K1jwWX1Xhos3orObisvqrdaVWb0VmzhcsvqosInEXXcVZi3A7jx7zZ3fJ+qP3R/y3qD8m53XbVsjfN7B+i7GKd8YHn3YfzM7jG+JygClC4Wz9Zuc7ACq2vb4nnRMc/h7QrN6KzZwuWX1Wb0Vq1hesvqrFKVWb0VrHgsvqvDRZvRWc3FZfVW60qs3orNnC5ZfVZvSTtJCQ1k6Q0k2TtZjbIQ3XXP1Vlx9pDu+nu9mfqEDzH3RzPEKLadmdiN7vHbNjFCL3NH5hWXfaj17jPlH6dyFD8kxgwaAJua070XcCg7OMz95yjbQfiNkSdrN2khIaydIaSbJ2s8ArJAvuWLlbGIWAVl2tyxctzjzWAVp2OFyxcrDaUCwCtX1N6xcsAnQIrQWPuKsvwBv+Zqa5hq03g+6hu8L/ANFBd8v3WG/BkTH69/8AfdiuGLmjgqOIbF5c5F78oxW0bQ7Hh3ILfnaJF8QhrReSVZ2JgIHxO4rZbH2bGW3DzT/luCgwaCobU6lYBWr6m9YuWAVkgX3LFytjELAKy7W5YuW5x5rAK07HC5YuVhtKBYBWr6m9YuWAk3WTpHSTZHWTpN0m3VW4Y9vDw8/Jfukb+SvA8vdRvKhTPIkfdWxW4sUGLxIv17xhikSORl5aqqFjtCw4XVQO1vcIfmrMNoa3uQf+YJfujDuMvf5mVs5nbxUIOwL7RTpN0m3WTpHSTZHWTpN0ngi4C8LMrL7wVgqsuKzI9pfRYKyy4LMg54vWCIBuCzLBFwF4WZfvuzin+4Bw81R32zM3n5+5jM8TCFEbyd37qfVbogH6lfYQzo9b2xH6OW/ssULebEb9F9pTULdjM6q6/uVEFkRvyuvVIgdDPmEaEOY7ko2wxD8zO6+Mc2DRzKc+IavcakyhtF1GjvbP5n9EScAosU/G4lNb8IvKiHhZUSL4GIOeL1giAbgsywRcBeFmVl94KwVWXFZke0vosFZZcFmQc8XrBEA3BZlhJ2khIaydIaSbJ2s3aSsuFWm4hNjbPXsid08vJCJD/mbyPuY8A8aj3m81p+ivgs+lyuDm6Fex2hzVuRw4ea9tswdoqRWxIR0Xs4rHfVe1bf4hircJxs+IKDHs2dohnHg5MjQ8rhXuQ9nGWGKnUyYzhx7+wu5qOa0cRZEg/wCJ96c04EUUaFtINl11ocE1zHBzTxEnazdpISGsnSGkmydrPM7qm1JxWUdES0AHyWZ3VUdeKcVlHRNsbuizO6revv4rKOiIaSAszuqBIGCyjoszuqbUnFZR0RLQAfJOhRt+G7gt3ehnD5gmxYRq0+nuIe0N+Pe+qDhgRX7jvNB1WSyflX8NtJp4Xqm07NVvNqL9mdZPGG79F+7xj7J+Hke5Hrxp+UrTh7R6w7lqI4NHmv4DZnxPncKBNi7VtAhEYWbyF7baNpiauW6+ODqEYuyxe1YPDj0QZH3XeLgrrorcDzRhutGH8UP+yESBFLm/khUCtFlHRVLnAeZQ7XaoYH417OJBdoQiWUr5LM7qiHX3cVlHRNsbuizO6revv4rKOiIaSAszuqBIGCyjoszusm6ydI6SbI6yMm6TbrJ0jCjircR5FGLsvt4HxD/shEhG7iOI77qZ4e8EYRzMvH3XfhivMJth1WuTYW2NLwMHjFbjYrzypRew2Og5mpTo0WFELzyagW7NFr+FfZ7QskX+pfEP519oBq9fawF2m3RBHjfMbgvtGAfiW69h0PcO17O27/MaPzXYRDvDKV7d4a8YEYq3AddxHByrssCjcNxlVeNo/Jb7a/iiBYQh/Os8IfVVO22QPDVf/lI3Sv6qn/iL/wDymrfiGIedE2R1kZN07jtJCQ1k6Q0kJO1m7SQkNZOj7GRC2jiPhfqnNc0w4zM8M8P+3ftNyHeGiDmZT91J4svTIMUkNNcFYEKx8wN6/hnDatnHwHFWHEwI3gfd3TDYO1jDhwC7OAXfhZcAq7TtfS9Xx4pVdm2pzXeadAju7UMNC1xr6psaDlPojEjPDGDijD2DYzEBu3hWqcyI2w8cOSZEilzy4VVqGwNsHgnwuMN/5zdpISGsnSGkhJ2s8w6ogEYLKeiBIICzDqt2+/gsp6J1vd1WYdUC28U4LKeiAcaHzWYdU4gHFZT0WYdUQCMFlPRAkEBZh1W7ffwWU9E63u6ppL7ERuWIw7wVYLoe1DkRZPVV2vY48ID4rNQtyOz6miumWj7Rt7F2EW4cPL7jh3IxPhQd4GE/pOm0Qmu+bAr+CjfvEL/ai49V2O0Mds+0eB/HQyiRRnwbqqm8lANewRjnqb1fEZ1VYm0M+hqizYmEf8RyLnElxxKLz/mPqm9vDD7OFVSGxrB8ooolnkKqF+EKNXwraQPB+qynosw6ogEYLKeiBIICzDqt2+/gsp6J1vd1WYdUC28U4LKeiAcaHzWYdU4gHFZT0WYdZN1k6R0k2R1kZN0m3WTpHSTZHWR9mz+lVsWT8m7+SFklrqY4rtIrLcHi5nD6K6MGn5xRfvezkOhuzWTgUIcU0icDz7992q3ozPoarM46BbsN51Xs9m/Vbuzgfyrg3ot6MB9VftXqrtq9Sro//UronqFz6Ls4hFByTon7m94iDGhC9rBiw/Vf4gN/EKL2UaG/R0qRmNeBz4SrDBJhurQd5kGHiePJMhQ8jBQK04Op8oqt4R//AC6J0a9rHHiqMis6qIRxuW0xKbtA2s26ydI6SbI6yMm6TyoEi4LMi1hqSsqq+4LMh2d9FlVH3FZkXNvBWVAE3hZllQJFwWZFrDUlZVV9wWZDs76LKqPuKzIubeCsqAJvCoTUaK+Cw/QJxhs7B/NuH1Cc0g1aaFBsdpfTiMVuRADydcZfE7yaKr2ezO1e6iviw4Y+VVjbS530V5e76q6CPret2EwfT3FqK6n6qxD3IXLmobo7bUMOvCESE8OY7Ahb8NjtWre2Zg/Dur2b40P61X8J+0XfheLkBtECFHHjhPoVWjh5OlaaOxi824KrGiM3mxUe0tPnIQ4LLTiqDeiuzOn+7Qj7Z+Y+EK3tDal2APBXBzNCm0il1r4aK3ssFkSC++hxVnbtliwCv4eMx/lWhQJFwWZFrDUlZVV9wWZDs76LKqPuKzIubeCsqAJvCzLLJ2khIaydIaSbJ2s3aSEhrJ0hpJsnazdpKsJxgOONBUdEXOZbheNipW2zkV7M0f4T7ysRwbqqbOKnxFF4bEinGtFD2p9IkR2FcGoxtloyNxbwciwg2fjhuVuA7VpxHubMaG13mQnQS2yxv+YcKKxAF/F3EzsM3toOA8KO1bTvVNb+JkScBemsb8ZpoFYbc1u6FZcA5vI3hVY0wXc2Ffw0YbVB8D8V2e1MfssXk8XJpaQRzEhrJ0hpJsnazwKsit9yxCtupQclgVZbjjesQt/jyWBVpml6xCsGtRyWBRcCKG9YhYFWRW+5YhW3UoOSwKstxxvWIW/x5LAq0zS9YhWDWo5LAouBFDesQsCrIrfcsQrbqUHJYFexb2EXm0XdEBEwOD24IM2n+pVF4728QB5q+LXQL2cNzvxKzAa7RgVraXtha3lVcwxnc3qyGgN5BbTsTq2WntIXm2VIoo8YPGIXaMrQYRGKxtzaf8Rv6q3CeHt5j3Zdd2xyN806LHJLa1ceaoLhLsGG85kdrijefczRFwIob1iFgVZFam5WY7GPHqu0/Zm0Gz/tuK7H9pQnQIvPgh2RqMa8CsQt/jyWBVpml6xCsGtRyWBRcCKG9YhYGTdZOkdJNkdZGTdJt1k6R0k2R1kZN0m3WTpHRGFHZaYVb2K1FbxYcysuqYfFvJB7DVp7t4BWRvRPbYbUt5J8HB8N3oe4HUvGBn5K0wdjE5twXabKS4c4Z/RWNvgmviaKFexjCvhNx9x2OzDtNqPDGyv4s1jOFSK3hQ4Y4C/WVf8AMdlQEQmxmeUA0UAwCbpNusnKxHYHj8kYn7NiuiQsTDK7PaPYRuTsE2R1kZN0nm9FatYXrL6qxSlVm9Fax4LL6rw0Wb0VnNxWX1VutKrN6KzZwuWX1Wb0Vq1hesvqrFKVWb0VrHgsvqvDRZvRWc3FZfVW60qs3orNnC5ZfVZvRWrWF6y+qsUpVZvRWseCy+q8NlOiw/8AENHLN5KjvsnY+SqLx377oUS46H3XtYbH/iCqIRhn5HL2W2RizwRN7umJGeGMHNWdiYdn2fjFfidFE2jPGHxvxJRjRb77TieMrTseA5oYuiOuATWh28b3mmJWb0Vmzhcsvqs3orVrC9ZfVWKUqs3orWbgvaQrMTxtxQbH/iNk4O5LtIEWvlS8Kzm4rL6q3WlVm9FZs4XLL6rN6SdpISGsnSGkmydrN2khIaydIaSbJ2s3aSEhrJ8nbTB+ycauHhRgPN4vb3+0GZn5INcfbQ7nefn9wD4jA5wwtX0VSbkIcH7Fhu+Y801nxYu1VYmbg1C6043NaFadQ7Q7E+HyCbJ2s3aSEhrJ7XtDmngV+9fskmvGErVLEVtz2HFsmydrPAKyQL7li5WxiFgFZdrcsXLc481gFadjhcsXKw2lAsArV9TesXLAKyQL7li5WxiFgFZdrcsXLc481gFadjhcsXKw2lAsArV9TesXLAKyQL7li5WxiFgFZdrcsXLc+LmsAndqKg7pCDof2Vasd+ibEbgR327Rs+Q//KJsaEd13Dl5fcHbJspqTncPyXaxqW+FfhVjZqHm9E13fieUXgl8U3Wz+ixcrDaUCwCtX1N6xcsArJAvuWLlbGIWAVl2tyxctzjzWAXbw/Y7S3B7eOvNDtM3GhuVhtKBYBWr6m9YuWAk3WTpHSTZHWTpN0m3WTpHSTZHWTpN0m3WTpHSTZHVRIL6bwu8iomybTuHhXvlkQVaVR1XbO/HzTYkJwcx2B98dl2F1XYPiDAKo9vH5/CE2Ey/yGA1TO1aI0XiXYdFRoAHII6ydJuk26ydI6SbI6ydJuk8EXAXhZlZfeCsFVlxWZHtL6LBWWXBZkHPF6wRANwWZYIuAvCzKy+8FYKrLisyPaX0WCssuCzIOeL1giAbgsywRcBeFmVl94KwVWXFZke0vorxT6qzDuCzIRXksj0pbC/hozYzfDWn5rs9sgOhvHJeziNPl3SyIKgqn2mzO4K3AdaHEcR7v20eG36rsdkJbB4ni5EbNCc/mcAre3kO5MaVZgMZDbyaEe0vosFZZcFmQc8XrBEA3BZlgi4C8LMrL7wVgqsuKzI9pfRYKyy4LMg54vWCIBuCzLCTtJCQ1k6Q0k2TtZu0kJDWTpDSTZO1m7SQkNZOkNJNk4Pa1wr8QqrUH2ET5cOi9m5kYcrX91Z2zZXQ/RZ7P4luxWdVukFWXtq1dt+z4hBHCq7Pbm9jF8XBVYQ4HiJ7z2j6q+PC/qV+0wv6lftLDpev4aE555uuCs27DfCxVLOzZ4olyb25dGPI3BBrGhrRgAENZOkNJNk7WbtJCQ1k6Q0k2TtZ5ndU2pOKyjoiWgA+SzO6qjrxTiso6Jtjd0WZ3Vb19/FZR0RDSQFmd1QJAwWUdFmd1Tak4rKOiJaAD5LM7qqOvFOKyjom2N3RZndVvX38VlHRENJAWZ3VAkDBZR0WZ3VNqTiso6IloAPkszuqo68U4rKOibY3dFmd1W9ffxWUdEQ0kBZndUCQMFlHRZj1QZFAewnB16+wsHmy5F2z7R9Ig/VbrbY5w3LLtDdWlXQor/8A9ZVNr/Zzj52C0r+Ch7Wxh4UKvbth+hV8LavVXwon8xV7YbdXLNA/qKviQB9SvbxXP8m3JrYENrB5DFZR0RLQAfJZndVR14pxWUdE2xu6LM7qt6+/iso6IhpICzO6oEgYLKOizO6ptScVlHREtAB8lmd1VHXinFZR0TbG7oszuq3r7+KyjoiGkgLM7qgSBgso6LM7rJusnSOkmyOsjJuk26ydI6SbI6yMm6TbrJ0jpJsjrIybpNusnSOkmy+sjJuk26ydI6SbI6yMm6TbrJ0jpJsjrIybp3HaSEhrJ0hpISdrN2khIaydIaSEnazdpISGsnSGkhJ2s3aSEhrJ0hoqX1/ChJ2s3aSEhrJ0hpISdrN2khIaydIaSEnazzDqiARgsp6IEggLMOq3b7+CynonW93VZh1QLbxTgsp6IBxofNZh1TiAcVlPRZh1RAIwWU9ECQQFmHVbt9/BZT0Tre7qsw6oFt4pwWU9EA40Pmsw6pxAOKynosw6ogEYLKeiBIICzDqt2+/gsp6J1vd1WYdUC28U4LKeiAcaHzWYdU4gHFZT0WYdUQCMFlPRAkEBZh1W7ffwWU9E63u6rMOqBbeKcFlcgHGh81mHVOIBxWU9FmHVEAjBZT0QJBAWYdVu338FlPROt7uqzDqgW3inBZT0QDjQ+azDqnEA4rKeizDqiARgsp6IEggLMOq3b7+CynonW93VZh1QLbxTgsp6IBxofNZh1TiAcVlPRZh1k3WTpHSTZHWRk3SbdZOkdJNkdZGTdJt1k6R0k2R1kZN0m3WTpHSTZHWRk3SbdZOkdJNkdZGTdJt1k6R0k2R1kZN0nlQJFwWZFrDUlZVV9wWZDs76LKqPuKzIubeCsqAJvCzLKgSLgsyLWGpKyqr7gsyHZ30WVUfcVmRc28FZUATeFmWVAkXBZkWsNSVlVX3BZkOzvosqo+4rMi5t4KyoAm8LMsqBIuCzItYakrKqvuCzIdnfRZVR9xWZFzbwVlQBN4WZZUCRcFmRaw1JWVVfcFmQ7O+iyqj7isyLm3grKgCbwsyyoEi4LMi1hqSsqq+4LMh2d9FlVH3FZkXNvBWVAE3hZllk7SQkNZOkNJNk7WbtJCQ1k6Q0k2TtZu0kJDWTpDSTZO1m7SQkNZOkNJNk7WbtJCQ1k6Q0k2TtZu0kJDWTpDSTZO1ngVZvvWIVp1KDksCqN9ViEbfHksCg5vqsQrLq1HJYFF1ResQsCrN96xCtOpQclgVRvqsQjb48lgUHN9ViFZdWo5LAouqL1iFgVZvvWIVp1KDksCqN9ViEbfHksCg5vqsQrLq1HJYFF1ResQsCrN96xCtOpQclgVRvqsQjb48lgUHN9ViFZdWo5LAouqL1iFgVZvvWIVp1KDksCqN9ViEbfHksCg5vqsQrLq1HJYFF1ResQsCrN96xCtOpQclgVRvqsQjb48lgUHN9ViFZdWo5LAouqL1iFgV//8QAKhAAAQIEBQUAAwEBAQAAAAAAAQARECExsUFRYaHwIHGBwfEwkdFA4VD/2gAIAQEAAT8hW5QubdEev3DkawuLw3qO5QubdEenoy4vDeo7lC5t0R6/cORrC4vDeo7lC5t0R6/cORrC4vCrLAAiScETKDkTmHYs7M90CHkiwXoi6IGLQD7oqNUnCYBIJYmhwBe0QxYyK9fuHI1hcXhvUdyhc26I9fuHI1hcXhvUfmoiABlOF90pyheQvmoU5AI+6VXqw9i+ajGDAAI+6UCuqmBfNVDJTr7pXzURAAynC+6U5QvIXzUKaghD6GH5KKGl8Ag/MGjuac1D5GqMBQlPioKf6M18RMIMp190r5qIgAZThfdKcoXkL5qFOQCPulV6sPYvmoxgwACPulArqpgXzVQyU6+6V81EQAMpwvulOULyF81CnIBH3Sq9WHsXzUYwYABH3SgV01E0w7siR3jMj/yjAewwKqArTBADIMO3uU4ssVy3i8ZI8xo4MiNEQUocxUKvVh7F81GMGAAR90oFdVMC+aqGSnX3SvmoiABlOF90pyheQvmoU5AI+6VXqw9i+ajGDAAI+6UCuqmBfNVDJTr7pXzYbNCyvDkaw9/roixtDYo7NCzuqmtScdTHap8QnVQNSe0CDhkyTKyeZOg7eIGT0S2RmExkiMSf9R8NDGTyIOAM5LHxHZoWV4cjWHv9dEWNobFHZoWV4cjWHv8AUN5RINRconyAZtI1ognqaWT2p9PLNAhNsm0IaQm2D+oZmYVhcAMMsEyAVkskzQuRuHVUqDPmScdEWNobFHZoWV4cjWHv9dEWNobF0LWsJsoLH6531gs3PRSC4Z1gsnNVSCt0zwWtYzxS1rCbKCB3oC5LIIWZg03GaFs8PA7rACgFAJAdIlRFRySX+wm2wZz2mwDBTBQaCJQgVWtYTZQWP1zvrBZueikFwzrBZOaqkFbpngtaxnilrWE2UFj9c76wWbnopBcM6wQSM9W+cghAucxyFmgTECa8JlNYvMZKoguAIHxZAdzNBP6fro7JtaTy3l/aqvv4hBZOaqkFbpngtaxnilrWE2UFj9c76wWbnopBcM6wWTmqpBW6Z4LWsZ+hLcoXNuiPX7hyNYXV4bxHckzRDpGPB7NmdVjC1fUACaTGiMqg7llL/iTsj0BRVhYoAAfMf0EZMMDPso/NWcRKFzboj1+4cjWF1eG8R3KFzbogJQsSRgip70EEggyPE5flILXoTz1RWTPUwQrG3jnGo44IWCw6E2eI9NfcXPIaKQg8JQw5GsLq8N4juULm3RHr9w5GsLq8N46NAmCcy+4jcpNAGkNMRlgBH3FRqx9kNFMQCPuIhHqIaABkQuYr7kNDqomRQ5rriApfMJB+CcZERIhZTDwFWh4hv0TYWahbBBnNPY9J0ENZL+kVwI2XMeEJnDGIFkBvCsdwi2nT9NQgVjcAUZmJoA0hpiMsAI+4qNWPshopiAR9xEI9RDQAMiFzFfchoEwTmX3EblJoA0hpjI2ATI2ZMOcD2wix1yRPojSP7lro0QpYpciQAKWLvss+5WK0/wBETky3HRHEXlxzdShTKBifuUixcnsIUxAI+4iEeohoAGRC5ivuQ0CYJzL7iNyk0AaQ0xGWAEfcVGrH2Q0UxAI+4iEeohoAGRC5ivuR3aoWV4cjWHv9dEWFobFF6YPb4jAX+GpW/oO5G5dnkqFDQZJ26AcGSOmjAru4UiCDoE0b3Fjtp0DFQGYNwU5qf0BDQIAAxEORrD3+uiLC0NijtULa8BYTB9GVOqVZz+1rrIf7lF3xQAMgmjEmiSmmkJv0ObFoeVL5nnth1yCKhO1Ec+ZDfAxRYWhsUdqhZXhyNYe/10RYWhsUeUlSQc4LrkAQQbFBlykpgbhZ6rkAW2WC5SUEllPmuQBOEDxouUlMBCMAy5AEIxm4SkEWlu2yh8MpJvPLl6qAIhsOsDSs4SVFWBx06FKaCWQYuxcJuw1Cx7KZUtUsx7TbgbkGKYG4Weq5AFtlguUlBJZT5rkAThA8aLlJTAQjAMuQBcpKZBicF1wAIaAPlnvZeUFXhgZjexHgC5SwVUtSv/Jbd4J6pQ8ZlAjckvfoLEyYNOgomTcDYIE3hPgN1yjfw0yRcyAG6l/1BJZT5rkAThA8aLlJTAQjAMuQBcpKkg5wXXIAgg2KDLlJTA3Cz1XIAtssFykoJLKfNcgCcIHjRcpKYCEYBlyALlJhuULm3RFfj7hyNYXF4b1CUJK0BVBUiPJ1Kr+ER0ZxQhOl/wDCDqmNhcoiSkGeoLhDJTiGPNC0FIIAyMK/H3DkawuLw3qJnMIAa9gVAKDU+cPCdZv4VJrmqgPUCf4EdcIYdE4yqrZVV5S9BGwqZZoQPBpN+GSxGfJKiQ816b/6jV8LIwSLAgJjEwyaiZGximcqejGZOCFP4kiFfsF0Rudz/SanVS+4xcXhvUdyhc26Ir8fcORrC4vDeujgwLBAEE1hoapYg0OGOUzjTQ13g70vDgApF4Y80NAgBmAMOEsiQJJCJAQTJZM2RHhIRphmNpYUbADL8crolAx3AO4T6HTOf1FcJ9zrHO/iBiRUIAXeDvS8OACkXhjzQ0CAGYAw4YyiAlwvGtCMqd4Q7D+pzG+UOwWE6OMrDPqDqioah/CGwYn2qhfbVVuoOhnt9WR0h8odfHgBPvn+Krbdy3DgvBd+AivhRJQFm3imf7JTVF7minbwCN34EglhQXAEiBm6FgANGgQU0yXSYYFaSECAGYAw4SyJAkkR1wYFggCCaw0NUsQaHDHKZxpoa7wd6XhwAUi8MeaGgQAzAGHCWRIEkjo1zaIWV4cjWHt6IsbQ2ZScPHDEoHTsCpxEzmxP5aUYwbQPDn7ugSTRzqDDUJyx8j7DopgYmJ06IAsQ/bsm43yKDyhyRgKh/ZTgAwm3QgEcAZaIkxwiazQ0MjOpfumgzMkRbUU37WC7Mie6pAtAA9oQuf4FUMo8vC4qDnimr99I+AHIeENYLOMWH4JO4iaGgbCroBMBqZWNobNHaIWV4cjWHt6IsbQ2bo3aFzboj19AXd4b0mOLiZ3/AOlPEkP34lD8tfxGpe3keBRkW6AWXhmMWfZCGNjbQU8ACwtIQSXANQP7R68YeoZAA8W7P6mhwGpsnkwkMhIdVvpynZn99DnMpmyTpyanNQUuuUpAWB3DZAkgDoMgPxz+kzB4gSDuOoUKdwjgu7w3KO7QubdEevoC7vDcujRJIkgADWHgYhiQ0NGAAwYc00Pd4M1ENGATKPNDwxGUTQ0Y3NCVct0M1+0JWUZ6sX52lthsxQqYlPlHTaibZ0DuGiEZ+AedexTLPZMP0tO8i3+ISohcg9t+yEsRgpQtiIEihYg0gNXdAggEEEg4ImD0YoBmjCEGEyjzQ8MRlE0NFAgSIIEfaJJEkAAaw8DEMSGhowAGDDmmh7vBmohowCZR5oeGIyiaGigQJEEDo9raoWF+iPb0RY2g6qodgTSXH5sN/wDAPHS0hRHlbADk65ugAcSLMIGOAGOH+U8wZosCMARXuuxEGpGQ6XGZ9iAnL+wcjGYO6rMaK7hCxtDYo7VCwv0R7eiLG0NijyEJkORyXwXICsKggy5CEUjeDPWa5AVvlguQhBMdwu1ZLkBQgcEXXIQi4IB+5QCGAnT6/wAALF0VnYw9wQKbWdj10IDMhJ9QjMFMCl9LFv8AKaEqpIoO8asrSJNWjqi1aGqcPnAh0w2D+k0Mh3C7VkuQFCBwRdchCZDgYhsVyArkITIcjkvguQFYVBBlyEIpG8Ges1yArfLBchCCY7hdqyXIChA4IuuQhMhwMQ2K5AVyEQ3KFzboj1+4cjWFxeDRl2DwGQcwJf2f5/hbcV86k9Bc7u2H4KGnVIwGCCnb/OkawP0gOlQ9ByKc0YObIqbLFl5Mn4R/HZcjWFxeG9R3KFzboj1+4cjWFxeG9R+aiIAGU4X3SnKF5C+ahTkAj7pVerD2L5qMYMAAj7pQK6qYEWAafRNF/XKZDCz/AIXTxAO+CPJU9tR+EsFCqKhUjLBV4f5qFDHNQLhGcyZAZIIHTEMQCCKlmDZl/wBIxgwAAR90oFdVMC+aqGSnX3SvmoiABlOF90pyheQvmoU5AI+6VXqw9i+ajGDAAI+6UCuqmBfNVDJTr7pXzYbNCyvDkaw9/roixsjA/wCYHQMsyy0xAbf4RIhAAf4BRDE9/wDwKJzmOVi/iZykh2AKdgfskgboPARtAwsbQ2KOzQsrw5GsPf66IsbQ2LoWtYTZQWP1zvrBZueikFwzrBZOaqkFbpnX16hOlgN1U7/45GT4j/8Ag0UQDMIrqnZgTSbSr4uhZ2bFGD5QVumdBByI+KYtaxnilrWE2UFj9c76wWbnopBcM6wWTmqpBW6Z4LWsZ+hLcoXNuiPX7hyNYXV1y+Sbpyn/ABtZ4LqYnJv/AAiczHI5I7vK/o8Jx9BQ8Paqy5Xvjurq6MQcXreI7lC5t0R6/cORrC6vDeOjQJgnMvuI3KTQBpDTEZYAR9xUasfZDRTEAj7iIR6hCiAaPd/koJuZ3VNyb/w5WIk65pweXNgTBRxMkgzZNbBApiUrQCXyCAAZELmK+5DQJgnMvuI3KTQBpDTEZYAR9xUasfZDRTEAj7iIR6iGgAZELmK+5HdqhZXhyNYe/wBdEWFkw2d79FI5Vj+B2t+KbkzQ6AI2/wDDBhCh80IQMDWKhkHjE1WRqMHyOjEuxRhhmQ5inorYo7VCyvDkaw9/roiwtDYo8pKkg5wXXIAgg2KDLlJTA3Cz1XIAtssFykoJLKfNcgCcIHjRUNkGqMN8yjU/gO87dmpqkvw5TTCq/jMc8RkRbS2SGOodYmcUABYpMH+MlU8aM0HVgBGXcmPkpAbFBaTxxNBEIWoBqhEZ+XMpg3TAQjAMuQBcpKkg5wXXIAgg2KDLlJTA3Cz1XIAtssFykoJLKfNcgCcIHjRcpKYCEYBlyALlJhuULm3RFfj7hyNYXF1qQGVcw9kqfgIOiK3tUER+CJGdMVLIkZmgRqfxUk2Ao8qcaOiHhTPPLSycedSMftW3QZR0dnH/AMIEIKT7+JhrMAUigSeZOCPuExLPIinjHb703W5R3KFzboivx9w5GsLi8N66ODAsEAQTWGhqliDQ4Y5TONNDXeDvS8OACkXhjzQ0CAGYAw8envxuQqACPkfgziMHfBOpYpcyxH4BljMeYU7NN8/i7zGMOXdSsbOQH9U2ktQf87aCpEigPsn9inhGuDBiUEP36o5ErN9CSMJ7ZiOuDAsEAQTWGhqliDQ4Y5TONNDXeDvS8OACkXhjzQ0CAGYAw4SyJAkkdGubRCyvDkaw9vRFjaBnuH9yPeXLrjx+ClFOp/kxShsTGx1zTkHmwRhxiu7YfhGa0u+CIHFYpokg/wBJadDNkFjfQoUklgGGnZGSZx7H6WuT+pIjtELK8ORrD29EWNobN0btC5t0R6+gLu8GFFVOv/RPSZiEaH8IAQx/VE7s2PoIXkNwUPSQj9jlJ0NzrLRSoAwH4TjhBghmOZKIEeySsoVagoB8H7P8ZFthOSgFy4vIIO7m36CopiLDMRxA3D9ckUviaz0nux3aFzboj19AXd4bl0aJJEkAAaw8DEMSGhowAGDDmmh7vBmohowCZR5oeGIyiaGiB6mLaH8T9mb8hRD8LDWLys0KGETqCTuRyGX7Q9xegUxyRUHkCfgQY5Kcg6CRS8hZ/iYprZ7AHRLzxMJTkZTsfE5TgLjS7wE7jeiMIvjAmbcxSD/CQmyz9AqGwzsCALDkkEOCgjyCpFkKAfDkkNcfaJJEkAAaw8DEMSGhowAGDDmmh7vBmohowCZR5oeGIyiaGigQJEEDo9raoWF+iPb0RY2hKL0SSPkcT2xWRT8IABAMQcQmmxlwRiyOiZpgmxYnsU4J0AWVLJ71mOgugKG0Kn8bpOl+0XIkw5ooxX3gQuryR75AoamjqZBCiI4nMiTATnCAxXiEyJsvYiARi0oH81P7d4RAV03ho6J2Zgoha0asqmnfucdqhYX6I9vRFjaGxR5CEyHI5L4LkBWFQQZchCKRvBnrNcgK3ywXIQgmO4XaslyAoQOCLrkITIYDEMm2hQMS2u9J+IGJGJQhFhSQDU/QVMCZEx3CAu5J+V7sxtSFsQnvw4Rm2NTEamI7ihjGgxPEuOd5R0A8jNEyz7KXSDpnQp6plS9J1CfsaH8uJwn2CkqEu0UiIkYF2IndhPl1NSYu5KEJgE1spLkBXIQmQ5HJfBcgKwqCDLkIRSN4M9ZrkBW+WC5CEEx3C7VkuQFCBwRdchCZDgYhsVyArkIhuULm3RHr9w5GsLi8N6THd1qJwlQz/wBH8d0JkcxKYkJijTxCmK1x/wATFFQTY5mmqMA6V5coOgIAYBYEikKhl/QhOYXbSxkWn5KpyGWq9ZYREWNEg8yWWWVTriF4ElvUdyhc26I9fuHI1hcXhvUfmoiABlOF90pyheQvmoU5AI+6VXqw9i+ajGDAAI+6UCuqmBfNVDJToqz5Ua5/tHISRhaUKlUFx+RmFs3NV/zidJ9l3g1ZDCDZFH7QYYOJToH1/sU0aIMDUKJ+zA5lgIIcIj9NQN40VWpINxqhJgHAY9QBLnYse/QwCVAcpqm0VN+hkzIeAUoSJkhArMB5KoZKdfdK+aiIAGU4X3SnKF5C+ahTkAj7pVerD2L5qMYMAAj7pQK6qYF81UMlOvulfNhs0LK8ORrD3+uiLG0NihZmQf6E/HdRgfycHnVT8eS/KtoD/UZbx3WRMgzt/wAqQEAMkneE6RRwGQybPdKnzBwepXJii7x/EQYQaIzoNCTGqd4lOLJYt0nO0avE+jPQs+UzOgidpnoeu4R3T/xVQsAAZoIGrOqorYo7NCyvDkaw9/roixtDYuha1hNlBY/XO+sFm56KQXDOsFk5qqQVumeC1rGeCfimdwBQpmpOJ2Cp/fx+HNjW4/K5zKcp9T069ICtXuLwenENQt0bsxWDJY9HZGNujvwHwn24EeGiUJji7BEp2ZJjgM+GC1rGeKWtYTZQWP1zvrBZueikFwzrBZOaqkFbpngtaxn6Etyhc26I9fuHI1hdXhvEaiDJwwFNz6e1wH8bXFAg+1ocH9j/ACAOUKlJRWDY9JRCNpOBdmHMZegg+QOgzDyo7oVFN8CDqRQb+iwGRtMmA2grDeI7lC5t0R6/cORrC6vDeOjQJgnMvuI3KTQBpDTEZYAR9xUasfZDRTEAj7iIR6iGgAZELmK+5DTAAtQmhJbXCaCPUfi7Rv7L+LUYR69f5Oyxkbdn/XWYhITmvMaIZAEiRbuCOqKCw3LNMQmLaegRekn5gCyeAAI5ySnbBYKvkjqERlSSQINz94YaABkQuYr7kNAmCcy+4jcpNAGkNMRlgBH3FRqx9kNFMQCPuIhHqIaABkQuYr7kd2qFleHI1h7/AF0RYWhsUdqWCqJ0sUI6MCZ/xBSrlr4P8day/BrflPU/PQIDvLjtV6pMohh1ITJ0El5JkM4JGTG1R8ILCGA6Gk2P+oObhtj9HiAmlv0mCY87c0E1ZWhsUdqhZXhyNYe/10RYWhsUeUlSQc4LrkAQQbFBlykpgbhZ6rkAW2WC5SUEllPmuQBOEDxouUlMBCMAy5AFykqSDnBdcgCOak+JZdE8GVJk/C4wQTjiYS3XqL9EY2Q9Ibv1e1IgisuwCscd8FVijAcwGhRlWBfCuq5ZEoVpS+UiYDGLsESVDzsc2T9AZHDumiP/AHoYlCoQl2AEwNJIzLnpCdkFCBsFydESdz+1KcQWsIBKQH4T2KldyWTpA6mi5SUwEIwDLkAXKSpIOcF1yAIINigy5SUwNws9VyALbLBcpKCSynzXIAnCB40XKSmAhGAZcgC5SYblC5t0RX4+4cjWFxeG9R3KDUQpImCGVUNL6pfRpify/AKrAIEAdjLb8eot1kCrRiT7jOKLjktR/F4LRf1YFc5bLtRBcFXIyDD+kyw5aBP+sPtCGvAyhqiuP4Y5dBSoyNn/AMIBAKnLRGpanVrNZB3E+UydzNHIYBY4aIVEzomPZTzQAjgzhvUdyhc26Ir8fcORrC4vDeujgwLBAEE1hoapYg0OGOUzjTQ13g70vDgApF4Y80NAgBmAMOEsiQJJEdcGBYIAgmsNDULEGQqSAxI8mh0ka8ZDLOqx6QGJ5H8AAWACTJVYA+f4WkL0Op73xN/xCZKDVQuepGmVjp8BkFLp5zRbx1VAQBywqnXWJyoMlrFoGDrUz5IMQAoh4ie3wGRsE+Ms+k2M9PekcFNESAEGyDlgFXdO2QdpkVNIMw09ETpaznoIwRLKIHLQVqJBhDNwTBEy/aHukQqwwEYUMYkZmmh7vB3peHABSLwx5oaBADMAYcJZEgSSOjXNohZXhyNYe3oixtDZo7RCyvAg9hwFjnBONYZVtcXhPgqMRyPW8xcv9gn57gP8gJFKJ9/XZRVIE4eoZDwu2Bap2qCbiAlAoJrrO6wZDNKLidYoneSepXdntOZDuD/UERLdxHk5HlOtkD1gbYlIGfAAB+kRYzokoyLGFJiqaHYBIaEd4GpGoyTGz4KGrmglDUJrl2Znuho0HASqqXAxRUAkHQbJ+58v/E15nCsbnapLxWGIkwM4AFl7eiLG0Nm6N2hc26I9fQF3eG5R3aFzaIAtRGF0Ac/WIuF57kdQz1dXh9EOhneVgplwXH+Vpw5v1xQF1lnkHQCYQpviaWExIFnnC2KdKac5n9wZY61CW75UuIH+oKaWRyee6EG3AIeQa2Wy9XpOEPITgmp4gqrqArBVhjNgCLKPmBQQFjXYIFqsZUIcmmO4+I7tC5t0R6+gLu8Ny6NEkiSAANYeBiGJDQ0YADBhzTQ93gzUQ0YBMo80PDEZRNDRQIEiCBH2iSRJAAGsPAxDEhoaMABgw5poe7gZqEJq2ADyZaJtPD+WSsjio6V+QsWeXuKQ7CNEYBGa/uCmE4a8WSZjP87sitR+kxyP6iEwE2DujNEtj/qL1DgEnygxbB2XZB2lQoXkHbUeejspIck4o43iRACLy2Rpl3FMLdHn6CeSDLF8BFpI5C5KdFDgDQKrXuL2HhafxQ5YFk1zVTco9MCJBEtrwY+0SSJIAA1h4GIYkNDRgAMGHNND3eDNRDRgEyjzQ8MRlE0NFAgSIIHR7W1QsL9Ee3oixtDYo7VCwv0R7YwQ9UFgjYP4iYARTcz+8joyXhN6FCZbzSR7yKmOWrlORTTEZ0kAMAMXmaMjPqkOYDMmWKHgkqCakKq6gm1fWaMZAgoB+gjsiD0FhQeSIcVWb1FCFlBw4DZl6EwlJMDijbXgewH6QwNSklNIyOjZ4KJRGYQNMAMRZg4QE3m+IGTQJmpMR0zZ4AxJQsGB7Sfa8OSAbo7kDbEEkwAmEloWXQCwEMcC+K9lEO8dqhYX6I9vRFjaGxR5CEyHI5L4LkBWFQQZchCKRvBnrNcgK3ywXIQgmO4XaslyAoQOCLrkITIcDENiuQFchCZDkcl8FyArCoIMuQhFI3gz1muQFb5YLkIRUdwu1ZLkBQicEXXIQmQ4GIbFFARMC5MGBaqBQbqsfY9INIWQUBGqGVKDIzhYgghSxiZklK+2YfpDmyM4lEtxcYlVatWKtnvKbXYp2pLsn6fCayHAY9ifnMoZ9yPPHHPCC6aYkmt26KuzbFNiGghuEQcYZj2Nl4IcLUFMHbRivifdFU3cJ5BOJP8ASPxLgLGBl2Ww1KJTDBddBpB1IcQUHcw7qRftEzRbeu6ENYOYwzQsfNO7B2cFB2foD7FkxgkfgFimYxHJcUXICsCogy5CEUjeDPWa5AVvlguQhBMdwu1ZLkBQgcEXXIQmQ4GIbFcgK5CIblC5t0R6/cORrC4vDeo7lC5t0R6/cORrC4vDeo7siRDEuNVWVMAH2KUkaw84hMhM8d27FNL9t/8AVN/7+LFhVGgMMyFnTFIdkDWASAjIIZ81Yfw5oeJ2J/Eqar2kn/hQG7LLeH4DEbIaZI8p+Hp7BmqvqvFPmBtDUUbMkYN0jMzmiNsJxT5TMt9MwNixkBIINEh7C8DatkKJC/A8+imhjIkbqhGCN2I4Ms+iPX7hyNYXF4b1H5qIgAZThfdKcoXkL5qFOQCPulV6sPYvmoxgwACPulArqpgXzVQyU6+6V81EQAMpwvulOULyF81CnIBH3Sq9WHsXzUYwYABH3SgV1UwL5qoZKdfdK+aiIAGU4X3SnKF5CJgxODgwTgWYO1HkncFM7zms8DAajuiAiglCMeoC+ekpYWRCqnOZMEWegeIpmDDmX3YEl+lIqzMsFX6GwJhDj3sZpzwmyfnJAw60YkexDhXxX/BhF3JSTz7uyHnbnU8lIAAADADCAs2RjAZI1htpqZ/KoZKdfdK+aiCwMk6yjoS7OxwRUcCZkt5FCgClJMizAkr3BoQvulV6sPYvmoxgwACPulArqpgXzVQyU6+6V82GzQsrw5GsPf66IsbQ2KOzQsrw5GsPf66IsbQ2KOzQsrw5GqBIrQULGnSwIajPsmrumJXsTYvyPSSbgF8GpiMAHMpL8CEz/wBOglICcMQRIBBBAJVBoU4FGwJvCYh/0IGsyuwChM6qGVes2wlGBndqhxffC5zA5IQA37mKBBLQH2iV0NLl5QWg7AoBktijs0LK6yjy9ew4IjWeKFu1CmrtyMgj3w8o3eKT9dEWNobF0LWsJsoLH6531gs3PRSC4Z1gsnNVSCt0zwWtYzxS1rCbKCx+ud9YLNz0UguGdYLJzVUgrdM8FrWM8UtawmygsfrnfWCzc9FILgmm8XxBFHNrqpoySW5BgEcDg59QkQUIb3el/wAD+IY3bUrUABAmHlNA/vpx40EianQbdgh9DaU4tEYIiuHZIoqnksIgCrKyejcyKQ2tYzxS1rCbKCx+ud9YLPzUURQcqNJ/UzcvyjPywQAyYkwuqyM1VIK3TPBa1jP0JblC5t0R6/cORrC6vDeI7lC5t0R6/cORrC6vDeI7lC5t0RX4e4HB3bXEceyz4EOWXW0hzdUEKZaxDD/A0xCzsCIMWAB3NAjuotlD7hjUfU5UzMpmTk52ClleXg4TVxeG8R3KFzbohh0DgcFMbgLvyPZM8YOLH8hdXhvHRoEwTmX3EblJoA0hpiMsAI+4qNWPshopiAR9xEI9RDQAMiFzFfchoEwTmX3EblJoA0hpiMsAI+4qNWPshopiAR9xEI9RDQAMiFzFfchoEwTmX3EblJoA0hpiMsAI+4p4qxdkNZAQMgQgNF/9Ysa5NkcR1d5jHVBW2cDBsTTqoE8R5v8AA4VjU/YgYUOFH/SdS4Bc9ECDAOXH9U5zUADCxfcRCPUQ0ADIhcxX3IaBME5l9xG5SaANIaYjLACPuKjVj7F81DJgUwH6DgVYhhPO0RCPUQ0ADIhcxX3I7tULK8ORrD3+uiLC0NijtULK8ORrD3+uiLC0NijtULK8ORrD3+owCaZcR2Ch3zHck/8ACiG6mtg/RzRRhqGDMaoGQnB+aTosw8AKMgbHYXTNDzLzTYWaFAvo3DsmmShhGLC0NijtULK8ORrD3+uiLC0NijykqSDnBdcgCCDYoMuUlMDcLPVcgC2ywXKSgksp81yAJwgeNFykpgIRgGXIAuUlSQc4LrkAQQbFBlykpgbhZ6rkAW2WC5SUEllPmuQBOEDxouUlMBCMAy5AFykqSDnBdcgCCDYoMuUlMDcLPVcgC2ywT6EGZJBJJD5rkAQTMYyQZOE4kVoTh8SboGK5CHpCnM6mO6IIqG6Ap/2hqEdznTKh7ZFCo5B/VH4hMyTwWWoLj+k69rP+AQg0KEnuTJaPMs3ky2Wg8iH7591tlguUlBJZT5rkAThA8aLlJTAQjAMuQBcpKkg5wXXIAgg2KDLlJTA3Cz1XIAtssFykoJLKfNcgCcIHjRcpKYCEYBlyALlJhuULm3RFfj7hyNYXF4b1HcoXNuiK/H3DkawuLw3qO5QubdEV+PuHI1hcXg7aSQEKl03n9PCIY0yf6oCLjQsX9nqmtyPEAgLlhDE4HQuil5YEKsoHKqeTpFk/jBClKxXCdkU7GXdbmQoW47aUGTExKjASSfxxzBAWu8Ft098Yze2VXBlCyCOtmYDsIxX4+4cjWFxeG9R3KFzboivx9w5GsLi8N66ODAsEAQTWGhqliDQ4Y5TONNDXeDvS8OACkXhjzQ0CAGYAw4SyJAkkR1wYFggCCaw0NUsQaHDHKZxpoa7wd6XhwAUi8MeaGgQAzAGHCWRIEkiOuDAsEAQTWGhqliDQ4Y5TONNDXeDvS8OACkXhjzQ0CAGYAw4SyJAkkR144CQ42HwU8lh8WXxTZEngDO7P4nYs+Y2rsiDdh/Aj6IMzek1l5v3jICsjpgIcEaid1lz7sXW3T+nQUZRnyCJkzN70jAOjjf2nWeANbuOMNDULEGhwxymcaaGu8Hel4cAFIvDHmhoEAMwBhwlkSBJIjrgwLBAEE1hoapYg0OGOUzjTQ13g70vDgApF4Y80NAgBmAMOEsiQJJHRrm0Qsrw5GsPb0RY2hs0dohZXhyNYe3oixtDZo7RCyvDkaw9vRFjaGzR2iFleBVDAZA805NVUgs7Q2SO1Qsrw5GsPb0RY2hs0dohZXhyNYe3oixtDZujdoXNuiPX0Bd3huUd2hc26I9fQF3eG5R3aFzboj19AXd4blHdoXNuiPXEJueGRK7vDco7tC5t0R6+gLu8Nyju0Lm3RHr6Au7w3Lo0SSJIAA1h4GIYkNDRgAMGHNND3eDNRDRgEyjzQ8MRlE0NFAgSIIEfaJJEkAAaw8DEMSGhowAGDDmmh7vBmohowCZR5oeGIyiaGigQJEECPtEkiSAANYeBiGJDQ0YADBhzTQ93gzUQ0YBMo80PDEZRNDRQIEiCBH2iSRJAAGsPAxDEhoaMABgw5poe7wZqIaMImUeZfCKGIyiaGigQJEECPtEkiSAANYeBiGJDQ0YADBhzTQ93gzUQ0YBMo80PDEZRNDRQIEiCBH2iSRJAAGsPAxDEhoaMABgw5poe7wZqIaMAmUeaHhiMomhooECRBA6Pa2qFhfoj29EWNobFHaoWF+iPb0RY2hsUdqhYX6I9vRFjaGxR2qFhfoj29EWNobFHaoWF+iPb0RY2hsUdqhYX6I9vRFjaGxR5CEyHI5L4LkBWFQQZchCKRvBnrNcgK3ywXIQgmO4XaslyAoQOCLrkITIcDENiuQFchCZDkcl8FyArCoIMuQhFI3gz1muQFb5YLkIQTHcLtWS5AUIHBF1yEJkOBiGxXICuQhMhyOS+C5AVhUEGXIQikbwZ6zXICt8sFyEIJjuF2rJcgKEDgi65CEyHAxDYrkBXIQmQ5HJfBcgKwqCDLkIRSN4M9ZrkBW+WC5CEEx3C7VkuQFCBwRdchCZDgYhsVyArkITIcjkvguQFYVBBlyEIpG8Ges1yArfLBchCCY7hdqyXIChA4IuuQhMhwMQ2K5AVyEJkORyXwXICsKggy5CEUjeDPWa5AVvlguQhBMdwu1ZLkBQgcEXXIQmQ4GIbFcgK5CIblC5t0R6/cORrC4vDeo7lC5t0R6/cORrC4vDeo7lC5t0R6/cORrC4vDeo7lC5t0R6/cORrC4vDeo7lC5t0R6/cORrC4vDeo7lC5t0R6/cORrC4vDeuhTIA4WDr7pQoYnJQKOdggun3SpdTBApDJADMn3ShYRVGSgoKMOK+6YKZAHCwdfdKFDE5KBRzsEF0+6VLqYIFIZIAZk+6ULCKoyUFBRhxX3TBTIA4WDr7pQoYnJQKOdggun3SpdTBApDJADMn3ShYRVGSgoKMOK+6YKZAHCwdfdKFDE5KBRzsEF0+6VLqYIFIZIAZk+6ULCKoyUFBRhxX3TBTIA4WDr7pQoYnJQKOdggun3SpdTBApDJADMn3ShYRVGSgoKMOK+6YKZAHCwdfdKFDE5KBRzsEF0+6VLqYIFIZIAZk+6ULCKoyUFBRhxX3TBf/2gAMAwEAAgADAAAAEJKJPNLIOHEGEMFFJKJPNLIOHEHOPHF7nhvNLIOHEHOPGFMBMFMBIBIGHlrpRyTMFMBIBIGIOJPJfErinBIBIGIOIGAGALILMPILNBNfYGPoEZLMPILNGFGGL9KEP70HILNGFGNOFGPJJNMIJINIMFj2gY8AvMIJIMGDsRIT+Gd/y4JIMGGOMEGEMIIJMMIIJBvv/wD8oKmLnjCCDkuZZbnx2fBrtyiDBBBjDBBDCizjyyyj4X//AP8A/wApImApBQLhKA6HXQQCd/jSyjxRzTxxxTwwghghgjJ//wD/AP8A+/QEHX/oEEEEEEHHVxb3OhhwwwQSQSSwwghgwwhiT/8A/wD/AP8A/wBqQQZ8jQQQQQQQQUTw7NCCDBBJDDBBDELFPEONVv8A/wD/AP8A/wDsCBBBxKBBBBBBBBBBvDc4Io0I8o0gUAYIYMcIT2//AP8A/wD/AP6+wQQQQQQQQQQQQQQUaVAGDJBJDLBJDOCPDOCOH/8A/wD7/wD/AP8AWBBBBBFLBBBBBBBBBRDYwckUsckUk8YYYMMYv2//AP0//wD+70EEEE+kQsEEEEEEEHeq0gySSQwyQQwghwwgjl7/AP8A8df/APgsEEF9f3GGEEEEEEEG80U4wQSwwQQQyDCDTDTTn/8A/wCs0vLIQQQZBr19AwQQQQQQTacAcEMEOMOGMMIJIIIMC/8A/wD/AEvHMAQQQfiDnQCGwQQQQQdXJycMEGEEEMMJKJPNLICV/wD/AP8AzOgQQQQQWQsvXHvwQRQV3/L6OHEHOPGFMBMFMBIBNKf/AP8A/rWBBBBBT42pr8swHBWJGc4dMgYg4gYAYAsgsw8gs0n6/wD/AP8ArBBBBBBBBBBk88J/ghvY+cs0YUY04UY8kk0wgkgwIa//AP8A98EEGfaYAoFKDTwzeMHnCU6DBhjjBBhDCCCTDCCDBAV//wD/AIqAQYXUrTDSS1MKBqATEnpoNFEGMMEEMKLOPLLKPFHGrt//AI8EEEEEEEFFRKVxRHsdu0J4ySwTxxxTwwghghhwwwQRTkYryIEEVEkH+M5LWI4ABiuwpswwQSQSSwwghgwwggwQSQwwRRgD8YUkHUUkOMf++yEFg/yxigSQwwQQxCxTxDgCjQjyjSBRCyA2EEH9mU37dPr/AP8AqJb6KBOGLNIFAGCGDHCGDJBJDLBJGCGGJjQQTHf/AP8Atv8A/wBr2PXgyQQQywSQzgjwzgjhyRSxyRSTgjxyj8UkO7X/AP8A/wD/AKrp3I4ckUscEUk8YYYMMYIMkkkMMkEYYYMmYj0r5Jr165GoosMYIMkkkMMkEMIIcMIIIMEEsMEEEIIcMIIIMWjleoTXrIcMIIIMEEsMEEEMgwg0w0kwQwQ4w4Ygwg0w0kwQwQ4l4Ygwg0w0kwQwQ4w4YwwgkgggwwwQYQQQwwgkgggwwwQYQQQwwgkgggwwwQYQQQwwsss48os8ccc08Ucsss48os8ccc08Ucsss48os8ccc08Uc8//xAAqEQEAAgECBQQCAgMBAAAAAAABABExIUEQIEBRcTBhgZGh0bHhUMHwYP/aAAgBAwEBPxDraJ6wfTaZavaau0OnC9CMLa9pgBMIQMr4ZUCn1gGssrW7mCrP+BBKgkgzrpt9/wDEW1V7TctXn+o5oV7wQWSqZd/VKBehC3RFAtisfjxxxnpanCaxdh2ELocBKFyxZr29oaSx9L40doIDQa8O1BjhaDxK/ivOl9jyuRBKZqP2PZ9C4ERUEAWfBl/UHsnZ+4vNHzANRJUqg8H9wTc8H9QlSp/3eUf5Kh2n3UByI8/Jj0dfBCjmsyZbJo8pRdpd0V1fwQGjADZG9pmWeNP3MuPz/Uorrm6g/wC7y1RUzQR44Q0jo9NXoPx/y412PHQXDArQ9EWhc9ue3DwAsjMvR0L0L68msIDucjjcI2f36Z2ue829wrFjr0WphonoUEY13s8oVode8QxZJh6OjoUd5hiJTXRflekbbx0R1XffolQmHJrzkWa3feW7NET/AG5nofiadQ/Z6KW7YHBtBGY/iuhGm5QvIk35hGnG+d5rjfXkAK2nwCSsFHqCYywKTa/EMTv0NKduQUUaLWB2MAtZeGP55WhmVQw2pvr8k2w/7xHqNQBas9AGcQZGIR3ivoaheWRs0TDEOke/eD66p5gBRy+ExnKmKar4Nfhi9PsYHSeEVtw7s9uetODgdSe/HQ1MGvKbQuVNg9BQ1Zug7Ee6IYODloJBv3M8rpPeDhpdk/no9GcnM/sObbo8MXwonNZgsr3txJwI8L5Fw8YcdAbq/g6PXtoIlnL5lXpCypaPbjcTG8v3ZEDZu/rgxXu8GM7wFBg0+uksPo5TQe5ydhMgP0/qd9/1MMPuXwVtrzpKRgeRUpU7TXjV7ueBsPvw002xFbfSCjZB3g5EodmK9TlQczBn1Ktb+Czu/wAlxUoj2/TBQoHK/wBXyazk8EBbMuX8T2JQhHuNjpUdwLgeJKo6ZvSE0LIVODFmZZhlPKjqbfc0pLBmCFG1NFTW70y401Jvd+eEM9pBN778hu6mDfuI4b8XLMj4l+F+P3Ksr8S2/wBUJBoQSKYgd4+K5uLJGEWK6O3VI2VLtD8n6mxP2im7PlZgD9TCHEC1NoyFvWAE7Upg5SjEVShUIztQNbxJVo6y7M7Ue3ErMP8AvMQNC9tIGWOoSBoY6iBmYFxwqaEu0Id27md+HPXEm1IBHjrJklS+RDmU2hwC5xNTrQgF36RFudfqnD/PI25vxBHmue5rug09Hfdi3r/gco0jv9H6mJ+2kaKuyN5eyBlO8R3lIjaKz/hxEy59zWNT8fqWdouwl+0X/Fib/wDr/wD/xAAqEQEAAgADBgcBAQEBAAAAAAABABEhMUEQQFFhcYEgMJGhscHR4fBQYP/aAAgBAgEBPxDfXaUSvPoZ92PCBxVb7Q0q7d3UC2O1W8dP7M0+2HxE8f5+ZjncH5AzWec/WgnDwyP9rAcvsYqtjKyVLN2eJgww1YZgjnn6TD4+n9l0Qcs/SM6FMurw1NJebqcPMUMWJaYffnEdIBGZn125m6gPhh+9pQjepiu2XEVkyNWl49YlOkgJf7PXEcPINtQXE4HvsxnxzdNlV536R2O2g7rTg8NzA7jczZcPrzgpOvLwgWURGnfNgH7EKDxXfoGRMqV6H7L2kf8AcriVTV4r/IZLrn+zLQ5M67QX9VytVdh/ZbkwbZujForbfFikv9TE2euM4wUn82AWB/uEPhdzfyN3Zy09IoU5TG4JkC9S+2BMCEchPuDNBOv6TWq/3D8jrEisxmcbbhlueT5C9TP467fUAcYNbxBmddYhfkr408omA2cf2W5sYiZwmQ3Ox+QxbZOERjR23l/HrMDK1fj88u2YjUmrGJh3NitfIVNytGjwDWJEVuflmu/z3SAzI+Sb6jcW1Tn+wbxNyzvKWH13J0Bqsr1NyyMfA4KeAjp4J4af2wpi+F1/WZIR0v7mEgej6PkhQWF1x4EQzUw0JRasne9NyNKeAVXERp20pLQZGHp4GLOYOxnm/wC9iNGt8sUKjpmBgdZTQcufOK3nW40eCysiEynH9i5iCWiOi4/aLePgIssrGeazJPsX+TKheh+wS2exlGKfI1wM+kIjQQWM8U7Q3HAHw44Sxzhrf7ldLhLVD0xl4LfCAdWj7+opVx6PZg1jXBL9yYk/YZ6s3T2JSDvrLZnof3x3Kz+GzI8f2crQNxujxIrJVoYt2+QhUYU8x/ICe1z2ER2Mwxisn62057MTU5aGzF4/sMdzxTj4hi8n68QGnrCBz/x6wQrsk10OGnpA51Xrhtf6se6OysnF7U7OrXxtu+g13f5ueBSqw8N3CKeUwDSEJqbbswGT/tI5CkjpmAju7MUdB2BkgIgFnie+6aLw2bwR+vBoEOrM0eh+zBsT0p+GZ0nZlJhswcHJH2u4qZ/w8Csm3GYqo0BgbKA5fezrpxgABuiXhLNmXgRx495iTwixDM5Duy3CnUDODepPbEgbXnH2X7xLCGWIPWvvwBcaEwjNCZXXDWcyJEpnhmdpyMzPvdUEpj4jLbcsn+0Hyl7EeUQXtMGHMJhTFOXpQpUbtMkCeBURxmOuUBdCD77aBr8Tt53ZekHRg+cJTzy5RwX92g5Jno9mC4tOqH3Kcr3lfwrfqDZe8Srmu/8AIyRcD0gCnKNYioDGbRIB0R6x7R0PH63qjNyg9A/s1ic7+kmD16A+cWZyev5MyXtWruaQr8QgLHGW6upxm5wEZtR9MNwxYzti5k6HFj9gug4ekAHerfK/99SYgxWTtQyL0Q+mHFhxN5zChohQR1iuyAqHeW4q4mB8F0GBeDKcGjLm/wA35KNjGD0+NoaFg76R2HwCmUw6XbjAWxnbpQ0NfOAgoN/wS/CVsUFc4fciVh41yF0H7wiX/I0IFFH/AAcQxuJg+0Qc3r+kzlPTGAwFHUhw3N0fyJmlS/CD6THnCP3n/wAao2mRb2JhOE4Y16XFaV6QGbKeMD/ljU/9f//EACoQAQACAQEHBQEAAwEBAAAAAAEAESExEEFRYdHw8XGBkaGxwSAw4UBQ/9oACAEBAAE/EJ3vgz3Pmd1zbPrfxnufM1PZfQ/qe58zsObZhdjrM9z52d74M9z5ndc2z638dm/3b/zs+n/XZ3HNswux1me587O98Ge58zuubZ9b+M9z5mp7L6H9T3PmdhzbMLsdZnufOzvfBnufM7rm2fW/jPc+Zqey+h/U9z5nYc2yooghQBbVcAcY2ZtUBxsPq4i0JbYB86+0wxurTexDUGc2vtgyjNNZ5i/ItqLAGNETSUdsqiGFtzxe8ZhQaRxU1PZfQ/qe58zsObZhdjrM9z52d74M9z5ndc2z638Z7nzNT2X0P6nufM7Dm2YXY6zPc+dnhXWAlpQKFwXnnO1P5CVo7EuWN/qTwrrMv0s4CGN18Z2p/JUXXrTOua64k8K6wuD2Ljeu6+JO1P5ARsrA1K4t5zwrrD5FQsNOS+c7U/k8K6wEtKBQuC8852p/IStHYlyxv9SeFdZnixbATJuvjBXG838ge6ShANKwcqEOEDhY/sDDhSqJ7jOGyfkCU/UvIBTF1Wrj6RK7wa4Y9c4hpjoWGnJfOdqfyeFdYCWlAoXBeec7U/kJWjsS5Y3+pPCusy/SzgIY3Xxnan8lRdetM65rriTwrrC4PYuN67r4k7U/kBGysDUri3nPCusPkVCw05L5ztT+TwrrAS0oFC4Lzznan8hK0diXLG/1J4V1mX6WcBDG6+M7U/kqLr1pnXNdcSeFdYXB7FxvXdfEnan8gM36gVlXFvOOukMrQAaqrgOMrNUTZ58OXfvj43aqXHDgc5QhzRh1YGgW27pT3AA9/lGtrWpT7NXMhbwW/YFgAG0rRUMkWUuPQZYr71pnXNdcSeFdYXB7FxvXdfEnan8gI2VgalcW854V1h8ioWGnJfOdqfyeFdYCWlAoXBeec7U/kJWjsS5Y3+pPCusy/SzgIY3Xxnan8lRdetM65rriTwrrC4PYuN67r4k7U/kBGysDUri3nPCusPkVCw05L5ztT+TwrrKnvP7GztOSVPvfxs1TVPvfw2dlySp3LgbKnvP7GztuSBtrSM8A1XIFjaVEdQ/NDkR6g7pBeKsvtcWN+qXycw+j94m3weq+oyjdPPTVYkTT2x9IxHBW9pv+8NMIr1D5HMsmpKnvP7GztOSVPvfxs1TVPvfw2dlySp3LgbKnvP7GztOSVPvfxs1TVOKP+BBZ+uJXQAyvIlTRLAoWMVAqvlrE3v8Aow7mGLm0uOAvxiaHBFDWZFsVFqNFc0IGZbu8Ob6zOZQNGB7SnL4xKUaB6nVgFC9Eg1ElSF8WdEno3Kn3v4bOy5JU7lwNlT3n9jZ2nJKn3v42apqn3v4bOy5JU7lwNlTu85xw6et6q1nb4QB+gyuCjhO7zgbbnx43m7zwnb4TB4vn+nCd3nNL1Fw3VWeE7fCOA/FlY1s4Tu85npTrq3WL05Tt8J3ec44dPW9Vazs8JQKGogthIWqVFGtb1S5m94xeISzb9Vv9oNFDTH2BHNy9mtMSmybsb/WCjrwbX8DDWlzx8jI8oZVWT9Dp6mIP2bHQcm5XWHT1vVWs7fCAP0GVwUcJ3ecDbc+PG83eeE7fCYPF8/04Tu85peouG6qzwnb4RwH4srGtnCd3nM9KddW6xenKdvhO7znHDp63qrWdvhAH6DK4KOE7vOBtufHjebvPCdvhMHi+f6cJ3ecy0AjNSsMmAytt4GKlZcOsiN9OOTlLwwwdUrDwq9JbZe7ucDisMWDi3FecuWMmbiG6Oe3UXI5Co6tObu3aYRSJo8IRWlEYDR+oaZQ76tw4bmd3nNL1Fw3VWeE7fCOA/FlY1s4Tu85npTrq3WL05Tt8J3ec44dPW9Vazt8IA/QZXBRwnd5wNtz48bzd54Tt8Jg8Xz/ThO7zml6i4bqrPCdvhHAfiysa2cJ3ecz0p11brF6cp2+E7vPZ3Lgy5vOu5v1bPrfxlzVs30P6lztObZ27iy9ncuDBVcHg/q7gy7o0uabjTd16oBrXrUenBN7jOriEqUN+R8wjpXgf6YLaGeTf2Jg4neFzfXjZcCLdFs6GX1Rep6cESdViDjy8omRYrA/R5Odm867m/Vs+t/GXNWzfQ/qXO05tnbuLL2dy4Mubzrub9Wz638dg/VAAM5V3c4SktQehdfVxFDlQWXM9P0lcr2vJDB6GsNJVoAdV4VuIBE9rWd8uLtSsltqq1CsLHTvv20/wzBe9SMxfyIclmtU2l9DMEQRsd8+h/UudpzbO3cWXs7lwZc3nXc36tn1v4y5q2b6H9S52nNs7dxZezwr1hmrCBulrGec8I6TXBUTUhuDjPCvWGSZhi2Nb74zwjpMBy3VnuVVVxZ4V6xreqL0Vh33xnhHSYsDpKuc7k4zwr1g0hAFCl8J4R0nhXrCw0sCIOHfwjvCUWqavnuJSLsizP/XjA49bje3GaHEWAePUjxuL+1a+0CQmUC+th97DJlen4P8A1soc0lzK1NL14HxtjWe5qe8r0+ZUvWKNVYykOFa0/h6R6LIiu+HhsH24V8OMPJmpEompDNBxnhXrDJMwxbGt98Z4R0mA5bqz3Kqq4s8K9Y1vVF6Kw774zwjpMWB0lXOdycZ4V6waQgChS+E8I6Twr1hmrCBulrGec8I6TXBUTUhuDjPCvWHyqGFUa33xiJ6OQBo05tHOOJxlvV3uWkAYGtZ4D3czPKWGBnRLtMwYmQrVTl/IzSz3b3DkR1dlDhLtwLY6reQyUPYzC7tyv+ItprrcxgKGNDf7cufSNbtsud4D7xreqL0Vh33xnhHSYsDpKuc7k4zwr1g0hAFCl8J4R0nhXrDNWEDdLWM854R0muCompDcHGeFesMkzDFsa33xnhHSYDlurPcqqrizwr1jW9UXorDvvjPCOkxYHSVc53JxnhXrBpCAKFL4TwjpPCvXZqt39jZ2nJs+x/GzVs33v4bOw5Nne+Btp+Ek1/S3DLAPcIfpYQvZ6bjTfyhcmNso+unxDUHl7sc5agXQbjT40+pWMmfifPvFYVejBWeWAD5WvtBCqZCDlu9nMb4rkfd4ovrsGkRRqrGmoGFNFBwOPKXioht24XHlHIxrZYOz7H8bNWzfe/hs7Dk2d74G3Vbv7GzvOSAvxd8Tj6c5ZiUCzjhj0sEpVNilPPQehiWBgcehzwya6RJKp3vHlFzqEs5HJAqz0gGHRzQNZzv1lbHIa+eG/oYTlmWsosH0/wCTKqRzccvpCEIoulZ/PzPvfw2dhybO98Dbqt39jZ2nJs+x/GzVs33v4bOw5Nne+Bt7PWhKhbk0hZqzsdKEJvWA0LMnMnZ60F1udrVS774E7HSns7yru9K4E7PWl7JvKyVTVvgTsdKZGnuzalDR4E7PWhH3azANGUnY6UKO7RAFq5g1E0vcOHqkAFHUa8c83WWNDZfftkPWD26qA6vrK/xqaJmdZ6nF6TRbhuR+bm0hfCKXPG9GOJUEGBMjvIAZSjYBvHGNqxmdT7/o3wtCbQHrcF1udrVS774E7HSns7yru9K4E7PWl7JvKyVTVvgTsdKZGnuzalDR4E7PWhH3azANGUnY6U7PWgKk3JpCzVnOd3KD37HohTFWtxiIuu5y3QCMNYxWHCzW+qxUpOhvc6DkS3InKu70rgQYDOvNMevGDndRgFVem4gKSBFUMEQ87HBL1zSb7T7Fmj2a0oLe9X7wb0z6RQ1x6/4gbUXlYv0hrUot9H8cvZN5WSqat8CdjpTI092bUoaPAnZ60I+7WYBoyk7HSnZ60JULcmkLNWdjpQhN6wGhZk5k7PWgutztaqXffAnY6U9neVd3pXAnZ60vZN5WSqat8CdjpTI092bUoaPAnZ60I+7WYBoyk7HSnZ62zvfB2dlzbPrfx/wN9f8ArZ2HNs7VxdmfUImv9Bo+YSkXHGMr0zlXN1w4EVarlK5f8P8ARmOq6PfNc5VVVpcPrykOYWTecGXsSrFEyJKZStD9H8lS8ypXgOXEhu9tIU5H/A31/wCtnYc2ztXF2v4kK2RwFr7ESPlpweO580B3GI1+8LlHsLDwN1mnKMzCa2EFO6CPk0PykIJFhatXzR8zcRaVQc8fmG1QEwruVKXuj/BPtc/pK+B4ofsWPgJIRZMoFN6XxnM3sD8YNaOQRSeINSUC5w/7zvoLrUrSOR/rCLE5f4hbSwReaj8ZQmC/Og/hnz9Puy52HNs7Vxdve+Ds7Lm2fW/j/gb6/wDWzsObZ2ri7fKItUgKC6zPBpVUKiIyH9nlEL8qFoNhed+Z4NMIwXcCqrr1Z5RAEOUbVQ7/AFng0oKsWAxeAxvnlEH14FVrWE7VQaA1Y1loG7Xw+8cxSasXYPLjCqAAFAwDQOEP9NQsQGDnjnLlLvKlYUuT03IiNOukrYIbFGq9pUVSwT4v0IGC9zCcdfbuhg8tEJxGYRgu4FVXXqzyiAIco2qh3+s8GlBViwGLwGN884jvsAVWtWJw/SoX0NWcVRn6miQrpfT8Zd/oSkQ4Er4mIGOtHqfBecBbhyGDlSJqxvKH2iF6mf4iC3Sb3+oNQbgv8RIDG4f5KIVxBirHc2xrGW9X9n09x+ssFhilIvUljB7RidikcWHp7f8A4womB2mbqb9In2ibpow/UfjKTZ2YCVrHKOemAiN1qQfeEKC5WZCYyWj2BEGUFWLAYvAY3zyiD68Cq1rPBp5RFqkBQXWZ4NKqhURGQ/s8ohflQtBsLzvzPBphGC7gVVderPKIAhyjaqHf6zwaUFWLAYvAY3zyiD68Cq1rPBp5Rs7dxNnecmz7/wDGzfbv+dmHrfw2d1ybMScJ+RK3ltDT9NjHvKiPDeDivANZQnpkyurzZX+vfFBxg4N/pxmBdNBuOjsrYlWNNV6kcntgfeHCKwlFbvxuxGNcCvLDVMqa7cv8Nlo2I71Ya8JpA3vzg02ckRopBKkN+hL7+tCHor+TSLMa3q6sToeQqPbfKwR6AQnBPUWehTQP9mFebt8xcCQeEn7I1YHAX1F0HxP6WWtOatq+QjVLOoQ/JEgOcr+owGjeQ+MRePNCn1XEL/NawU4940W5rjUCp7ypU958xKLcCHYBVXBugoeb8ItJWoovqzuuTZiTh/kbe3cTZ3nJs+//ABs327/nZh638NndcmzEnD/I/wAMWGnW9me8wpebnls+QT6Z7zcbv+tj9Ov6z3nbc2zAvQPeLvhbWy2vx7S4OZB+B6Ylq3HI/wBoY3fO69E9I0luF4B+kCi1Gpe1Fh43z74Tf3Kg9QEHFKzrQ3/9inG0B6KH3NZnwrnWyv1EDXpd+sg0ZwAQ5Uj7w0nCiPbR83NADh9HsTfjBwP8QsjxKHouZ6Zyp8RVrPyTvvM3QLQPeA6H5f6lmQcRfUfNzjPlMxwLZtt8s/UCpaAZp1EYKfvP77EPDZ9Ipk+Jfx/iqS9EZo2Y6bqjSOld3NnvO25tn5rlnhPfZiw063sz3mFLzc8tnyCfTPebjd/1sfp1/We87bm2fmuWeE99ng0PF4FVWhPKpc3a3AwmrzZ4NDLMS2CnOPUnlUFVg5yq719SeDQoKCCl24s9Z5VC727Ii1dH1ng0vE9nBl196Ey96vdXwFQQQ3lL92H+2usZA1Lc/Yl4hI/a9/8AEas3iw5s3+sHWHQfAjHOQFeIblwYJuoBBIpup795bu985+Zru/3XPiJyVOmMR9uAYr2a+5DLNtwB6b/a4oDavS9TeepEkZQ5eXd6ksPKKhxEw/4bk3iYekB5AQ0G9Mes8qhd7dkRauj6zwaKx4CiW5HfPKp4NDxeBVVoTyqXN2twMJq82eDQyzEtgpzj1J5VBVYOcqu9fUng0KCggpduLPWeVQu9uyItXR9Z4NFY8BRLcjvnlU8Gnx37QGYMbrns7jknx37Tg8r/AE2end/zPjv2n3v4bCbm+hPjv2gJhjjxT7XUC3Zs0oYe8Xaq5X/eGgrauIpLa0V3DUm+v8Rw78JnNjqPGdtNgmpWicOHMbr5f+S4IA2NEaSEgZdFfkJkPfGj67oWTWbnPe700mpQVMcE7nZcCPiCJo2PMbx91uNhNzfQnx37Tdu8Nnx37QGYMbrns7jknx37Tg8r/TZ6d3/M+O/afe/hsJub6E+O/abt3hs+O/adjrSlcrA0EVw8p2OlMXRZBdIuXGhOx1pibLsal1i+DOx0p7u8q6rWuDOx1pbS00dwXi+DOx0pjDrALopw51J2OtHBikXv8/AEMgo8oC/Ylf76AOTJ6zCBsMGWD9CVTgX/AJCjjG723kv2WvKL6WWsYU+y8OaIlmG6rZX/AIrg3VwbHowORNs/9ZBW5WfwA/usMCOFPccuekM6S4sGZ5w/JqIVF30f4l/bTTgF4vgzsdKYw6wC6KcOdSdjrStMt40Ckwcp2OlOx1pSuVgaCK4eU7HSmLosgukXLjQnY60xNl2NS6xfBnY6U93eVdVrXBnY60tpaaO4LxfBnY6Uxh1gF0U4c6k7HWlaZbxoFJg5TsdKdjrbO98Ge58zuubZ9b+M9z5mp7L6H9T3PmdhzbNYGXgXfsYZhQVzSPof+CuMyFLF7P3EvAeJZvo/zGtMZvG6aDFh0U48ZdA8av6T1iVWREsRsfR0Zf8A47g0ViqpKwjqc4LQkwWeNnhyjrLbTuBOMraPK133Mh2YVOYU+LgXULcqYflJ9D+p7nzOw5tmF2Osz3PnZ3vgz3Pmd1zbPrfxnufM1PZfQ/qe58zsObZhdjrM9z52eFdYCWlAoXBeec7U/kJWjsS5Y3+pPCusy/SzgIY3Xxnan8lRdetM65rriTwrrC4PYuN67r4k7U/kBGysDUri3nCoSqLHWE6sEeIqfsA5Q1OChftf/CYY9gb75ijWYR66f53CASothzIwZTatORO7/wAwoI5CEaMh9eV/NYrQQff3DmQ1USlhKI7y0jXzoC7DXx2VLuDhcb13XxJ2p/ICNlYGpXFvOeFdYfIqFhpyXznan8nhXWAlpQKFwXnnO1P5CVo7EuWN/qTwrrMv0s4CGN18Z2p/JUXXrTOua64k8K6wuD2Ljeu6+JO1P5ARsrA1K4t5zwrrD5FQsNOS+c7U/k8K6yp7z+xs7TklT738bNU1T738NnZckENs33f4Yo+aB7sAfQ/kAP8Awq1wYb9SA7+MqHCn/vuCqxzVepDrGwDHXRKB31NFPkxLyAY8Afc+HOHFOgyAand7tnZcmzuXA2VPef2Nnackqfe/jZqmqfe/hs7LklTuXA2VO7znHDp63qrWdvhAH6DK4KOE7vOBtufHjebvPCdvhMHi+f6cJ3ec0vUXDdVZ4Tt8I6HjdJWNbOEApWwwNxxgGrGzkma//wAJiVCizN+6/qGA6B8y/wD4FwbhVukEgv8AJX1ITdoWRsB63LwwlYW/mLXpbUaKNU1PCOA/FlY1s4QNdhptZEz0p11brF6cp2+E7vOccOnreqtZ2+EAfoMrgo4Tu84G258eN5u88J2+EweL5/pwnd5zS9RcN1VnhO3wjgPxZWNbOE7vOZ6U66t1i9OU7fCd3ns7lwZc3nXc36tn1v4y5q2b6H9S52nNLYMP98DQh8TM58bf/DUq8zefRRrWqn1/+DcE8LvlvoY41oVlC4RzQbEd0ZMw+j+IYFllOEP0nec0YWh+Qfk7dxZezuXBlzeddzfq2fW/jLmrZvof1Lnac2zt3Fl7PCvWGasIG6WsZ5zwjpNcFRNSG4OM8K9YZJmGLY1vvjPCOkwHLdWe5VVXFnhXrGt6ovRWHffGeEdJiwOkq5zuTjMnaK14b+M3Dhlf+I6mv0pFcAP1/wBlf+b0hbiVI9nv3x7ADbdOapK4xs4oQF1Me8AVbGFS53POPwTMEQfRBpCAKFL4TwjpPCvWGasIG6WsZ5zwjpNcFRNSG4OM8K9YZJmGLY1vvjPCOkwHLdWe5VVXFnhXrGt6ovRWHffGeEdJiwOkq5zuTjPCvWDSEAUKXwnhHSeFeuzVbv7GztOTZ9j+NmrZvvfw2dhySy1TVxi6dVUdX+hAFQtpbqw/0t3eHHrO7b6If7N6cJXr8f8AkqAqAZWiKBmnrbjiksnkMiW5TFcpa8MLygCB8olMTRddBjjLCOTwfmPe+Bt1W7+xs7Tk2fY/jZq2b738NnYcmzvfA29nrQlQtyaQs1Z2OlCE3rAaFmTmTs9aC63O1qpd98CdjpT2d5V3elcCdnrS9k3lZKpq3wJ2OlMjT3ZtSho8CPOpls6o484jdVXyCaLm/wCh2v65pf8AkRTzf6DL9TUaekGWUK9B/wBe/wCoAPa9faIiXhD92W6EejrCtQ9QHxNXcb8EvF/+IDdaAy1U147iMI4ux92Y/aVRUIa7eDwpgkmXto0OBjAd1Zyn5SPbnCPu1mAaMpOx0p2etCVC3JpCzVnY6UITesBoWZOZOz1oLrc7Wql33wJ2OlPZ3lXd6VwJ2etL2TeVkqmrfAnY6UyNPdm1KGjwJ2etCPu1mAaMpOx0p2ets73wdnZc2z638f8AA31/62dhzTnN/ImBwrt7qekx9Z/0I0j8bm23tSJCUPGimT2f9CAUAbTuIqW1gzk1+Ixc3q/6KgW0QxZgX5+e97S/5GEvoCBFxaCvsZ+ojkDn/pJpzK1aP2IAbys9YF/Iqgv+EDk95X/g/wCIT2vnSpdEW21y684FdAQcQLfuZzDa3vHqZThPhmeRHqXAaLWT6Une+Lt73wdnZc2z638f8DfX/rZ2HNs7VxdvlEWqQFBdZng0qqFREZD+zyiF+VC0GwvO/M8GmEYLuBVV16s8ogCHKNqod/rPBpQVYsBi8BjfAUy+6cARG4UPpIyntoA/6K7ps3dr+wS7wBrL/Dw/0H4um78ZEGuEN+l/orYTPqnTEr+AjevSDqAwrf8Ah6S27NeLMS5cOHf1L/8AAYRNdY4rCDirmckqSqLve2/BCsqi/oTzhKAysat69ZjhqTdbT7IMLXS3QzwaeURapAUF1meDSqoVERkP7PKIX5ULQbC878zwaYRgu4FVXXqzyiAIco2qh3+s8GlBViwGLwGN88og+vAqtazwaeUbO3cTZ3nJs+//ABs327/nZh638NndcmxWNUvOm/sZujE9yk/P9AVDqNJr0jGA7XzK5t+c758yGdP8rdJpOPQzECIdaf1/prPF0u94+2Zb3Ddc07vVlfS2IHN5y5f/AJb2JcKaOu6hrgCrnoE3q9Qc4gKRrGcNwcHkvcw96O95u29u4mzvOTZ9/wDjZvt3/OzD1v4bO65NmJOH+R/hiw063sz3mFLzc8tnyCfTPebjd/1sfp1/We87bm2YtMW4yg+DKPOTYafv/SGy1XiuG+DOLoA43HElg2x2HXlDNfm2oRgsp9kheKvjANDMAFSANAMAcv8ARcYBtoG80P2CHRja6/xKgW0Zda3wWxTu1jCMGt9aI16R1Imt6g/Ep038N/x/4ahiWnuANWU/VQtBYea/MerQwiXgmCBW6xOVTeTL0J3h1S7cRJ7w3UbgYj77MWGnW9me8wpebnls+QT6Z7zcbv8ArY/Tr+s9523Ns/Ncs8J77PBoeLwKqtCeVS5u1uBhNXmzwaGWYlsFOcepPKoKrBzlV3r6k8GhQUEFLtxZ6zyqF3t2RFq6PrPBotEC0hsWfU+cWhPVQXGRj/QWOFIcq4o6blODvgLGUfVDcPAzAanyZt7LPeB0DvBmKxJyzE/QZNrccHvLUisPql3w5utKY4py/wBNSgxy0rI+WoiUlltb2fMwMhkLfu5jHo1G/uHPAznfmosTmqgfJiFOOjRAzv8A0DWcagGI5kSmlzv5bK/3YD8bwf0RC0FrcL5SGuwErgb7Kl6Vo1upyy/h9cLWKoV2jqv4zyqeDQ8XgVVaE8qlzdrcDCavNng0MsxLYKc49SeVQVWDnKrvX1J4NCgoIKXbiz1nlULvbsiLV0fWeDRWPAUS3I755VPBp8d+0BmDG657O45J8d+04PK/02end/zPjv2n3v4bCbm+hPjv2lDBp33AP2CWmRGvNQ+JQWu+E3l4+v8ASuQh1iajHT1PzvJBOGiD+O89I9ZerKe4wM2Q1o/sLXYVujgXAqQz9hd8v/Vv+Dd9a/QEKTF4pp6xgnOAs+4gxKt+r7gO0pzlGzjh/qFJN6aP1KZ0xlH0YQmvw6WTMsEenxMyzQO/l3wdE2yw9Zf+1D6e/LchTbItpvT4dJTWzE9QCPVBZiZewWfKx07Lo8nVs+O/aAzBjdc9ncck+O/acHlf6bPTu/5nx37T738NhNzfQnx37Tdu8Nnx37TsdaUrlYGgiuHlOx0pi6LILpFy40J2OtMTZdjUusXwZ2OlPd3lXVa1wZ2OtLaWmjuC8XwZ2OlMYdYBdFOHOpOx1pWla8aQpMHKVomuYLLK9GypazR8nL+of6NIwkRd8Ek3avy/e9IWKahs/eiESYQHvWnvKwP4/wCs3RGvcsNH0X7xTdBQpbXMGZ0Xh2eKaSkLuKj4Zgeav2MybF8P+45yngHWJccqZyCoqaL2D3x890RLwgLxmDPJzAWbZl0cVunCPR1+Bsr/AFVGV1aq54XvA+sjB7NYabLLEzwpMdohecVL8ZYiDQcGQe5aHimGnKdjpTsdaUrlYGgiuHlOx0pi6LILpFy40J2OtMTZdjUusXwZ2OlPd3lXVa1wZ2OtLaWmjuC8XwZ2OlMYdYBdFOHOpOx1pWmW8aBSYOU7HSnY62zvfBnufM7rm2fW/jPc+Zqey+h/U9z5nYc2zC7HWZkpQp759HErrsiW5wn7K/1VkTAbGt8sQ3RqPZr7wwWzCwKVoOZVBWoANLrP+zdige/29l7XHP0zBFAcFvKOiMKpwFpF64tLqAFOMIG0lABQQOpUldcx3PMi7IsrfJ5eekQq5SuDrzg/dKuq3rgy/wDVvrfC19dN7x/YD/23I+7tQzSNzwfsaGtycTAfazFLQw0tH7JMLsdZnufOzvfBnufM7rm2fW/jPc+Zqey+h/U9z5nYc2zC7HWZ7nzs8K6wEtKBQuC8852p/IStHYlyxv8AUnhXWZfpZwEMbr4ztT+SouvWmdc11xJ4V1hcHsXG9d18SdqfyAjZWBqVxbznhXWHyKhYacl84gm7qwWTRuyiUni8X/WCikoIjqOn+vESxwvOxujvLbbn/XXp8xxrj1lbA6b835HwJqi/hzAxXQqvzeswu2HbfVDOaKD23x3ntK/q1AcGEg0SnxGGbajIcEdSZaVrCvt/MpOBIXj8EDlrRA75X+AXHkA9W4an+CnQYzwC4jC2AWZYPuP8FqWhcQt+6mZLjjmustjkqGQbTO7BD5FQsNOS+c7U/k8K6wEtKBQuC8852p/IStHYlyxv9SeFdZl+lnAQxuvjO1P5Ki69aZ1zXXEnhXWFwexcb13XxJ2p/ICNlYGpXFvOeFdYfIqFhpyXznan8nhXWVPef2Nnackqfe/jZqmqfe/hs7LklTuXA2KlUX7h1fZmCCtROu8pf+q4g5UX77/rNS41pvykOsjs1EzQOd+zMoF7sH2JvP8AEBsl49r9QSBZ1r3YZoylPyaofDeurEFZVwWCQw4V7mdoiRWEQROFR2yWScUuHIzwhFVTP9dcmIiWpu/wC9+YqIcslFD5lbakQ964SzATdZBg90hptxyQTiW/EVL9TZuhylBTeNvy/U7lwNlT3n9jZ2nJKn3v42apqn3v4bOy5JU7lwNlTu85xw6et6q1nb4QB+gyuCjhO7zgbbnx43m7zwnb4TB4vn+nCd3nNL1Fw3VWeE7fCOA/FlY1s4Tu85npTrq3WL05Tt8IIe3QGuLPtNPRw3dt5jEsBSbhm/8AVUHzzzhNBzf6/XM48fWAaB7zNYt+rcsm85rLvW61q47LlgC/T7Rh3dIl+l9VL2t7om4feLiR+EI5DpVcZPGI2szdSpUq8RHmLE9/Q23FDdQOQf6kNM9WHIdpfWJ8AtmZMKHcrgPaUZtpLG+B96mWXPXvcz0p11brF6cp2+E7vOccOnreqtZ2+EAfoMrgo4Tu84G258eN5u88J2+EweL5/pwnd5zS9RcN1VnhO3wjgPxZWNbOE7vOZ6U66t1i9OU7fCd3ns7lwZc3nXc36tn1v4y5q2b6H9S52nNs7dxZexFWsQ87p6kq8GOuf5f+ukjKX9lqmZ7yfuf+QVdN80x91EcUrvg9mv8AEOplitmrtOIH4QoLgkcQ5wbqtoPLHThT6xdueZO+JYEx6+gAB+bVbg4GqO77SicFg1b0GBXfIs39k2du4svZ3Lgy5vOu5v1bPrfxlzVs30P6lztObZ27iy9nhXrDNWEDdLWM854R0muCompDcHGeFesMkzDFsa33xnhHSYDlurPcqqrizwr1jW9UXorDvvjPCOkxYHSVc53JxnhXrBpCAKFL4TwjpPCvWUZ5Zdg7zOo0zkaFTOB7Q05YmwMv/TRpaN+Bc+xM+ZWeZ/0/zrZUr/VaN4JkeDBught1NPxF/wCKXuEce0oUhHLalxcN0NtWGF8HtAjXRDv103A0OPtHVGyczf5X+AbClclOuxJ71qBxZhC0L8TT3gM3CnGf6pjMMndRN1biF8WANupcy6nhXrBpCAKFL4TwjpPCvWGasIG6WsZ5zwjpNcFRNSG4OM8K9YZJmGLY1vvjPCOkwHLdWe5VVXFnhXrGt6ovRWHffGeEdJiwOkq5zuTjPCvWDSEAUKXwnhHSeFeuzVbv7GztOTZ9j+NmrZvvfw2dhybO98Dbqt39iE9lTNf7m6I3sKqQ1V6DNNeNf6aVgj8EbflDAW/QBdn6/wCd8LfQuKNRPaWbK/xr/ErHHRqrY+zK0kINwUPn/Fc1viepteaZ3FctYTW8pgCu7hK/Fy+HJqWVUK117jd95nWob7mu9/w1lB8AP82BTMBa5YuIE+YGB4Q1WLgyEsTI/St6X+oDFu/hs73wNuq3f2Nnacmz7H8bNWzfe/hs7Dk2d74G3s9aEqFuTSFmrOx0oQm9YDQsycydnrQXW52tVLvvgTsdKezvKu70rgTs9aXsm8rJVNW+BOx0pkae7NqUNHgTs9aEfdrMA0ZSdjpTs9aEqFuTSFmrHmO7hENEBFZ/YT8QYcKaHKH7Bx/opstM9VV9wM8E8Amv1K/y3Qt0t8qjN8lY1spch+kydI3/AMkzJzVDH2Su5pf9EVx2MxABsdyR+GECTvBgXQRnpn0lQjD3iYCPKoAg2PWmwPVMnxD5WuCWN/CBkElWnc/UA6P+BQiDdNA9DVjpEZ5TjDfMjKnJALN+4mwV5/4EMWLP1VAOKu3AtfiL42y8LA9iiI7ORN2avdxKEMVNADKToWt3CGvIYLS/QtqUNHgTs9aEfdrMA0ZSdjpTs9aEqFuTSFmrOx0oQm9YDQsycydnrQXW52tVLvvgTsdKezvKu70rgTs9aXsm8rJVNW+BOx0pkae7NqUNHgTs9aEfdrMA0ZSdjpTs9bZ3vg7Oy5tn1v4/4G+v/WzsObZ2ri7e98HYdLGNkrE3mJTfbcU4l/L1lN9FBveivo/6DZG6yJ69swYudzn+k31/lc9alHCnlDGhQQ0lpzZedhmpGludjEbU/rHwGExJof3RLU19l37BlRpLk7P2lQ460z8Y4KH/AK1n6jTFcIPSd56zM0+AOUgghvvkG56yg8wN+8XMdrMWAY4yD4p8ypmYDwh1YxQVbBwNxLlStmbrF8Kg1CUJrCgn9hmLdGVw49rlhyZ54lSDDwo1Zu4yzcc3JI0WKi25Rm9XoQtEIoCnU2dq4u3vfB2dlzbPrfx/wN9f+tnYc2ztXF2+URapAUF1meDSqoVERkP7PKIX5ULQbC878zwaYRgu4FVXXqzyiAIco2qh3+s8GlBViwGLwGN88og+vAqtazwaeURapAUF1meDSqsVERkP7G1hyvkjuG5mWOvoGNwlXA6o76W5/wA99856sdJhPuRTREhz/wBFy9ty5cvlLxy4ZIu4UDaWoT7/APXohWrYOns5Pojmn9VDmZPmJlLVUebSKKtuqX4MMWxKlxZYFdW4UoigCrAGrCw4EuW790E6M/5RKTUT1gG6R5XmM+QCX0NWJVO5jmWlxGe2vocHzFh4IFfanPJQEkfusTN7mPtcqQ8Ck4DdBNFwunEN/rNJGWB5kxWEXVGresj4i/sEKrU8Wj0K3wfLFbQ5K3hLQGSdLD8XDF6qQdS6TlcQLQONoQd0LQbC878zwKYRgu4FVXXqzyiAIco2qh3+s8GlBViwGLwGN88og+vAqtazwaeUbO3cTZ3nJs+//Gzfbv8AnZh638NndcmzEnD/ACNvbuJs7zk2BmCz5NXdEZSY4O+l2XO3tLI8WU5O3M3/AJz/AMnsFKzKVi/YFsYF3up7f+O3j8w1E21HI+0IVjjQviII0hyLSX4K1Z3AusFUBdBT1VjWoOQ+lASmiIDAAAVylZZk0E9SXRuG/LE1eOHDOITAHkB09aIVMamdOIlJpkCOPwE5lbTFAIcg1DqlofALlqBHcJr6cYabz1Kg20NVmLgkb9IThbiExtea4lZnpC1XyQ195lh9G8j/AE1hs1pZYbrtEHh0n1VL1s+9cq4nA3PtUdZ3E/jCNWFin2yENUg3DgO2KrkMm8WPnitG8cRvt3/OzD1v4bO65NmJOH+R/hiw063sz3mFLzc8tnyCfTPebjd/1sfp1/We87bm2fmuWeE99mLDTrezPeYUvNzy2fMJ9MRWkeIw17F4J3FjR3kBLYi9LFmjbipzgtXu4zde7jN+013DhWlZuKW0qYdT2xiKlxxTu/8AHUuFU4l4L+Irc/bJel+gwefZRv6sMuovJD02vxc4CcP2AIjky9M6+lOZZr8rH3LXVY23K984zElXQ4b55Fx12K4Z9PuzJt6gT3RKx6B/FG5rpoXurjU38cc9Yl8UxOqt+i+IV/8ALwvA1XkQGgrdRzxU82Xkf5RJeEjQGyqLuXVlJ+EVq4yxS0UMtj/io8gxx2d64M95hS83PLZ8gn0z3m43f9bH6df1nvO25tn5rlnhPfZ4NDxeBVVoTyqXN2twMJq82eDQyzEtgpzj1J5VBVYOcqu9fUng0KCggpduLPWeVQu9uyItXR9Z4NFY8BRLcjvnlU8Gh4vAqq0J5VLm7W4GE1ebPBoZZiWwU5x6k8qhQsHOVXevqS8ExLpeLXdnKsgbfYDTgi31pBrYPzVeELMtnI/iKt1lihE9phd5rjiXbRl1ozAZ5hvX+u6M7l7uuK+FxSApGn1lf6Kan36QzpKeEqU1gv0zPHTzKVtJPNSm6RPWVB0BLt60IG7OveiBXhLTI05L3xvupHwOYtVi3FXxfcUr2gpN5iFKTUT1lBQwbwKH2Mx15FrU6q8ZYpHAxvOTDSHGQ0pf2IacWEf5GUdG0KHPd+8SaC7DmwqLOtKgs5KTE7spO78qX1gbXauPg6xK6rXY4d/yKDwsvdiaKvIv6+4aah3Ac/DHlU8Gh4vAqq0J5VLm7W4GE1ebPBoZZiWwU5x6k8qgqsHOVXevqTwaFBQQUu3FnrPKoXe3ZEWro+s8GiseAoluR3zyqeDT479oDMGN1z2dxyT479pweV/ps9O7/mfHftPvfw2E3N9CfHftN27w2fHftAZgxuuezuOSfHftODyv9NmnTd/zPjv2n2P4QAgESkYdFIp6JDunLVeVvsNy9fKXbt5TMW7jUpdLSx5MoQmshHux9wIS6t00KwMtnmygcH+pkGCa8o4104ythloS+Fz0z6ZlXI9QD5Yggtw6hAngIU/Zem6iA+phEvxfyhbc7V/WVmX4nUmnryMDXZ36EJGxwr/kttHvf0gvo4T9I9ThYaji6UesSXjgAjijTH+Z1IW8ItY7c3mg9rGG350tEmXA6Hwwbimsa67veL3C02DTUr0YAUDYYu7YR4x1qoWuVyyWGDV4RbrFusqblcVf7LvXv3lrumNtxi/polT2nyGvux/vetR7BZeLoXX8PBqC2kQZqO0YAAxDG5DDsIg2N5CXFBWxmR8VscanfxAZgxuuezuOSfHftODyv9Nnp3f8z479p97+Gwm5voT479pu3eGz479p2OtKVysDQRXDynY6UxdFkF0i5caE7HWmJsuxqXWL4M7HSnu7yrqta4M7HWltLTR3BeL4M7HSmMOsAuinDnUnY60rTLeNApMHKdjpTsdaUrlYGgiuHlOx0pi6LILpFy40J2OtMTZdjUusXwZ2OlPd3lXVa1wZ2OtLSWmjuC8XwZ2OlMZdYBdFOHOpOx1pWmW8aBSYOU1SULD7JPQRHksZy0KWTRVA+RLVKlBMA4Kf0t4ZdweF7V4fZiFIjCFC6/HjR9zLr2sVidG3HyKl771pv2n5C75GvwR6+9TKz6ut+jBisDuNEU659Y51z6rOGJjhK9ImBcIu1/TPKBmUksar3295Q1jC1uz4nAtEpWlbnkxcNeLfhNaXj/RI4lOh+wJVnXH0SiEwlhoXEMv2muj4F9csznGpbgnSLHrmvZ8PxGnu3/3On4uajIG/EwLjRrMYB4jgObDcbZ4cG/ICYLSm5pqDkmaC+kX1KmcftU1c4uVvQfAYpFeoA4rd/KIDKW4YAkxwm+YlgPYX7E6Nscjh/MlV1WNQRXWfwdxMGAZBdIuXGgzsdaYmy7GpdYvgzsdKe7vKuq1rgzsdaW0tNHcF4vgzsdKYw6wC6KcOdSdjrStMt40Ckwcp2OlOx1tne+DPc+Z3XNs+t/Ge58zU9l9D+p7nzOw5tmF2Osz3PnZ3vgz3Pmd1zbPrfxnufM1PZfQ/qe58zsObZhdjrM9z52d64MZWxtFYrlvjmIVaoyq1E09mAjZuY/TueKVzge9AofYIcohalH0YXUuzUs1EvZf+BnSVsBaC8Blmth6kT21m5z+N6F/sMzAxNTOh6ENi6OANNaG29lUG3Uc3/SGZahAcT9DEKwYaA3BN5zLJeHFznY5lek4cdm6qgpot8bj+/USuJgz3leiwveeEDVcxS/ivHlpDGmy+Ne97vTWCy89fGcpayicrWsAk27cEE0DXgqr2LZSacIAHQY1o+474LL5GPqMu59wHjaz4gysb/IVx1UCcvXIWcEDnBE8hzW0GHZ9b+M9z5mp7L6H9T3PmdhzbMLsdZnufOzwrrAS0oFC4Lzznan8hK0diXLG/1J4V1mX6WcBDG6+M7U/kqLr1pnXNdcSeFdYXB7FxvXdfEnan8gI2VgalcW854V1h8ioWGnJfOdqfyeFdYCWlAoXBeec7U/kJWjsS5Y3+pPCusy/SzgIY3Xxnan8lRdetM65rriTwrrC4PYuN67r4k7U/kBGysDUri3nPCusPkVCw05L5ztT+TwrrAS0oFC4Lzznan8hK0diXLG/1I/EFKQeWsOLpCjncNPtUDMWG+XgIEG8irbNoVZN2FNW32e6COn+J3f4lRZCPaCA1ScAL2IT0zPzms+qN5BkdT0uvuEgnx3sGJmqKlq0pqU3r4OIh5O7WP5pxhJBqGHQesKXaNV+n8JUXRhy/4PtANRYc+9aQb0uuNY+f8mKtFXN0uDYof8zEUSc4Vi5wc5cWgPpjA3YRWDSo41lVDShoGPWy/ngcy1N8WPaHyKhYacl852p/J4V1jswWAAXGaecbCRVEvJL+0vHsEKcP6qihWE2txrUOeSHlEUmQLQjrunan8lRdetM65rriTwrrC4PYuN67r4k7U/kBGysDUri3nPCusPkVCw05L5ztT+TwrrKnvP7GztOSVPvfxs1TVPvfw2dlySp3LgbKnvP7GztOSVPvfxs1TVPvfw2dlySp3LgbKnvP7GztOSVPvfxNGVjyO5HUTiSsEsBEzQFdMC86McCGSi8baekGlaG6cngn+PtuUIezFm83ZumPRuAlGoqRkrQlveVpbx3+0rY6gaBgdQeGxgFlodhzNJqFA2m59MUJO86z7fiHJYvlOohDd5w3s1ftA6Cep/k3gBV0iQK09mhrySq+HCVEauWpvgMUDhqGTF05wQqC7u4s4RqwYJtGctysEL6TT0UDkTuXA2VPef2NnackwR9EeNnXXLJLDQYt5vuCPKEtSjd6UvpSEGChiO7e9Nn3v4bOy5JU7lwNlTu85xw6et6q1nb4QB+gyuCjhO7zgbbnx43m7zwnb4TB4vn+nCd3nNL1Fw3VWeE7fCOA/FlY1s4Tu85npTrq3WL05Tt8J3ec44dPW9Vazt8IA/QZXBRwnd5wNtz48bzd54Tt8Jg8Xz/ThO7zml6i4bqrPCdvhHAfiysa2cJ3ecz0p11brF6cp2+E7vOccOnreqtZ2+EAfoMrgo4Tu84G258eN5u88J2+ExxJWbzfxWk0MUTSFovVuga1AXe4eCRACmzgOj/k0TURPWapFC4LhxBKadf9BYqKOmrEZ53q/Oszw2xyPEG4S4CreipIWAOXj/gYNc1reAaryMxS0bGfimfgntKYGg4RqTteOTLX0mTbVuW4tunFytz6TgQRmbhwCFcw6OFRyaBOzymelOurdYvTlO3wnd5zjh09b1VrO3wgD9BlcFHCd3nAFTW6eu9/CIkouvbmVXujqyoCPLU+TiAnx89AF/ek08rfsN1VnhO3wjgPxZWNbOE7vOZ6U66t1i9OU7fCd3ns7lwZc3nXc36tn1v4y5q2b6H9S52nNs7dxZezuXBlzeddzfq2fW/jLmrZvof1Lnac2zt3Fl7O5cGXN513N+rZ9b+MuIYTwfmFCYHq/mhvvDSaEnaZd6a/xuNfeYGq5T2Y4cdzh0elWGGdP9+sk8PUJi+cICsigBv4EUpYYZszTXO4lL2QUqLc1wj6jsFy14EP14XuOBxjjDmsib79Gu6dxzbO3cWXs7lwZc3nXc36tn1v4y4fwyfqNRxGdtUsO8thOTnhCBh4+66jm25n7O05tnbuLL2eFesM1YQN0tYzznhHSa4KiakNwcZ4V6wyTMMWxrffGeEdJgOW6s9yqquLPCvWNb1ReisO++M8I6TFgdJVzncnGeFesGkIAoUvhPCOk8K9YZqwgbpaxnnPCOk1wVE1Ibg4zwr1hkmYYtjW++M8I6TAct1Z7lVVcWeFesa3qi9FYd98Z4R0mLA6SrnO5OM8K9YNIQBQpfCeEdJ4V6wzVhA3S1jPOeEdJrgqJqQ3BxnhXrDJMwxbGt98Z4R0hsZdzvcqqrjPCvWLBEDnHaR9ZZKleQBtbic9d0xW3m9peoOypW0DQG4Og3nvLehFvNPsY3rIDoc8y/8AeZQNXdF+nNWjl/piAqTuAHrauIWiYoLv8TnFF2mXbuN65EPJToAsDOXHWeEdJiwOkq5zuTjPCvWDSEAUKXwnhHSeFesM1YQN0tYzznhHSa4KiakNwcZ4V6wyTMMWxrffGeEdJgOW6s9yqquLPKuse7LHhh3RODpuZasXWKG+xdOpcxYHSVc53JxnhXrBpCAKFL4TwjpPCvXZqt39jZ2nJs+x/GzVs33v4bOw5Nne+Bt1W7+xs7Tk2fY/jZq2b738NnYcmzvfA26rd/Y2dpybPsfxs1TWcSfe/hGagl9ja+Y5jBxuVE7x0o36RVSfc4T0lStgnXrN/Ac4fuGbjccIzVlo0eXG+WsTNOvD/ZlFNDK6Fcb4c47SDDQ4vHvdRoOYN9QJa5pUReXXLLWNxzh/bcpjc2KzvhYxyDu40T7X8NnYcmzvfA26rd/Y2dpybPsfxs1bN97+GzsOTZ3vgbez1oSoW5NIWas7HShCb1gNCzJzJ2etBdbna1Uu++BOx0p7O8q7vSuBOz1peybyslU1b4E7HSmRp7s2pQ0eBOz1oR92swDRlJ2OlOz1oSoW5NIWas7HShCb1gNCzJzJ2etBdbna1Uu++BOx0p7O8q7vSuBOz1peybyslU1b4E7HSmRp7s2pQ0eBOz1oR92swDRlJ2OlOz1oSoW5NIWas7HShCb1gNCzJzJ2etBdbna1Uu++BOx0p7O8q7vSuBM6xCgP2WkO8rJVNW+BOx0pqQ0IKKLh9qli8FqT4sLKpKmvdqcyAVLRfHKX7R2m9WLjjVPXdAvYMBtay8TdK/WNVBxjFORShuGueuk/OO5m+tlbLOO384wKAVNa3QJp0qPsth49Kru8OPImqPIHIKLcluFkolMFHTt9pvOi29xwtcz7TR7rfcu70rgTs9aXsm8rJVNW+BOx0pkae7NqUNHgTs9aEfdrMA0ZSdjpTs9aEqFuTSFmrOx0oQm9YDQsycydnrQXW52tVLvvgTsdKezvKu70rgTs9aXsm8rJVNW+BOx0pkae7NqUNHgTs9aEfdrMA0ZSdjpTs9bZ3vg7Oy5tn1v4/wCBvr/1s7Dm2dq4u3vfB2dlzbPrfx/wN9f+tnYc2ztXF2974OzsubZ9b+O01T6X9bOw5o6Rk/BKVbik/sdbeAv1v6IZFHTYeg+ksk1ayuuCvZcJKsyOH1Ie4pVD7gJxRP8ADKPTpuHqc4QTFqrDhrQ5MHkGoi89SmkuIG9yC/3GI6PcCfXv/wCxAA1Z/wCwYnHSg/k3lUMPglGq0az2ZizT4c04OpmNvA09tZ9qggGtozhwq/LKMuBH4BgJ9b+P+Bvr/wBbOw5tnauLt73wdnZc2z638f8AA31/62dhzbO1cXb5RFqkBQXWZ4NKqhURGQ/s8ohflQtBsLzvzPBphGC7gVVderPKIAhyjaqHf6zwaUFWLAYvAY3zyiD68Cq1rPBp5RFqkBQXWZ4NKqhURGQ/s8ohflQtBsLzvzPBphGC7gVVderPKIAhyjaqHf6zwaUFWLAYvAY3zyiD68Cq1rPBp5RFqkBQXWZ4NKqhURGQ/s8ohflQtBsLzvzPBphGC7gVVderPKIAhyjaqHf6zwaUFWLAYvAY3zyiD68Cq1rPBo/9VAz6HmvfYfkDbf8A/sTZIMALfCwhw9u/o0lQKDsGKjhJ+DFvMGgSt4sveXIFn0TYgyjXVg/hHb9ExkO4E/QlogblVyK9AAdBmhOtRFoWjkqe636iie0AV7633M0LeuSUVioiMh/Z5RC/KhaDYXnfmeDTCMF3Aqq69WeUQBDlG1UO/wBZ4NKCrFgMXgMb55RB9eBVa1ng08oi1SAoLrM8GlVQqIjIf2eUQvyoWg2F535ng0wjBdwKquvVnlEAQ5RtVDv9Z4NKCrFgMXgMb55RB9eBVa1ng08o2du4mzvOTZ9/+Nm+3f8AOzD1v4bO65NmJOH+Rt7dxNnecmz7/wDGzfbv+dmHrfw2d1ybMScP8jb27ibO85Nn3/42b7d/zsw9b+GzuuTZiTh/kbe3cTZ2nJMlVu5xE03qXnKlQKF2r0I5CWBfX18Eolq8/wBYThxm/wCv8jbqN2t7mzvOTZ9/+Nm+3f8AOzD1v4bO65NmJOH+Rt7dxNnecmz7/wDGzfbv+dmHrfw2d1ybMScP8j/DFhp1vZnvMKXm55bPkE+me83G7/rY/Tr+s9523Ns/Ncs8J77MWGnW9me8wpebnls+QT6Z7zcbv+tj9Ov6z3nbc2z81yzwnvsxYadb2Z7zCl5ueWz5BPpnvNxu/wCtj9Ov6z3nbc2z81yzwnvsxYadb2Z7zCl5ueWz5BPpnvNxu/62P06/rMVGqSj81Ua405vVs/Ncs8J77MWzyvRnvMKXm55bPkE+me83G7/rY/Tr+s9523Ns/Ncs8J77MWGnW9me8wpebnls+QT6Z7zcbv8ArY/Tr+s9523Ns/Ncs8J77PBoeLwKqtCeVS5u1uBhNXmzwaGWYlsFOcepPKoKrBzlV3r6k8GhQUEFLtxZ6zyqF3t2RFq6PrPBorHgKJbkd88qng0PF4FVWhPKpc3a3AwmrzZ4NDLMS2CnOPUnlUFVg5yq719SeDQoKCCl24s9Z5VC727Ii1dH1ng0VjwFEtyO+eVTwaHi8CqrQnlUubtbgYTV5s8GhlmJbBTnHqTyqCqwc5Vd6+pPBoUFBBS7cWes8qhd7dkRauj6zwaKx4CiW5HfPKp4NDxeBVVoTyqXN2twMJq82eDQyzEtgpzj1J5VBVYOcqu9fUng0PChQpdu89Zgd4bihd7dkRauj6zwaKx4CiW5HfPKp4NDxeBVVoTyqXN2twMJq82eDQyzEtgpzj1J5VBVYOcqu9fUng0KCggpduLPWeVQu9uyItXR9Z4NFY8BRLcjvnlU8Gh4vAqq0J5VLm7W4GE1ebPBoZZiWwU5x6k8qgqsHOVXevqTwaFBQQUu3FnrPKoXe3ZEWro+s8GiseAoluR3zyqeDT479oDMGN1z2dxyT479pweV/ps9O7/mfHftPvfw2E3N9CfHftN27w2fHftAZgxuuezuOSfHftODyv8ATZ6d3/M+O/afe/hsJub6E+O/abt3hs+O/aAzBjdc9ncck+O/acHlf6bPTu/5nx37T738NhNzfQnx37Tdu8Nnx37QGYMbrns7jknx37Tg8r/TZ6d3/M+O/afe/hsJub6E+O/abt3hs+O/aAzBjdc9ncck+O/acHlf6bPTu/5nx37T738NhNzfQnx37Tdu8Nnx37QGYMbrns7jknx37Tg8r/TZ6d3/ADPjv2n3v4bCbm+hPjv2m7d4bPjv2nY60pXKwNBFcPKdjpTF0WQXSLlxoTsdaYmy7GpdYvgzsdKe7vKuq1rgzsdaW0tNHcF4vgzsdKYw6wC6KcOdSdjrStMt40Ckwcp2OlOx1pSuVgaCK4eU7HSmLosgukXLjQnY60xNl2NS6xfBnY6U93eVdVrXBnY60tpaaO4LxfBnY6Uxh1gF0U4c6k7HWlaZbxoFJg5TsdKdjrSlcrA0EVw8p2OlMXRZBdIuXGhOx1pibLsal1i+DOx0p7u8q6rWuDOx1pbS00dwXi+DOx0pjDrALopw51J2OtK0y3jQKTBynY6U7HWlK5WBoIrh5TsdKYuiyC6RcuNCdjrTE2XY1LrF8GdjpT3d5V1WtcGdjrS2lpo7gvF8GdjpTGHWAXRThzqTsdaVplvGgUmDlOx0p2OtKVysDQRXDynY6UxdFkF0i5caE7HWmJsuxqXWL4M7HSnu7yrqta4M7HWltLTR3BeL4M7HSmMOsAuinDnUnY60rTLeNApMHKdjpTsdaUrlYGgiuHlOx0pi6LILpFy40J2OtMTZdjUusXwZ2OlPd3lXVa1wZ2OtLaWmjuC8XwZ2OlMYdYBdFOHOpOx1pWmW8aBSYOU7HSnY62zvfBnufM7rm2fW/jPc+Zqey+h/U9z5nYc2zC7HWZ7nzs73wZ7nzO65tn1v4z3Pmansvof1Pc+Z2HNswux1me587O98Ge58zuubZ9b+M9z5mp7L6H9T3PmdhzbMLsdZnufOzvfBnufM7rm2fW/jPc+Zqey+h/U9z5nYc2zC7HWZ7nzs73wZ7nzO65tn1v4z3Pmansvof1Pc+Z2HNswux1me587O98Ge58zuubZ9b+M9z5mp7L6H9T3PmdhzbMLsdZnufOzwJ1gE70BRZWcztT+S0KRRVseM8CdYqMQnAdTdc7U/kNnVm9qr1up4E6wfzxXHV4XO1P5DiIqC1q4tngTrDlVEbutS+c7U/k8CdYBO9AUWVnM7U/ktCkUVbHjPAnWKjEJwHU3XO1P5DZ1Zvaq9bqeBOsH88Vx1eFztT+Q4iKgtauLZ4E6w5VRG7rUvnO1P5PAnWATvQFFlZzO1P5LQpFFWx4zwJ1ioxCcB1N1ztT+Q2dWb2qvW6ngTrB/PFcdXhc7U/kOIioLWri2eBOsOVURu61L5ztT+TwJ1gE70BRZWcztT+S0KRRVseM8CdYqMQnAdTdc7U/kNnVm9qr1up4E6wfzxXHV4XO1P5DiIqC1q4tngTrDlVEbutS+c7U/k8CdYBO9AUWVnM7U/ktCkUVbHjPAnWKjEJwHU3XO1P5DZ1Zvaq9bqeBOsH88Vx1eFztT+Q4iKgtauLZ4E6w5VRG7rUvnO1P5PAnWATvQFFlZzO1P5LQpFFWx4zwJ1ioxCcB1N1ztT+Q2dWb2qvW6ngTrB/PFcdXhc7U/kOIioLWri2eBOsOVURu61L5ztT+TwJ1n/2Q==;clipPath=inset(2.45% 18.33% 3.92% 16%);imageBorder=default;" vertex="1" parent="1">
          <mxGeometry x="240" y="200" width="82.51" height="80" as="geometry" />
        </mxCell>
        <mxCell id="mNUbwTobc1eYGkok-ZhT-29" value="" style="shape=image;aspect=fixed;image=data:image/jpeg,/9j/4AAQSkZJRgABAQAAAQABAAD/2wCEAAUFBQUFBQUGBgUICAcICAsKCQkKCxEMDQwNDBEaEBMQEBMQGhcbFhUWGxcpIBwcICkvJyUnLzkzMzlHREddXX0BBQUFBQUFBQYGBQgIBwgICwoJCQoLEQwNDA0MERoQExAQExAaFxsWFRYbFykgHBwgKS8nJScvOTMzOUdER11dff/CABEIAWgBaAMBIgACEQEDEQH/xAA2AAEBAQACAwEAAAAAAAAAAAAABQEHCAIEBgMBAQACAwEBAQAAAAAAAAAAAAAEBQIDBgEHCP/aAAwDAQACEAMQAAAA7YAy5DuAEPc0y5DuAEPc0y5DuAEPc0y5DuAEPc0y5DuAEPc0y5DuAEPc0y5DuAEPc0AxcEK6hF1DwbcEK6hF1DwbcEK6hF1DwbcEK6hF1DwbcEK6hF1DwbcEK6hF1DwbcEK6hF1DwbcENcACHchHljC6BDuQjyxhdAh3IR5YwugQ7kI8sYXQIdyEeWMLoEO5CPLGF0CHchHljC6ACG0eN2HcAIWtPG7DuAELWnjdh3ACFrTxuw7gBC1p43YdwAha08bsO4AQtaeN2HcAIWtMaMXBCuoRdQ8G3BCuoRdQ8G3BCuoRdQ8G3BCuuKscuVXCv0GOX1u0fbz1wrqF6uoeDbghXUIuoeDbghXUIuoeDbghrgAQ7kI8sYXQIdyEeWMLoEO5CPLGF31/W6hRt/u/Xfee/wDKrv4eByrnEzOB/wA+fE7zg36PkqNfx/srnVz0u9rO5bivlTqK9DuQssfLGF0CHchHljC6ACG0eN2HcAIWtPG7DuAELWnjdh3BEmdWYUnw7F/v+Pxy93r7zZ1vpJdP8+Y582bX+s69dhechej7xT72axx4o+P7D+n2Mf3uSeoF77PQ9oX5fr0dfC1p43YdwAha0xoxcEK6hF1DwbcEK6hF1DwbcEL5+NwnWzPU7G76fxK9/N4uGn/tx5yG36+u1TnVd6/T9w5zaOIJnnMXh1nX2PZj0/Y/Tltr5X6pnh1y7YfK9dPsdT3A31fpvqNFCuoXvl1DwbcENcACHchHljC6BDuQjywLnCUaTTzpXOnzHXP5Rddp/HrFypysvkkc7m/L9Xvvoe+e5Bjg4a5lT8Osv59osvsfX/X5346k95Tdflzh2D4K9H6qZh9tzZ1Z7TffObQ7kKRH8sYXQAQ2jxuw7gBC1p43Ydo8ur8v7/n7KXyL4xvhd/8AlwB2YQvetHLv3ebR5xqPKs43+PucOeN69fvba+d/j/hPtbLV8pA56+gz862fr2G/Dz3if7H6JVbPZ8fwc/t8fKZTgyOBu1HVLtd+oeW8bsO5b14ELWmNGLghXUIuoeDbg+d6ufUbQ2X3FzhGL8jt+wrgH94/vJ3x3u/YyMeF/wBOx35Z+9er3Mn5Yvkvs/wU+dL8PUVW39PzK7YGv0B63CXzPVYdm96s9kIPlYUezrz226jd1P0tz8K6hdLU3UPBtwQ1wAIdyEeWMLoOon3vw/Ofy/oJdr0Xyyf+35YrdwaffD1vcZZOMOUerHRavd9/lGJdyOTv14m5Z46OEHM9P9M8/Y8/Ddevqzzlwx9n9Hk/S/M/H8118f63N8OJdc+7XSTu3+kqJDuQuppvLGF0AENo8bsO4AQvLNOrfOnXjl74b1H1Lc+bTgAAN6r9p/nL7CP8PM+tvdtbkPc47WEXIAD8eOeTEzD5z6M0ZPx/b1cNnXvuD1E7dfpLnfzuw7nT1AELWmNGLghXUIuoeDbg+K4v7Cw9e3rFzdwTzt+e+nDjJXp/v5eWeejDAAAm0ss0/wCV4V6LT2Iudd72zzmocvsEzLOmMcHoe/I27uFO2XVruB+muVhXUK8rbqHg24Ia4AEO5CPLGF0CLwxxrClOwHHnIf556QOXkG8HWGHODrb95ZecrDndgHj5B115U9PiTvvedeFa3ss+cxwOt4+QPy9PPOh895RZ8347tt1u7I/p7g0O5ClxfLGF0AENo8bsO4AQv2/L9jqT2D699gvzn1ochJA+L4w5X4c7hzHwtzVwblM7Ie76vtcTBDXkAh1PWkZRfrInq7930HqxXkih6ny3yNu5S3hO10cb7biflzmvsqb4b7xvf8743YdzLECFrTGjFwQrqEXUPB+tgdNOwHX7mf8AP3ZWkz9OKle+9B557/FHIn5z/OCeT/ovwtPfovX+FgQdnKXr8KTbjHnb8OIfcvdPIvzP7/c3kPhiZ21o3sHqdX7L+N/B4V5B5GWEWNZQtuq6h4NuCFdQi6h4NuCGuABDuQjyxhdB1o+b7d8R81bcaelyRR56w4Tkdt/oJujpT73c+HZxuq/udnMtY3Cv2XKqXo+e9qvC26vPxZ75dAh3IR5YwugQ7kI8sYXQIdyEeWMLoAIbR43YdwAha08bsO4AQtaeN2HcAIWtPG7DuAELWnjdh3ACFrTxuw7gBC1p43YdwAha0xoxcEK6hF1DwbcEK6hF1DwbcEK6hF1DwbcEK6hF1DwbcEK6hF1DwbcEK6hF1DwbcEK6hF1DwbcENcACHchHljC6BDuQjyxhdAh3IR5YwugQ7kI8sYXQIdyEeWMLoEO5CPLGF0CHchHljC6ACG0eN2HcAIWtPG7DuAELWnjdh3ACFrTxuw7gBC1p43YdwAha08bsO4AQtaeN2HcAIWtMaAMuABD0MuABD0MuABD0MuABD0MuABD0MuABD0MuABD0AP/EADsQAAEEAQIBCAkDAgYDAAAAAAMBAgQFBgAREhATFCExMjNABxUgIiMwNEFCFiRRUGElJjU2RIBFUmL/2gAIAQEAAQwB/wC1UrJcfhLwGsxq9mZY0/q6e5uh39CfuXEXQZMc6bhOMif0cpRAG8pXowdxf2GVTPVdQj2xYeE00UbelqSS9+L409NvVzm6JhVG/uGmD0TAw9oLZWqlFl0H6O640/Umb1f1sTnmQvSFXl92ZCIBYNnW2abwpojaXq/oUuXHhAJIkFaMM+ytM2ndDhNUUCtrIVJF5iO3rc5XLuutl9hCt4uFHdcurrZ/1MIT1mYSLfnK+a4T2XuV47sywCsmPUZfUW/CPneYP5+wsodVFfKlk4Bufa5zP2T4FfEiRKmK2LEHwtVd1VVXU/Kp0uQsWlF1ercsN7xLR7VWZllL8QxFOCntwXEZSjbwE0gEQnFvy9qKipulniNdN4nxv2pQXGRYq9gJwukQ6q7rboe8Q3xPOXFzCpIqyJT9AjWubTulzHKKCIUeBHHGiiaMepwiHgzQi8TGpkWMkiMbYRmvdt1t31LsYcEbnyHoiYSJ6yrOS1nCD2lcGQ14nNR7LLEnDf0umK4RaXOSCJ0K9Y4b2EYVjXsejmeZv8hh0UfjL7566qscsmetLV7ki7jANgAMawbnIxN1XTXI9N2ryWuNV9o9xveBI/RdizqDaj4YuEDR/FNnuJoAARQsAATRi5eFf45WBax2+68lrTQrcex2bEjzLzCjox/x4FTcwLqNz8Qu/mMkyeLQi4E2LMpcflXcj1vduc5jyJsjGIiN09iEbsumMQbdk+Rkd9KhHFXwG/ufUeRSPiHtFa9tnf46YSTXukRmPaRjHsXdnKUQjieIw2vHaVMvGjttKuS5oqaxbbVkOajeHy2UZaKma6LF2JOoMYKYvrW63eUhHP7OzZfZfxKx3D2gQiI7i39nJKSbIkhs6/rkfqa2B8ORWJznRL3Jii58KgisYwQxjYmzOVEVftrL7YHR/VoXo8mASedx/mfKduspy/obn11Z78zHMX6GqWNn78u6tPV9fJl8HFoNdc5C3pUudsJ+NWUBFPAn7vxm5LbRSpI25/5XE7+V0u/a7R7eqjeNZAap8xpRdxTm0TOHkXhiVe7kn5xP+ngPCi43lMz621RiV2JQoLSuKTpBvRoVf8WjL5TJMuMYvqukVzy47jIaZiSpWz5r3q9f7WEIVlCPEKqo1sXKaLcQgKcDj5bZooWQXhbQUyU0V7HPR5/Z2VdFIICbmKwaHyOjB3rFjlPm9aPwopya/V1xMXaBUIuuaz2f/wC4Gpg9tLXefcM0DA6kPjy5BNBx/HYvcrBvUbxgbwgAwbXFI7tdrq32369Yd+3yi0j+Sc5o2q96oiX+TyryR6oo0c5lDj8WhDxu2JLe9XrvoJXveqL7PCv8aPPgRfHnAHo2WUYeyQ8qmzoG+0eue5UvMun/AEdWrG+pc3n/AFE1QoL0fuf70u13cDCqAHiNMbQKukh+BXR2r0jZNkRdKd39tK96/kvsoByF4t+rVT8HPUb5EhBBEQpSNYO4vbDLJfquqY5IlRTQ6GNwC98znK5d15He4nE7ZqHvKaN4lkDc+aU4vDYc2nZtKO7hhVKKqHzuf4UR4G/pLJZ3XOtWokf0fQWePYGfoOK45H2/ZoRQCgxPpoohaWQq/bSmf/bSvcv5L7ZDgEvCSQNi9qIqdacu/NZzWP0vavkPSRKegqyIx/VXXWK0cBg40ridIzqCnhQjEVMoyCd9BUJroWeT++V4GtwOfIXinW7NwYPSB8aQcyho8ei+FVhVWmYJvCMaMakrj7qppSPX8tdvy8hvJb5fqmsVyPDiSET48z4jw2+KkYeOfnI0GaGwhglh7nJP9zL6J3kcpa2xzSvhP6xtxDHQKrnRSE0CHVxNujVgB6WSRdKR6/lrt5VTiaqaELm914t+S/yNtUqRo7EJL/zjL+L0sg9RsktquQ2Pcic8bHsIxhBuRzPab3k1jfxZ9iYnWUPdXVkxhK6e1/dwd71rprV7uv51c9WS0S+RJ8b0kv0V3E75KduqJPWFpOnm954utyrq7ismVkpHJ72GSHGqHicu/sGe5jUVuhOc5iK7t12ato8jHrhZwR7xY9/VObxLK4NXF6k9qV9cx5NUdb6prhR3bKXS912rv/cVF5EK8PpDm/KTqXQl/Tt3Kjn3QAHI7ZzHI5mRWwIsQ0VhEcfF4D4FSPnW8JPbIMZRvGUbXjLiNGR3EgSj1AqK6s36JFRr+Qnhv1cJxZPSN0/vO8hZyGVOcSJUhrkFEu6ia5GgnjV/Z8myqoVsFByWLu7CZbHKgLVnBV4jCgkaaQTpJfmm8J+pfv5nTN0vavkJ1fX2Q0ZNiDOln6PKw7HrXkfHJi9nLZJPTT1XneUpeb26t9NdxNR3ypMuJDRHSZQgpHs62W7gjzwEf8iQvuImgJz2ew2638imrj9vn0R7fYVrXd5N/kKdyF4OHq1kFv6nhcY9lkQaE1j+8sJBOKViIFHvEkPQuL3MkxSVc5XKflEZz37KnsSF3e1NY4nSM6kk8k1N9tOIlxnSkH1i+Xsm++3XrNf9Qq0f4TNudXkJ1ZrE5rvcuyJ9uXdETdezi4n8S69HzVkXNzL8jb59GrZh4gYLpDj5VkV2xY1fXcymPUaUwHqRUdK5e3Vrlj2yFiVQkKTp+as+IvG5KPJ2WROiyhoGV7WSVDreE3mvqK7IejIkaeMjSSsshCGvRmPITFqmSsglvORUJ7Dnsb2uTSyW/iirp5Xv7eyaXmIUwuvRqBWQLKR5BiJxt1jvvZRdu2TXEv8APs5FKfDpZxBrs/G4gwQUk8PxGJwtTWVxUA+LYA9wsY/SY0aRtt7cytr7D6uGMqxqOniPQga4SP610r2N7XJpZA07N10sh/2RE0r3u7XrybKv21JsoEP6iWNi2eQeshvgQIhHrjNaWrpY0c7OE3z2d9usY/3Jd+1eQn2FTNjjTcmOTxkjpCe7hKzdydnXkUz1nJiVsP4jgBbHAADe77KlGn56WS37NVdLIIvZsmle93a9eRfdTd3Uhriqj+JPFufLa8fhBMTTL69sequq1XTMYzKz+skcwyD6Oa4XvTZhT6g1NdVs4IcMYfIsX3m6x/4eWXY/buMUjWJXyYxejn/SuQv+GSyHzVLjsSn+Jxc9JXq7dKUafmmlks+yKulku+zUTSlKv562c7+V0U8cHjSBj0XIKcXbNR+jZfBZ4cYz9NyK5ndUCo4tMrM8sPweBjPR5aSF4p9wzUbAqMO3PGkHWLR0kLwKuO1Veu22/V5Q29fnctN9tJIInaiLrpKfdi66QP8Ah2ukD/8ArXSGfw7XSU+zF10l32YmueKv30570Td5FRC2NcHxJ4E0TJKYfZJc/RcwhM8OIV2m5NaSuqHU8WmizqZ3IZBImH5RL+rs2MSP6NQb/ubV7tR8Dx0PfAU6xqOnh7cxVxmLxLttv5rPaiQ50e6it96JlFccTVkPUJVyKlT/AJunZRTt7CFdp+XVze7HkO0/M2dg6/fTb7IJX0tMq6aLO5XcgkGiYxmUnxp7Roz0eSifVXDNB9HFUzxZ0l6hwnGg/wDj+c0CoqYu3MVkYao923brf+/9AkYrjsp6vJWta5MMxpP+C9dNxXG2dlSPTaChD3KeGijBHAmwQsZyb/3/AO2f/8QARBAAAgADAwQOCAYBAwUAAAAAAQIAAxESIVExQWFiEBMgIjAyQEJScZGhscEEY3KBgqKy0SNzkrPC4VAkgOJDk6PD0v/aAAgBAQANPwH/AHVDmywZn01jWkv9o1nsfVSNRg3h/iEFpmY0AAjntxbY6T4J4xn3xRfcFjFZr/ePaVvERryfNTHRWe47nugZ2lV75UdKWdsXyMdEGjD4Tf8A4OWKszQhqa/XM8lg3u54znE7vpUo3aL4GRZt/YwvEYzN92TB5wf+lNur7Jz/AOAXtJwAzmJLfCn/ANOYHax6THGMYybbZtM2kVyCMD6Qw+m6Blt/ir25RCGk2Wb7J+x2K1psnKDBwH4Z61ze6Mi2jUfA/wB4A30l7pi+7zHLTciDjOcBEs0FM2qmnFoQUCjN/exMkTETrIhnG+a7JdZ0UjERTiZ20UiyEAzWrVae4btherCoMJeJVqlPYbNC73b7NKfmDzhhVWU1BHKmH4UkG9v60xzFyWh0U1dMIKKFuAGjcHLMTne0I+NfCOjKWzX4jCcVV4EDeTl4y/caIdsnMPs9BtEC50PGQ4MOUON5Kw1n0Q++WW2WZ14JogCl3lwcwAs9KkWsgUYmMGnOT8t0N0mt1A6LZjDqGU6DuHFGVhUGLQBGdK81sVMTUqVwYXEdvJj+mVpbTohzbWVMy16UzyHAZq7mWAGQcbe5GX7QMUdD2Qp4xWworhXjGEUKvULtyzqZ1LwgW+nXEj0iYnbv/wCXJSbDut+1k5hrwTbVG31gnnNrwlAi4sxoKwxNm1WnwqLqQorRKy2/uJBUMwuthsh4TExhbtHsEaiUHzUjWcsexRBwkhO+bHRaczdyXQZbBSVoq1GYYx+E/iDyRzYedLy16Mv7wR7pdcy6dOxMHGHNIvBit1hdtTsF4hrmIl7V8zxNYNNYZLsgHVu8XYL4xhLBmfTGtRBGhXnHupHwSf7jrece+kaCssd0YvWZ9UYKoHhuGlzx+lweRAVJMPvXmLlmY0wTTDCjzf4pojCPDdYM4r2R6uWfOkescD6axisgnve6NadZ7pUakuvexj1kyg+WkY2Ax7THZu612JjOP1yq8hRau7GgAjnHJbHSfBIcfiTTlb/js4m6MFa2flrGhbI+aNJaYexY/LWV+5fGDTXmdwuj1arL8axjNdn/AKj1csLwWDOBBz7hpkj5ls8hczJjpjYpZhgGeiMXZtaNdlljzjFZbzf6g66Svovjqaae1qR7QQfLGLLth+esDMN6O7hq2Zrpxi3RBzUzmDlsrXvOWC1COYdDLm64mDJ0TnHu2dt9F/cpyECTLcaCS57oweYxHdAzhBXt3R2WFaHioDjp0Qci21l9wg8+gtgYinGEOoZWGcHgKE/qa+KxtDnsFYX0m73qK7Nv0b93kKP9MiBwQJcV6Tm7sGxLQzEOBW+JE9lX2WFrcV3E9idG+vZD5QcquCCInGjNS9tVRBJeaR02+2xQxa9H/d5DbnftcHMyNqE1VvdnhhcwvETVskDmKctYnuZzLhW4Ds4BuMrCoMdFJhp31g5Zh3zdp2bMWvRv3YryCtu6+qvLs+MHmNvG7GpwS8SYtzJ1RrKynuhb1FmygPVn4dZnov1V5COLaF69RF4jMrG2nffEq1tdq8ixlSufRuDB4I5LbAVjohxXs4EmEdfklWuRzWkk/GtjhK02JpsSgc2Le6Jt4HPbSSckDIHvB+0SwdrZuNvcqnSOAAiVt57BtfI5D5dEhafVw21H674pdsbZLtfo33dwFY2r916/x5DJaw7W7C2hmGWHFC0qrN+s3CJtLZGRQOaNyDZM0i1fqAZY6O1yz3C+ObTivTNfkOjdyCWl61cqxJ3tqm+FMziM1oWVHXD2tqDZTbyv9t3hCSXPdDz1l/8AbX/lyCsf6k/+XdECWpwtmkTib8FBpTYL0YjpLerRNlI/6hXd9IjfdovgZGNXI6rVeA6Nat2CJ1FrTfH2VEFnmTFwLnJ2cgrH4/7u6Kh0GLIbVIQmwDzgc3WIEB7yMhdrqe7PEqWqD4RTg8TdGCm2flrGmiDvjFUab35IOZ5n8ZcdFPwl8zGeyLz1nPyGsf6odk3dte11UY+Rj85z3Ugim2kUsjBRm3OjY1nAjUUt4RrUQecaqPN8KQcSkrw30aLU4/NZj2rA+WOky227WrGHJZ0xr/zkteO669jqjSaR7YJjUQ+caxC/eNCvN8KR7CSvrjBpzv8ATdHq5YXxtR6yYf42Y6W1ivbyuQLM2zzQt6v7o5wskr7iI9h/tGiWfOPhHnGmb9hGrJmTI9hJf1xrekH/ANcaqGZ9REatlPKPWTHaMVlLX/BHLtTNL+k0j8541ndvEx+Usaqgf7tf/8QAKBABAAICAgEEAgMBAQEBAAAAAQARITEgURBBcZGhYYEwsfDB0eHx/9oACAEBAAE/EPDp4Gjw6eBo8OngaPDp4Gjw6eBo8OngaPDp4Gji6eBo8OngaPDp4Gjw6eBo8OngaPDp4Gjw6eBo82dyzuKU54CUZlncUpzwEozLO4pTngJRmWdxSnPASjMs7ilOeAlGZZ3FKc8BKMyzuKU54CUZlncs74AUYlHUQpxwAoxKOohTjgBRiUdRCnHACjEo6iFOOAFGJR1EKccAKMSjqIU44AUYlHUQpxzNHh08DR4dPA0eHTwNHh08DR4dPA0eHTwNHh08xKMyzuKU54CUZlncUpzwEozLO4pTngJRmWdxSnPASjMs7ilOeAlGZZ3FKc8BKMyzuKU54UdSjqIU44AUYlHUQpxwAoxKOohTjgBRiUdRCnHACjEo6iFOOAFGJR1EKccAKMSjqIU44AUYlHUo68ungaPDp4Gjw6eBo8OngaPDp4Gjw6eBo8OngaPNncs7ilOeAlGZZ3FKc8BKMyzuKU54CUZlncUpzwEozLO4pTngJRmWdxSnPASjMs7ilOeAlGZZ3LO+AFGJR1EKccAKMSjqIU44AUYlHUQpxwQ7MKz3qIkL2BPqMUx6FQB9wifbyBRiUdRCnHACjEo6iFOOAFGJR1EKcczR4dPA0eHTwNHh0+FdxCbIqwh+eGntNn1uFas5tn+eMSDrAP3N3+hBIb1wTJI1OvqvP7jDD+uUXqYCQpSBb+2qICERHgaPDp4Gjw6eYlGZZ3FKc8BKMyzuKU54CUZlncUpzLHaCoCVST9HRqiRu1WMfnvXRLMexBNCxs8ndXWoQ3v/AH5CC6bvAfZwRAOB0/fl4vT60+tPmJRmWdxSnPASjMs7ilOeFHUo6iFOOAFGJR1EKccAKMSjqIU48kPH7r1vJCAPvQzHpy28t3sKignamgO3oIjhKgivscOtYf7R0osFbmtH78Jv2Ias2kfX0nxknQhT18tAgkEIjsRgtf0Vz/4XCQri1r69P2hnuat7z1HAAoxKOohTjgBRiUdSjry6eBo8OngaPDp8ZWFlr67Lmfjr3v25VRBLjsvaiqqtrG8r3I4RaaUw0NmuylVafTJZEJBA6fxoTI26WUjnJOwHj6RwkKoDNNd7vYy7IxWNdf8AFAt4IIFiJhHwaPDp4GjzZ3LO4pTngJRmWdxSnPASjMs7ilOYbQSxz9vXePTTAXW+PvAKaSgbQCPaxDtwgxcOh4j7fcXv6n9KYM7qz9irDVJQqD/1eAunETZnw+KNID6X4DXuAh/oyoV7jLv51/JCHWsFKBKMyzuKU54CUZlncs74AUYlHUQpxwAoxKOohTjyrNi3YPp0StQphelHxQAswgAAKAGjxfJMiJL5LlVfV8pxutFwlxc3LGRPSj4Ijt20h2Lsj0z8mUIMR4IlYMAwZQSZ9DDWH351H9YeQKMSjqIU45mjw6eBo8Onw9xGtg6/pSi9TPL0SbGj3ZcKFnZk4kB0zEwpClFnijKzalvd29wZibn9ygPsxUh2TnFwgeXQgOGmTF2tkxDR/mzPN/PTzGjw6eYlGZZ3FKc8BKMyzubUZXQS+eKKvyOBO54abnZFsBBHRkgFtUpIFG2CEwtNHh1lIDxHMAa194z/ABmkkarIBlKCX4E2R9qy3Ge/tnFN3pSGZD1Cghdttv8A4ofoNo9hc9xbdkTPOEozLO4pTnhR1KOohTjgBRiUdRCnHl2wuYS2h9z6umNnt2d5tDgaIchYBasD7JGymlp7ghMm92AV0w0sxB0rtnIYALPwm8HyiJoe/wDqgkEz/a+8rLbrz9KiB9P7Zyv+wt5ELXr6CWVyF7X7s6BsJ+CTYstKj1JZcMXPxcSbR1EKccAKMSjqUdeXTwNHh0xhDkAAC1V0EuotaodBfNFqq+DXfVCReg1A5iUuCvAelirtfAuRSwuTYf8A0l8deb9kQy9OH6UTUWjX3riwjn0Ewc/JhlNSPvb8Rmspmj8TrEgIBQFAidAm09oaONwmjt6s79mU9C8c3TwNHmzuWdxSnPASjMs7jjnEBtqsb2lnuttdyfBWVgfo6HURJA6GUVdtcP7WIIb/APCjFgNdj90nVt/pSTDpOvtpjEStsfojJ/jRIn2L/wDhLgIBv8aBNYn3YnVPYmz5AKgEDq+nfwsKRArAiPsnnuPp7+0SgyG2KU54CUZlncs74AUYlHUQpx5fqGroEJPwZXbl1ewSG2KHp9kxBTe5vq2m4ts18swMJTY/EkZmQGlfIoA6cCAe0JdfW6tZtn+sRXJV95T/ABLwkYrYfTILRfmqk988ATOyz7dfQS5Et32OF/K8d+zGd/8A2/ICjEo6iFOOZo8OnyJVXql/aKX0hwUewiX5bQv6lmAECbZ/rEV2V8mmoBJaaxK1QHgMPFl0iTa9IGpbSZt/lkXesZL5QSw1ic/uTNW3OxdcBb6tGH2K9gsH9JNDYfe7wdexlvMk0eHTzEozLO4pTnzTpx7HrA/hrW9DbKfgT0FnwqIbfKEOIr/Z37AkWWEfQAcN3DRauiE1SX9nfgVCbGOo66K/wTeZJEqH64kY1AAjOlXbtir9CZ6h7aeHS9SzLvyRKMyzuKU54UdSjqIU44AUYgFmCCrr+KMBdDGPpp+dez0gPLIInSJGHUdv1zq9EKkUDZIr9P4AyLQxukYt7WN9UWQMpK515lS9Kf4uuKL0ZUQpxwAoxKOpR15dPA0TSR71oTYOx7RpXwq3sEI4JSfw5w4WCntD1X/8E0Zc/ggdtuqKqq/yqvyAfLKsa+k5zTtY6eBo82dyzuKU54CUZlnc2DZVe9iGwrW1+8pa1m7WLfJwMSFW24AhHCUuv4hZBdt9gwmtatPso2KJT/BV1H6gsaX8kItybilOeAlGZZ3LO+AFGJR1EKccAUYhqdPu9FHb5NAQOBgAAFAUBzqIUP5eK0kOkRlTqaB+vcJ1hB0RlmM8V7gMKqFy0Y9/YPnUVFBFK2VwqPsfdl/6Hx3kBRiUdRCnHM0eHTwRALWPPnw6/wCzDn+OwUflWfF3G/2ASAFFCCaA8ZbFVTtRB35EKAXaG/KglAtY28A29gjtdL7fMaPDp5iUZlncUpz5aNVZLdgbGFKGVH2YmXkfitwwUBEz5QFOz0TuUEth/reC+bR4PsDLnhIiRujh++YNwJuGic2R7pdJndpywNko1NsHpjHAE0Ofe2FsV7cEJpBtSZZpL9x1P/0RT5iUZlncUpzwo6lHUQpxwAoxGBRkSrzZCzsxXCq4qEDnaNsFgqT1vAQSG0Fe2e49tl+4VMXLaGhPmWEaUUh7VRlxIFDtOkVFVWajTWH9qI7/AN9m+h0NECGgmXYJ9P8Aa2DmTxbONWYH4ZkXEJ7KSjqIU44AUYlHUo68ungaJ9dPo/18vwFFIh+1VDrJ8VWr7jZGAUBSMJQImSFUPRVhHLTuwuJwWoHbN+F6MwP3mCaB9jNxYHRKowZlAEuCk39IEDI72PtliiUfXx74TlR3q/wKStT9Av3BFYimP7/MFteHTwNHmzuWdxSnPASjMEbGBDdd/APIURIAB1Ku3Qz2JEf7sNIWRSKEE3ERsD3am3b2tgP/ABon7xWbVB1Qli0Tttlqhf67ZZi3X3YqX576/uQ0qPbv1EAF9YfW2g2K9H7mLD1ZHxkYsJ3Qfu0wKulMFdAcBKMyzuKU54CUZlncs74AUYlHUQpx5GO9D2EsB7gUw9BeyMPWD9E/2I+m0f8AsoV0fdWOuD2h4BbaEtrnp+IFZeWPS/sEvvxT/wB+F6Xun6xt19/+nAb9W/VBAw9uffuD38n/AOvFgMaC/MXCsEAUBgPYJvcQpxwAoxKOohTjgBRiUdRCnHM0eHT5c0krZR+o5TOxmZ7KzsHs0f6H3tn3mA/cIUa/FDUD3Gybfv787+WwX0GIX/u2YPnbC/vM6t9/WXUvxw1HyCAAMKqjB+ginaY6eBo8OngaPDp4Gjw6eYlGZZ3FKc+WZsvoV/QRu/cTDyvz9FE0O8XJ+0lDv6/8nwWC4s7ilOeAlGZZ3FKc8BKMyzuKU54CUZlncUpzwEozLO4pTnhR1KOohTjgBRiUdRCnHACjEo6iFOOAFGJR1EKccAKMSjqIU44AUYlHUQpxwAoxKOohTjgBRiUdSjry6eBo8OngaPDp4Gjw6eBo8OngaPDp4Gjw6eBo82dyzuKU54CUZlncUpzwEozLO4pTngJRmWdxSnPASjMs7ilOeAlGZZ3FKc8BKMyzuKU54CUZlncs74AUYlHUQpxwAoxKOohTjgBRiUdRCnHACjEo6iFOOAFGJR1EKccAKMSjqIU44AUYlHUQpxzNHh08DR4dPA0eHTwNHh08DR4dPA0eHTwNHh08xKMyzuKU54CUZlncUpzwEozLO4pTngJRmWdxSnPASjMs7ilOeAlGZZ3FKc8BKMyzuKU54UdSjqIU44AUYlHUQpxwAoxKOohTjgBRiUdRCnHACjEo6iFOOAFGJR1EKccAKMSjqIU44AUYlHUo68ungaPDp4Gjw6eBo8OngaPDp4Gjw6eBo8OngaOLp4Gjw6eBo8OngaPDp4Gjw6eBo8OngaPDp4Gjz//EAEMRAAICAQIDAwgECwcFAAAAAAECAwQFABEGEjEhQVEQEyIwMmGBkUJxcqEHFCAzNFJisbLB0RUWQENjktI1YHCCwv/aAAgBAgEBPwD/ALmZlTtZgPrOhLEeki/PQIP+Es2Y60Zd2A2GuJOLzA5SFt5e5R3e9tLxhnFP6SD7iN9Rce5yMjcQP9akfuI1S/CXZjIF2gdj9KNv5NrFcYYfKlUjsqJT/lt6LfI9fhpXRxurAj/AXLsVSNmZhvribix5HeCu+797dQn9Trh2pXmr5PITVfxyeBkCwv6Q9Pq7D6Wky9ixIsEmGpWEY7eaSEA/+u3Q64ho18dlrVasT5peUhSdyvMoPLv7tM7PtzHfYbeTCcZ5fFlVd2swL1Dn01HubWE4mx2ai5oZQHHtIexl+seuv5CKnGSW9LXEnFUtuR4K0nZ2hnB+5f669Dk6nn31Tu26EwnqzvFIBtup6jwPiNScX590K/jgXfqyRorH4gad2dmZmLMxJLE7kk6x2OsZS0lauF5yCxZjsqqOrMfDX91lm3SnmatmwASIRupbbuQnrrd05l7Rv2MNV7E9SZJoJWjlQ7q6nYjXCvHK3GjpZABJyQqMOxX/AKNoEMAR0Pq8nlYaMTEsN9jq9bmz8diY5BKdBH8007As0jbblUUd2r+BSvTe7SyMdyvGyrKQhjdC3YCVPcfIDsQdO3OxbYDfyY3I2MXaWzAFLAFWVxurK3VSNDiiCDeSlg61eyQQJecvyk96qQADqDE5a4eaLH2JN/p+bOx+J7NQ8GZx9jKkNceMso/+ebUGPxPDtmK1dyiWZ4mDR1oFJ9MdCzeA1VbmgjO/dt6rMZqCjE/pgbAkknWbztjLPKEYiBevcX1jM5PjoZaxrw2K0jc7QzLuA3TmXwOr+fmuVTThpwVKzMGdIh2uR05ieuo45Jm5IkZ28FBY/dqvw1nbO3m8ZMPfIBH/AB7ai4KyHWxcqQDwLlm+Q1HwjiIRzWcrNKP9JBGPm++vN8G0esCSsO+SYyfNV3Gv72Yyl2UaEaHxihVPvOrPGmSm3EaBB72Lfu2GrGXyNrfztp9j1VTyj5DTqo25X5txrBS+fxdOT9aNG/3KD6nMZCWujJDC7tt9FS33DWSxnE2blLPV8xX33HnZFXf3sASdRcFMP0rLwJ4iJWl/46/sXhSn+kX5ZmHcZEQfIduhkeEqY3r4yF9u90ab+PUnG4jUpWqFU7lAWMfdvqxxdkptwFQD9osx1Lm8pL1tsv2Nk/dqSaWY7ySM58WJPlq8OwrVhs5PIioJl54oljMjle5iB0GsrhWx8UNmC0lqnKSqTKCuzD6LKeh8nCTl8JR90KD5Db1PGOYmxbM0TkO52UbkDr11Nn8tOSWtsPsgLqWzPN+dnkf7TE+QOwUqD2Hrrh2hVsG9cuIZK9NFYxA7c7udlB92lyVG3OlS5h6YruQnNDH5t4+bsBUjWTpnHX7dQtzeZkKhvEdx8nIeQP2bb7aPaDrNV58mIb9OJpq88ScvmwW5Co2KEDptq9E+N4bkr2wUnt2UeKFvaVU6uR3b9NDqNcHf9Cp/Z9T+EKrelycTpWlavHCd3VCVVix33I/JwOUhx8lqG1Gz1LSBJeX2lIO6sPq0r8N05kuHKtb5CGSukLIWYdOYtq7bkv27FqXYPK5cgdBv3D6vyKuRvUeb8VtzQ83tBHKg/WBqeeazI0s8zySHq7sWJ+J0g3dB+0NcILy4OkP9JT8/UvDFJ7SAnx1x1jocfmiYUCrNHzkDpzAkHyEpyKAvpA9p/IZGTl37xuNYvBRWapv3rZr1eYonKvM8pHXl9w1cwVRqc9zF3WnSDtmikXlkRf1vePIqMwYjovXyQDeVfd264ciMWHoKRsRDGPkg9TPkKlZHeWZVVepJ2A+J1xdl4sxl3lgbmhjTzaN3N2kkjyY3F3MrMYqsYJUczsx2VB4sdW+GL9avJYjmrWo4xvIa8nOUHiQQPyK0T5fAUI6npzUhKk0I9rZ23DgaqVZsNRyl28hhEtWSvDE/Y0jye7wHlWN26KdVazF1T6bkKPjqigjqxKB2bep467eIrHujTy4fduGbywfnFuK1gDr5rk7PhvrhkT/2wjqdo0VzYY+yI9j7WpShkkMY2TmPJ9nu8sBsxOJIGkjcdHQlSPiNSi3acPZsvI3Tmkcufv0tZO8knVbCZCfbzGOlIPRimw+baqcEZiyQZTHCv+8/d2axfAlSpLFNPK8siEMN+wAjodhpFCKqjoBt6njypKM6z/rwqfkSNeZl/UOvMy/qHVCzkcbOJ6kpifbY9CCPAg9dXM3mL8DVpJ444n9tIk5Of69Q4S9PsY6lhx4rGdtQcIZeXbagR73cD7t9VuAMo+3PJDGP2QW/kNV/wdR/592Rvs7J/wAtV+BsLDsWg5z4sxbVbC46r+Zqxp9hQv7tLDCnsxqPh6zOcM1M4Y2lLK6dGU7Ht+B0v4O6A62Zz9bj+S6i4Dwye1GX+t2/kRqHhLCQ7bUYj9pA38W+ocVQrjaOuq/ZAX922hXgXpEugAOgA/8AAH//xAA6EQACAQMCAggEAwUJAAAAAAABAgMABBESMSFBBRATMDJRcZEiYYGhIEKxBkBDwdEUNFJTYHCi4fD/2gAIAQMBAT8A/wBTKjucKpPoKMMo3icfQ/usEDTHyUbtVvb5UBcpGPc1/Z4+TN70bVTuxPqAal6NiO8ePT4al6OdfA2fkadHQ4ZSD+4QW5l+JuCDc+fyFQW4YLldKDwrQUPKkZfQpqSxhVCe0YYG5NQsWU5pnd8amzgYFEA1LaLKrfBkDfhtVxYPHkx5I8uY763tteHkyE5Dm1QW+zOAMeFfKsR9nudeduWKZA+9dgvmaACjAp3CCmaVBqaIhfOldtJCsQGHGmUOMGruwV8svBvPz9aIKkg7g4Pd29rnS8i8D4V86hifWPg1PyXkKJkRwskZUnqBwQfI07F2LEAZ8up01gcaYysNLzZXyrtEUAZo3CCtZl8I4VdLpuJfXPv3Vva6dLOuWPhT+tW9q2l5CQWUcflRQ6tSuVatDMwZ3LGi6jnRmSmuUFG6J2rVcPtG31oQztuwFC1H5pGP2pYIk4hBmnVFKhX1cMmuk103b/8AuZHc2kACpKV1Mx+HyFRdnECTxY7mmul5Y/Wu2lbwox+laLpwTpwBzJzQt5D4pQPQULRPzMzUsES7IKAA2AHWnazE9lHkDc0GYMUdcN1dMri7P17m2i1rEmSFEak4+dC2hH5M+vGgqrsoHUHYKyA/CdxRDSPHGpxqO9S2CpGXjdtQHPnUbalB6ijCMScME4o7GrGaNY9DMFYE78M1cypNcKU4gDBNcxXTf96Pqe5s2URoSd0X8LalZHTxLUl5LKmhYipO5zSLpUD8DRq24pVC7CkGZEHmwrpo5uvfuUmljxocgeXKrSQyRA+YB9+olNCgKQ2eJ/A6MmnUPEMih2kr6I1yRuacSwsFlXfY9SozK7AcFGT1W66pk+WTXSrartvr+p7lLOd8HTgHmTVtH2cYHkAPbqdwmOZoyFSA6Mvr+C0mSGWVXOAxBBq9njmCJGckNnI61jkfwoTUUXYI7vuR7Cr1tVzIe5tgOzHXbFRdfFzX4fWr8oICD4uVJ4R19g8n8ImksWH+FfvQtIl8Tk/ajLaQ80B9zU3S9tHzyfmcVc9Ol1ZUHA07F3ZjuTnubGJpoAyYPAUYJh/DNdhN/ltTWcsm6Y+ooWByC8i++aMdsnjuBRmsI/M+9N0xZxeEKPb+VSftAn5V+2f6VJ07cN4c/pUnSNzJu38/1pp5n8UrH695Y9KPaLpwSKP7QtyT/j/3TdPTnYGn6Yum5/c09/cvu49s/rRuJ23lb6HFEk7kn/YD/9k=;imageBorder=default;" vertex="1" parent="1">
          <mxGeometry x="480" y="360" width="80" height="80" as="geometry" />
        </mxCell>
      </root>
    </mxGraphModel>
  </diagram>
</mxfile>
